<svg width="50" height="56" viewBox="0 0 50 56" fill="none" xmlns="http://www.w3.org/2000/svg">
<g clip-path="url(#clip0_14_153)">
<path d="M24.9979 0.415039C22.1375 0.415039 4.57293 11.4563 3.1521 14.165C1.73126 16.8738 1.72293 38.9586 3.1521 41.665C4.58126 44.3715 22.1417 55.415 24.9979 55.415C27.8542 55.415 45.4146 44.36 46.8458 41.665C48.275 38.97 48.275 16.8463 46.8458 14.165C45.4146 11.4838 27.8563 0.415039 24.9979 0.415039ZM30.9167 44.9077V44.9123C30.525 44.9123 26.8771 41.0692 27.1667 40.7552C27.2521 40.6613 27.7833 40.5971 28.9 40.5582C28.9 37.7394 28.9583 33.1905 28.9938 31.2861C28.9979 31.0684 28.95 30.9171 28.95 30.6582H21.0604C21.0604 31.4213 21.0146 34.5471 21.1958 38.4865C21.2188 38.9746 21.0396 39.1259 20.6292 39.1236C19.6292 39.1213 18.6292 39.1121 17.6292 39.1144C17.225 39.1144 17.05 38.9494 17.0625 38.459C17.1521 34.868 17.3542 29.4344 17.0479 15.6134V15.2719C16.0896 15.2352 15.4271 15.1688 15.3396 15.0748C15.0521 14.7609 18.75 10.9177 19.1396 10.9177C19.5292 10.9177 23.2042 14.7609 22.9167 15.0748C22.8313 15.1688 22.1375 15.2352 21.2604 15.2719V15.6111C21.0229 18.3771 21.0604 24.1613 21.0021 26.9319H28.925C28.925 26.4438 28.9625 23.2011 28.8063 17.9463C28.7958 17.5819 28.9021 17.3917 29.2208 17.3871C30.3146 17.378 31.4063 17.3734 32.5021 17.3802C32.8438 17.3825 32.9521 17.5659 32.9458 17.9577C32.5854 38.5071 32.8813 37.0725 32.8813 40.5536C33.7563 40.5902 34.5417 40.6567 34.6271 40.7507C34.9104 41.0623 31.3083 44.9077 30.9167 44.9077Z" fill="#2FC363"/>
</g>
<defs>
<clipPath id="clip0_14_153">
<rect width="50" height="55" fill="white" transform="translate(0 0.415039)"/>
</clipPath>
</defs>
</svg>
