<svg width="500" height="500" viewBox="0 0 500 500" fill="none" xmlns="http://www.w3.org/2000/svg">
<path d="M478.52 245.36C484.65 191.5 466.44 137.43 428.22 99C409.42 80.11 383.72 62.3 349.57 53.7C253.79 29.58 191.72 51.7 160.69 110.37C129.66 169.04 40.61 158.94 26.44 260.12C12.27 361.3 81.09 472.61 197.79 478.68C314.49 484.75 299.47 426.68 363.3 401.74C412.13 382.68 469.38 325.72 478.52 245.36Z" fill="#007FFF"/>
<path opacity="0.7" d="M478.52 245.36C484.65 191.5 466.44 137.43 428.22 99C409.42 80.11 383.72 62.3 349.57 53.7C253.79 29.58 191.72 51.7 160.69 110.37C129.66 169.04 40.61 158.94 26.44 260.12C12.27 361.3 81.09 472.61 197.79 478.68C314.49 484.75 299.47 426.68 363.3 401.74C412.13 382.68 469.38 325.72 478.52 245.36Z" fill="white"/>
<path d="M43.13 306.63C43.13 306.63 89.13 311.18 112.45 339.69C112.45 339.69 137.08 306.69 181.33 307.33C192.137 294.288 199.017 278.444 201.169 261.643C203.321 244.843 200.657 227.776 193.486 212.431C186.315 197.086 174.933 184.093 160.665 174.966C146.396 165.838 129.829 160.951 112.891 160.874C95.9534 160.797 79.3421 165.533 64.9912 174.53C50.6404 183.527 39.1403 196.415 31.8299 211.694C24.5195 226.973 21.6995 244.015 23.6983 260.834C25.6971 277.654 32.4324 293.56 43.12 306.7L43.13 306.63Z" fill="#007FFF"/>
<path opacity="0.4" d="M43.13 306.63C43.13 306.63 89.13 311.18 112.45 339.69C112.45 339.69 137.08 306.69 181.33 307.33C192.137 294.288 199.017 278.444 201.169 261.643C203.321 244.843 200.657 227.776 193.486 212.431C186.315 197.086 174.933 184.093 160.665 174.966C146.396 165.838 129.829 160.951 112.891 160.874C95.9534 160.797 79.3421 165.533 64.9912 174.53C50.6404 183.527 39.1403 196.415 31.8299 211.694C24.5195 226.973 21.6995 244.015 23.6983 260.834C25.6971 277.654 32.4324 293.56 43.12 306.7L43.13 306.63Z" fill="white"/>
<path d="M69 274.32C92 281.6 106.25 302.95 110 309.12L109.67 461.12H116.28L115.28 327.8C120.28 320.21 134.63 301.28 156.77 294.52C156.77 294.52 130.48 300.76 115.12 321.71L114.26 289.79C118.04 283.73 132.85 262.23 156.77 254.92C156.77 254.92 129.27 261.44 114.09 283.55L113.23 251.38L113.29 251.81C113.29 251.81 128.82 223.81 156.77 215.32C156.77 215.32 127.99 222.15 113.07 245.51L110.96 202.22L110.3 264.28C95.65 242 69 235.5 69 235.5C92.54 242.95 106.94 265.19 110.23 270.73L110.02 302.73C95.34 280.8 69 274.32 69 274.32Z" fill="#263238"/>
<path d="M69 274.32C92 281.6 106.25 302.95 110 309.12L109.67 461.12H116.28L115.28 327.8C120.28 320.21 134.63 301.28 156.77 294.52C156.77 294.52 130.48 300.76 115.12 321.71L114.26 289.79C118.04 283.73 132.85 262.23 156.77 254.92C156.77 254.92 129.27 261.44 114.09 283.55L113.23 251.38L113.29 251.81C113.29 251.81 128.82 223.81 156.77 215.32C156.77 215.32 127.99 222.15 113.07 245.51L110.96 202.22L110.3 264.28C95.65 242 69 235.5 69 235.5C92.54 242.95 106.94 265.19 110.23 270.73L110.02 302.73C95.34 280.8 69 274.32 69 274.32Z" fill="#999999"/>
<path d="M352.94 355.46C352.94 355.46 384.4 358.57 400.35 378.07C400.35 378.07 417.19 355.48 447.45 355.94C454.842 347.02 459.548 336.184 461.021 324.693C462.493 313.203 460.671 301.53 455.767 291.034C450.863 280.539 443.078 271.653 433.319 265.41C423.561 259.167 412.229 255.825 400.645 255.772C389.06 255.719 377.699 258.958 367.884 265.112C358.069 271.266 350.203 280.081 345.204 290.531C340.205 300.982 338.276 312.637 339.644 324.141C341.012 335.645 345.619 346.523 352.93 355.51L352.94 355.46Z" fill="#007FFF"/>
<path opacity="0.4" d="M352.94 355.46C352.94 355.46 384.4 358.57 400.35 378.07C400.35 378.07 417.19 355.48 447.45 355.94C454.842 347.02 459.548 336.184 461.021 324.693C462.493 313.203 460.671 301.53 455.767 291.034C450.863 280.539 443.078 271.653 433.319 265.41C423.561 259.167 412.229 255.825 400.645 255.772C389.06 255.719 377.699 258.958 367.884 265.112C358.069 271.266 350.203 280.081 345.204 290.531C340.205 300.982 338.276 312.637 339.644 324.141C341.012 335.645 345.619 346.523 352.93 355.51L352.94 355.46Z" fill="white"/>
<path d="M370.63 333.37C386.35 338.37 396.11 352.95 398.63 357.16L398.4 461.16H403L402.31 369.98C405.74 364.79 415.55 351.85 430.69 347.22C430.69 347.22 412.69 351.49 402.2 365.82L401.61 343.99C404.2 339.84 414.33 325.14 430.69 320.14C430.69 320.14 411.88 324.6 401.5 339.72L400.91 317.72V318.02C400.91 318.02 411.53 298.9 430.65 293.02C430.65 293.02 410.96 297.69 400.76 313.67L399.32 284.06L398.87 326.5C388.87 311.3 370.64 306.82 370.64 306.82C386.74 311.92 396.59 327.13 398.84 330.92L398.69 352.79C388.64 337.79 370.63 333.37 370.63 333.37Z" fill="#263238"/>
<path d="M370.63 333.37C386.35 338.37 396.11 352.95 398.63 357.16L398.4 461.16H403L402.31 369.98C405.74 364.79 415.55 351.85 430.69 347.22C430.69 347.22 412.69 351.49 402.2 365.82L401.61 343.99C404.2 339.84 414.33 325.14 430.69 320.14C430.69 320.14 411.88 324.6 401.5 339.72L400.91 317.72V318.02C400.91 318.02 411.53 298.9 430.65 293.02C430.65 293.02 410.96 297.69 400.76 313.67L399.32 284.06L398.87 326.5C388.87 311.3 370.64 306.82 370.64 306.82C386.74 311.92 396.59 327.13 398.84 330.92L398.69 352.79C388.64 337.79 370.63 333.37 370.63 333.37Z" fill="#999999"/>
<path d="M382.85 35.53C382.62 34.83 382.38 34.12 382.13 33.41C372.72 7.24001 328.93 5.41001 328.93 37.6C328.93 43.8 314.06 37.6 308.48 45.66C302.9 53.72 309.1 58.66 301.66 61.15C294.22 63.64 293.61 57.43 284.32 58.05C275.03 58.67 276.26 67.34 273.16 69.82C270.06 72.3 270.07 71.06 263.25 71.68C256.43 72.3 255.2 77.25 255.2 77.25H418.14C418.14 77.25 424.34 58.67 413.19 51.85C402.04 45.03 402 54.33 393.36 50.61C386.19 47.54 384.85 41.71 382.85 35.53Z" stroke="#B2B2B2" stroke-linecap="round" stroke-linejoin="round"/>
<path d="M388.48 70.48C388.48 70.48 391.86 60.04 383.57 52.37C375.28 44.7 366.7 49 364.24 52.37C361.78 55.74 361.79 62.19 357.8 62.8C353.81 63.41 354.73 56.05 346.14 57.89C337.55 59.73 340.92 68.33 336.93 70.17C332.94 72.01 332.93 65.26 327.42 67.41C321.91 69.56 322.2 73.54 322.2 73.54" stroke="#B2B2B2" stroke-linecap="round" stroke-linejoin="round"/>
<path d="M344.41 49.63C342.151 48.0189 339.501 47.0422 336.737 46.8013C333.972 46.5604 331.194 47.0641 328.69 48.26C319.81 52.36 323.91 60.9 319.81 62.95C315.71 65 313.66 62.61 308.54 64.95C303.42 67.29 303.75 70.76 303.75 70.76" stroke="#B2B2B2" stroke-linecap="round" stroke-linejoin="round"/>
<path d="M143.11 74.66C143.01 74.35 142.91 74.05 142.8 73.74C138.7 62.35 119.65 61.57 119.65 75.56C119.65 78.26 113.18 75.56 110.75 79.06C108.32 82.56 111.02 84.73 107.75 85.8C104.48 86.87 104.24 84.19 100.2 84.46C96.16 84.73 96.7 88.46 95.35 89.58C94 90.7 94 90.12 91.04 90.39C88.08 90.66 87.53 92.81 87.53 92.81H158.42C158.42 92.81 161.12 84.73 156.27 81.81C151.42 78.89 151.42 82.89 147.64 81.27C144.56 79.88 144 77.35 143.11 74.66Z" stroke="#B2B2B2" stroke-linecap="round" stroke-linejoin="round"/>
<path d="M145.56 89.86C145.951 88.4791 145.958 87.0177 145.581 85.6329C145.204 84.2481 144.457 82.9922 143.42 82C139.82 78.66 136.08 80.53 135.01 82C133.94 83.47 133.95 86.27 132.21 86.53C130.47 86.79 130.88 83.6 127.14 84.4C123.4 85.2 124.87 88.94 123.14 89.74C121.41 90.54 121.41 87.6 119 88.54C116.59 89.48 116.73 91.21 116.73 91.21" stroke="#B2B2B2" stroke-linecap="round" stroke-linejoin="round"/>
<path d="M126.39 80.79C125.406 80.0898 124.253 79.6658 123.05 79.5621C121.848 79.4583 120.639 79.6786 119.55 80.2C115.68 81.98 117.47 85.7 115.68 86.59C113.89 87.48 113.01 86.44 110.78 87.48C108.55 88.52 108.7 90 108.7 90" stroke="#B2B2B2" stroke-linecap="round" stroke-linejoin="round"/>
<path d="M161.55 173L152.55 165.79C156.204 158.579 156.952 150.24 154.641 142.494C152.329 134.747 147.134 128.182 140.126 124.152C133.118 120.122 124.83 118.935 116.972 120.834C109.114 122.733 102.284 127.575 97.8901 134.36C93.4958 141.146 91.8721 149.359 93.3536 157.306C94.8352 165.253 99.3091 172.33 105.853 177.076C112.397 181.823 120.513 183.878 128.527 182.818C136.542 181.758 143.844 177.664 148.93 171.38L161.55 173Z" fill="white" stroke="#263238" stroke-linecap="round" stroke-linejoin="round"/>
<path d="M124.19 146.09C122.48 143.39 119.68 141.64 116.84 140.34C111.99 138.12 107.01 142.07 105.77 146.75C104.27 152.41 108.91 156.75 113.03 159.82C118.765 163.962 125.084 167.228 131.78 169.51C131.78 169.51 142.88 145.79 139.35 138.72C138.644 137.172 137.361 135.962 135.774 135.348C134.188 134.733 132.425 134.762 130.86 135.43C126.16 137.38 125.72 142 124.19 146.09Z" fill="#007FFF" stroke="#263238" stroke-linecap="round" stroke-linejoin="round"/>
<path d="M335.21 292C335.21 292 340.95 343.38 341.73 349.12C342.51 354.86 340.73 360.6 337.3 369.47C333.87 378.34 319.82 405.99 319.82 405.99L311 294.55L335.21 292Z" fill="white" stroke="#263238" stroke-linecap="round" stroke-linejoin="round"/>
<path d="M315.86 316.34L336.55 305.47L335.21 291.94L315.87 301.64L315.86 316.34Z" fill="#263238" stroke="#263238" stroke-linecap="round" stroke-linejoin="round"/>
<path d="M195.92 455.76L195.04 460.48H323.43C323.12 453.48 321.25 412.14 319.82 405.94C318.26 399.15 275.74 406.46 244.44 403.85C213.14 401.24 204.27 397.07 204.27 397.07C204.27 397.07 193.83 433.32 192.27 438.8C190.71 444.28 193.83 448.71 194.09 450.02C194.35 451.33 195.92 455.76 195.92 455.76Z" fill="#263238" stroke="#263238" stroke-linecap="round" stroke-linejoin="round"/>
<path d="M172.18 299C172.18 299 165.66 354 165.92 360.56C166.18 367.12 168.14 371.56 171.4 379.34C174.858 387.442 179.049 395.211 183.92 402.55C186.53 406.73 195.66 420.29 195.66 421.86C195.66 423.43 193.83 430.99 194.09 433.33C194.35 435.67 199.57 441.16 199.57 441.16C199.57 441.16 204.79 416.38 205.05 413.77C205.31 411.16 205.83 409.86 205.31 405.42C204.79 400.98 194.09 360.82 194.09 358.73C194.09 356.64 201.59 316.02 201.59 316.02L172.18 299Z" fill="white" stroke="#263238" stroke-linecap="round" stroke-linejoin="round"/>
<path d="M170.28 316.68L198.63 329.59L200.19 322.47L170.78 305.03L170.28 316.68Z" fill="#263238" stroke="#263238" stroke-linecap="round" stroke-linejoin="round"/>
<path d="M186.18 143.65C186.18 143.65 187.18 156.75 188.29 162.03C189.4 167.31 193.99 169.21 193.78 171.53C193.57 173.85 189.34 187.58 191.24 189.06C193.14 190.54 198.43 191.6 198.43 191.6C198.43 191.6 207.09 210.82 211.73 211.45C216.37 212.08 226.1 205.33 226.1 205.33C224.013 209.788 221.387 213.972 218.28 217.79C213.85 222.86 170.97 243.79 170.55 245.67C170.13 247.55 153.86 289 153.86 289L199.86 319.63C199.86 319.63 205.35 323.85 205.35 340.54C205.35 357.23 199.64 383.84 201.35 386.16C202.56 388.059 203.486 390.124 204.1 392.29C204.1 392.29 201.1 393.56 201.99 396.29C202.88 399.02 207.27 402.42 207.9 403.05C208.53 403.68 226.9 415.05 246.34 416.78C265.78 418.51 301.9 414.88 308.44 412.56C314.98 410.24 323.23 410.02 323.23 405.37C323.23 400.72 322.38 398.37 321.96 390.8C321.54 383.23 318.37 336.52 318.37 336.52L315.84 301.66L346.89 287.09L319 232.57C319 232.57 297.88 225.57 285.42 218.21C272.96 210.85 261.13 193.08 259.23 187.58C257.33 182.08 256.09 177 256.09 177C256.09 177 251.87 163.49 252.29 154.61C252.71 145.73 253.56 147.85 251.23 151.45C248.9 155.05 255.23 144.26 250.6 134.55C245.97 124.84 220.18 118.28 206.45 123.14C192.72 128 184.91 135 186.18 143.65Z" fill="white" stroke="#263238" stroke-linecap="round" stroke-linejoin="round"/>
<path d="M203.07 110.49L197.16 113.23C197.16 113.23 183.64 104.15 177.73 112.6C171.82 121.05 181.73 125.49 181.11 129.08C180.49 132.67 170.11 127.18 167.38 136.89C164.65 146.6 175.61 151.68 179 151C182.39 150.32 192.1 146.15 194.21 140.86C196.32 135.57 204.14 132.2 205.21 136.01C206.28 139.82 198.45 148.26 204.15 150.79C209.85 153.32 221.89 152.27 222.53 154.38C223.17 156.49 224 158.38 226.53 157.55C229.06 156.72 234.53 145.3 241.31 152.48C248.09 159.66 245.54 164.73 243.22 169.17C241.426 172.342 239.301 175.315 236.88 178.04C236.88 178.04 242.79 179.52 246.81 180.36C250.83 181.2 256.73 181 257.37 179.52C258.01 178.04 255.89 161.99 257.58 157.34C259.27 152.69 267.29 138.96 263.49 126.71C259.69 114.46 240.49 105.59 228.22 103.9C215.95 102.21 203.07 110.49 203.07 110.49Z" fill="#263238" stroke="#263238" stroke-linecap="round" stroke-linejoin="round"/>
<path d="M193.36 165.41C193.36 165.41 192.3 158.65 200.36 160.97" stroke="#263238" stroke-linecap="round" stroke-linejoin="round"/>
<path d="M204.76 192C207.163 191.112 209.227 189.493 210.662 187.371C212.097 185.249 212.831 182.731 212.76 180.17" stroke="#263238" stroke-linecap="round" stroke-linejoin="round"/>
<path d="M210.47 179.77L214.48 179.98" stroke="#263238" stroke-linecap="round" stroke-linejoin="round"/>
<path d="M203.36 169.22C204 170.59 203.92 171.99 203.18 172.33C202.44 172.67 201.32 171.84 200.68 170.47C200.04 169.1 200.12 167.7 200.86 167.35C201.6 167 202.72 167.84 203.36 169.22Z" fill="#263238"/>
<path d="M227.83 191C227.837 189.44 227.754 187.88 227.58 186.33" stroke="#263238" stroke-linecap="round" stroke-linejoin="round"/>
<path d="M226.1 205.33C226.858 202.063 227.373 198.744 227.64 195.4" stroke="#263238" stroke-linecap="round" stroke-linejoin="round"/>
<path d="M319 232.57C319 232.57 297.88 225.57 285.42 218.21C279.03 214.42 272.81 207.91 268.01 201.72C248.7 195.42 231.12 204.36 224.46 208.5C222.72 211.805 220.639 214.919 218.25 217.79C213.82 222.86 170.94 243.79 170.52 245.67C170.1 247.55 153.86 289 153.86 289L199.86 319.63C199.86 319.63 205.35 323.85 205.35 340.54C205.35 357.23 199.64 383.84 201.35 386.16C202.56 388.059 203.486 390.124 204.1 392.29C204.1 392.29 201.1 393.56 201.99 396.29C202.88 399.02 207.27 402.42 207.9 403.05C208.53 403.68 226.9 415.05 246.34 416.78C265.78 418.51 301.9 414.88 308.44 412.56C314.98 410.24 323.23 410.02 323.23 405.37C323.23 400.72 322.38 398.37 321.96 390.8C321.54 383.23 318.37 336.52 318.37 336.52L315.84 301.66L346.89 287.09L319 232.57Z" fill="white" stroke="#263238" stroke-linecap="round" stroke-linejoin="round"/>
<path d="M194.92 275.1C194.44 273.55 193.92 272.04 193.36 270.59" stroke="#263238" stroke-linecap="round" stroke-linejoin="round"/>
<path d="M201.38 321.29C201.38 321.29 201.08 298.96 196.38 280.2" stroke="#263238" stroke-linecap="round" stroke-linejoin="round"/>
<path d="M203.07 312C203.07 312 207.51 305.88 205.82 289.4" stroke="#263238" stroke-linecap="round" stroke-linejoin="round"/>
<path d="M189.56 282C189.56 282 198.22 295.94 200.75 308.4" stroke="#263238" stroke-linecap="round" stroke-linejoin="round"/>
<path d="M155.34 281.79L150.48 293.19L202.86 323.82L201.59 316.01L155.34 281.79Z" fill="#007FFF" stroke="#263238" stroke-linecap="round" stroke-linejoin="round"/>
<path d="M316.5 304.18L349.66 291.08L344.59 282.63L316.58 297.76L316.5 304.18Z" fill="#007FFF" stroke="#263238" stroke-linecap="round" stroke-linejoin="round"/>
<path d="M313.07 267.48L316.5 304.18L317.89 275.38" stroke="#263238" stroke-linecap="round" stroke-linejoin="round"/>
<path d="M271.22 205.6C270.1 204.32 269.04 203.01 268.04 201.72C248.73 195.42 231.15 204.36 224.49 208.5C223.84 209.69 223.02 211.13 222.07 212.62C231.11 209.21 252.44 202.38 271.22 205.6Z" fill="#007FFF" stroke="#263238" stroke-linecap="round" stroke-linejoin="round"/>
<path d="M254.11 411.69C258.356 412.293 262.633 412.653 266.92 412.77" stroke="#263238" stroke-linecap="round" stroke-linejoin="round"/>
<path d="M206.32 394C206.32 394 223.1 405.9 248.67 410.76" stroke="#263238" stroke-linecap="round" stroke-linejoin="round"/>
<path d="M280.55 414.72C280.55 414.72 304.16 407.42 313.41 397.72" stroke="#263238" stroke-linecap="round" stroke-linejoin="round"/>
<path d="M242.31 304.73C241.31 306.09 240.31 307.43 239.31 308.73" stroke="#263238" stroke-linecap="round" stroke-linejoin="round"/>
<path d="M275.32 240.26C275.32 240.26 263 274.38 244.9 301" stroke="#263238" stroke-linecap="round" stroke-linejoin="round"/>
<path d="M232.17 311C231.1 312.62 230.11 314.09 229.23 315.32" stroke="#263238" stroke-linecap="round" stroke-linejoin="round"/>
<path d="M249 283.28C249 283.28 241.52 296.28 235 306.58" stroke="#263238" stroke-linecap="round" stroke-linejoin="round"/>
<path d="M292.17 221.92L289.82 269.13L289.3 276.7C289.3 276.7 296.61 270.44 300 271.7C303.39 272.96 311.21 278.48 311.21 278.48L301.3 226.57L292.17 221.92Z" fill="#263238" stroke="#263238" stroke-linecap="round" stroke-linejoin="round"/>
<path d="M205.57 345.56L192.27 375.3L205.05 367.21L205.57 345.56Z" fill="#263238" stroke="#263238" stroke-linecap="round" stroke-linejoin="round"/>
<path d="M192.27 375.3C192.27 375.3 218.61 350.25 234.27 334.86C249.93 319.47 285.14 282.96 290.09 274.35C295.04 265.74 299.95 269.91 305.22 270.96C313.95 272.68 324.04 322.64 322.7 330.43C321.47 337.63 280.18 387.29 275.23 389.64C270.28 391.99 263.23 391.21 261.4 392.77C259.57 394.33 255.92 397.47 251.23 397.77C246.54 398.07 206.62 385.77 206.62 385.77C206.62 385.77 203.21 388.42 201.39 386.05C199.57 383.68 192.79 377.38 192.27 375.3Z" fill="#007FFF" stroke="#263238" stroke-linecap="round" stroke-linejoin="round"/>
<path d="M305.21 271C304.768 274.014 303.797 276.925 302.34 279.6C300 283.74 270.26 321 257 334.6C243.74 348.2 223.87 365.6 216 369.82C210.364 372.625 204.265 374.381 198 375" stroke="#263238" stroke-linecap="round" stroke-linejoin="round"/>
<path d="M237.13 361.47L259.3 378.43" stroke="#263238" stroke-linecap="round" stroke-linejoin="round"/>
<path d="M295 295.74C295 295.74 310.65 314.26 316.65 330.95" stroke="#263238" stroke-linecap="round" stroke-linejoin="round"/>
<path d="M299.21 301.48C299.21 301.48 280.95 328.86 262.21 344.25C243.47 359.64 239.52 364.08 239.52 364.08L237.43 385.21L243.43 384.69L245.26 367.69C245.26 367.69 265.08 354.13 281.26 336.13C297.44 318.13 303.17 306.65 303.17 306.65L299.21 301.48Z" fill="#263238" stroke="#263238" stroke-linecap="round" stroke-linejoin="round"/>
<path d="M64.55 461.11H446.9" stroke="#263238" stroke-linecap="round" stroke-linejoin="round"/>
<path d="M381.98 143.55L343.69 207.94L319.79 178.57L324.26 264.11L405.86 256.44L371.7 235.95L431.81 181.3L381.98 143.55Z" stroke="#263238" stroke-linecap="round" stroke-linejoin="round"/>
</svg>
