<svg width="50" height="52" viewBox="0 0 50 52" fill="none" xmlns="http://www.w3.org/2000/svg">
<g clip-path="url(#clip0_14_155)">
<path d="M45.8333 30.8291C45.8333 29.257 44.6583 27.9773 43.2083 27.9773H22.2417C20.7917 27.9773 19.6167 29.257 19.6167 30.8291C19.6167 32.4012 20.7896 33.6809 22.2417 33.6809H43.2083C44.6583 33.683 45.8333 32.4033 45.8333 30.8291Z" fill="#B3B1B0"/>
<path d="M7.25416 38.948L16.2396 48.1877C18.2667 50.2619 21.0687 51.264 24.1625 51.264C27.2562 51.264 30.0583 50.1793 32.0896 48.0987L37.4812 42.5116C38.5437 41.4226 38.5062 39.6196 37.4 38.4861C36.2937 37.3526 34.5354 37.3144 33.475 38.4035L27.9 43.9269C26.9375 44.9164 25.6042 45.3295 24.1312 45.3295C22.6583 45.3295 21.3271 44.9164 20.3604 43.9269L11.4062 34.683C10.4417 33.6936 9.95624 32.2465 9.95624 30.7358C9.95624 29.2252 10.4417 27.8608 11.4062 26.8713L20.3333 17.5914C21.2979 16.6019 22.6583 16.2248 24.1292 16.2248C25.6 16.2248 26.9333 16.6379 27.8979 17.6274L33.4729 23.1487C34.5354 24.2399 36.2937 24.2017 37.4 23.0682C38.5062 21.9326 38.5437 20.1296 37.4812 19.0406L32.0896 13.4556C30.7189 12.0627 28.993 11.0868 27.1062 10.6378L27.0354 10.6229L32.1333 5.31979C33.2 4.23077 33.1625 2.42563 32.0562 1.29212C30.95 0.158613 29.1896 0.122594 28.125 1.21161L7.25416 22.6106C5.22707 24.6912 4.16666 27.562 4.16666 30.7358C4.16666 33.9097 5.22707 36.8716 7.25416 38.948Z" fill="#E7A41F"/>
<path d="M16.9062 48.7513C16.5431 48.5451 16.2107 48.2876 15.9187 47.9864C13.1542 45.1622 10.3771 42.3507 7.61875 39.5179C3.475 35.2636 2.82292 29.0579 5.98125 24.009C6.4859 23.2372 7.07202 22.5239 7.72917 21.8818L27.7771 1.45106C29.0792 0.124746 30.8979 0.0696593 32.1083 1.30911C33.275 2.50194 33.2062 4.39183 31.9458 5.68636C30.3437 7.33048 28.7396 8.97036 27.1354 10.6124C27.05 10.8708 26.8438 11.0361 26.6667 11.2204C24.8687 13.0764 23.0208 14.8837 21.2479 16.7672C21.0167 17.013 20.7021 17.1613 20.4729 17.4134C17.5083 20.4284 14.5083 23.4094 11.5854 26.4646C9.22083 28.9371 9.3 32.6893 11.7271 35.2085C14.4521 38.0391 17.225 40.8231 19.9792 43.6282C20.1187 43.7702 20.2625 43.9079 20.4042 44.0477C21.3792 44.6897 21.3917 46.6961 20.7854 47.5881C20.1167 48.5733 19.2437 49.1771 18.0083 49.1305C17.5937 49.1178 17.2521 48.9483 16.9062 48.7513Z" fill="#070706"/>
</g>
<defs>
<clipPath id="clip0_14_155">
<rect width="50" height="50.8491" fill="white" transform="translate(0 0.415039)"/>
</clipPath>
</defs>
</svg>
