<svg width="300" height="300" viewBox="0 0 300 300" fill="none" xmlns="http://www.w3.org/2000/svg">
<path d="M105.34 148.182H169.624V116.82L105.34 116.82V148.182Z" fill="#C7C7C7"/>
<path d="M169.624 116.826V148.188H269.828V145.128H267.668V119.886H269.828V116.826H169.624Z" fill="#A6A6A6"/>
<path d="M172.256 144.93L267.78 144.93V120.078L172.256 120.078V144.93Z" fill="white"/>
<path d="M172.252 144.93C196.064 144.828 243.976 144.702 267.78 144.66L267.6 144.93V120.078C253.108 120.936 211.072 119.97 196.156 120.252L172.272 120.168C172.34 119.634 172.272 145.044 172.272 144.93H172.252ZM172.252 144.93C172.252 144.846 172.196 120.072 172.196 119.994C172.196 119.916 196.12 119.916 196.136 119.904L267.78 119.778H267.98V120.078L267.96 144.93V145.2H267.78C243.972 145.164 196.056 145.038 172.252 144.93Z" fill="#DBDBDB"/>
<path d="M233.496 139.434C240.8 139.578 248.104 139.678 255.408 139.734L267.78 139.782V139.092L255.408 139.14C248.104 139.18 240.8 139.278 233.496 139.434Z" fill="#DBDBDB"/>
<path d="M172.252 133.56V134.196L188.2 134.262L211.316 134.172C218.62 134.12 225.924 134.022 233.228 133.878C225.924 133.734 218.62 133.636 211.316 133.584L188.2 133.494L172.252 133.56Z" fill="#DBDBDB"/>
<path d="M172.252 124.242V125.01L195.052 124.92C202.362 124.868 209.666 124.77 216.964 124.626C209.66 124.482 202.356 124.384 195.052 124.332L172.252 124.242Z" fill="#DBDBDB"/>
<path d="M172.252 139.5V140.136H178.376C185.68 140.088 192.986 139.99 200.292 139.842C192.983 139.706 185.678 139.608 178.376 139.548L172.252 139.5Z" fill="#DBDBDB"/>
<path d="M232.764 128.79C240.071 128.926 247.376 129.024 254.68 129.084L267.78 129.138V128.442L254.68 128.496C247.371 128.544 240.065 128.642 232.764 128.79Z" fill="#DBDBDB"/>
<path d="M261.424 131.34C256.397 131.3 251.367 131.27 246.332 131.25H230.416H214.908C209.876 131.25 204.845 131.28 199.816 131.34C204.848 131.38 209.879 131.41 214.908 131.43H230.416H246.332C251.364 131.41 256.395 131.38 261.424 131.34Z" fill="#DBDBDB"/>
<path d="M255.128 93.516H190.844V116.826H255.128V93.516Z" fill="#EBEBEB"/>
<path d="M190.84 116.826V93.516H90.6362V95.79H92.7962V114.552H90.6362V116.826H190.84Z" fill="#DBDBDB"/>
<path d="M188.212 95.934H92.6882V114.408H188.212V95.934Z" fill="white"/>
<path d="M188.212 95.934C164.4 96.042 116.488 96.168 92.688 96.21L92.872 95.934V114.408C91.608 113.58 140.72 114.462 140.436 114.198C152.332 114.198 176.308 114.282 188.2 114.342C188.132 114.738 188.2 95.856 188.2 95.934H188.212ZM188.212 95.934L188.256 114.408V114.474H188.212C176.296 114.534 152.36 114.612 140.448 114.618L92.688 114.708H92.488V114.408V95.934V95.658H92.672C116.48 95.7 164.396 95.826 188.196 95.934H188.212Z" fill="#DBDBDB"/>
<path d="M126.972 100.02C119.668 99.912 112.363 99.838 105.056 99.798L92.6841 99.762V100.272L105.056 100.242C112.352 100.214 119.657 100.14 126.972 100.02Z" fill="#DBDBDB"/>
<path d="M188.212 104.4V103.926L172.268 103.878L149.152 103.944C141.848 103.984 134.543 104.056 127.236 104.16C134.54 104.268 141.845 104.342 149.152 104.382L172.268 104.448L188.212 104.4Z" fill="#DBDBDB"/>
<path d="M188.212 111.312V110.712L165.412 110.778C158.105 110.818 150.8 110.892 143.496 111C150.8 111.1 158.105 111.172 165.412 111.216L188.212 111.312Z" fill="#DBDBDB"/>
<path d="M188.212 99.972V99.498H182.088C174.784 99.534 167.48 99.608 160.176 99.72C167.48 99.824 174.784 99.896 182.088 99.936L188.212 99.972Z" fill="#DBDBDB"/>
<path d="M127.704 107.934C120.397 107.834 113.091 107.76 105.784 107.712L92.6841 107.676V108.192L105.784 108.15C113.093 108.114 120.4 108.042 127.704 107.934Z" fill="#DBDBDB"/>
<path d="M99.04 106.038C104.072 106.07 109.103 106.092 114.132 106.104H130.052H145.556C150.588 106.104 155.619 106.082 160.648 106.038C155.619 106.002 150.588 105.98 145.556 105.972H130.052H114.132C109.1 105.984 104.069 106.006 99.04 106.038Z" fill="#DBDBDB"/>
<path d="M130.76 46.602H41.5601V148.188H130.76V46.602Z" fill="#EBEBEB"/>
<path d="M164.66 46.602H130.76V148.188H164.66V46.602Z" fill="#DBDBDB"/>
<path d="M41.5601 97.002H130.76L61.1001 99.636L41.5601 97.002Z" fill="#DBDBDB"/>
<path d="M130.76 135.822H41.5601L111.224 138.456L130.76 135.822Z" fill="#DBDBDB"/>
<path d="M41.5601 68.388H98.0641L47.8361 70.536L41.5601 68.388Z" fill="#DBDBDB"/>
<path d="M130.76 120.75H74.26L124.484 122.898L130.76 120.75Z" fill="#DBDBDB"/>
<path d="M138.248 52.92H81.748L131.976 55.074L138.248 52.92Z" fill="#DBDBDB"/>
<path d="M80.2402 59.358H143.968L133.344 60.648L80.2402 59.358Z" fill="#DBDBDB"/>
<path d="M50.2322 107.976H113.96L103.336 109.266L50.2322 107.976Z" fill="#DBDBDB"/>
<path d="M89.4202 78.132H130.76L138.148 81.576L89.4202 78.132Z" fill="#EBEBEB"/>
<path d="M99.384 112.458H140.724L148.108 115.902L99.384 112.458Z" fill="#EBEBEB"/>
<path d="M90.292 127.584H131.632L139.02 131.028L90.292 127.584Z" fill="#EBEBEB"/>
<path d="M30.1721 78.132H71.5121L78.8961 81.576L30.1721 78.132Z" fill="#DBDBDB"/>
<path d="M83.2162 58.284H41.8802L34.4922 61.722L83.2162 58.284Z" fill="#EBEBEB"/>
<path d="M85.4521 119.028H44.1121L36.7241 122.472L85.4521 119.028Z" fill="#EBEBEB"/>
<path d="M83.2162 124.146H41.8802L34.4922 127.584L83.2162 124.146Z" fill="#DBDBDB"/>
<path d="M130.76 112.458H163.956L171.344 115.902L130.76 112.458Z" fill="#DBDBDB"/>
<path d="M142.348 97.002H168.092L164.66 94.188L142.348 97.002Z" fill="#DBDBDB"/>
<path d="M22.1841 148.2C104.072 147.834 195.928 147.828 277.816 148.2C195.928 148.572 104.072 148.566 22.1841 148.2Z" fill="#263238"/>
<path d="M186.98 233.142L226.704 218.496L277.176 229.044L235.736 244.776L186.98 233.142Z" fill="#DBDBDB"/>
<path d="M186.98 233.142L226.692 218.43C226.692 218.43 277.2 228.906 277.2 228.9L277.708 229.002L277.2 229.2L235.736 244.86C235.736 244.86 186.996 233.136 186.98 233.142ZM186.98 233.142C186.98 233.142 235.812 244.704 235.724 244.698L277.152 228.9V229.194C277.152 229.194 226.64 218.556 226.716 218.562L186.98 233.142Z" fill="#DBDBDB"/>
<path d="M234.156 240.696C236.6 239.568 239.12 238.518 241.648 237.48C244.176 236.442 246.744 235.446 249.32 234.48C251.896 233.514 254.52 232.536 257.152 231.618L261.12 230.244C262.472 229.812 263.796 229.356 265.164 228.948C263.964 229.518 262.692 230.04 261.456 230.592L257.676 232.158C255.156 233.208 252.58 234.198 250.004 235.158C247.428 236.118 244.804 237.102 242.172 238.02C239.54 238.938 236.884 239.856 234.156 240.696Z" fill="#C7C7C7"/>
<path d="M240.72 234.738C243.52 233.298 246.544 232.062 249.608 230.886C252.672 229.71 255.832 228.6 259.2 227.736C256.4 229.182 253.38 230.412 250.312 231.588C247.244 232.764 244.068 233.85 240.72 234.738Z" fill="#C7C7C7"/>
<path d="M222.188 238.314C224.632 237.186 227.152 236.136 229.68 235.098C232.208 234.06 234.776 233.064 237.352 232.098C239.928 231.132 242.552 230.154 245.18 229.236L249.152 227.868C250.5 227.436 251.828 226.98 253.196 226.566C251.996 227.136 250.724 227.664 249.488 228.21L245.708 229.782C243.184 230.826 240.612 231.816 238.036 232.782C235.46 233.748 232.836 234.726 230.204 235.644C227.572 236.562 224.916 237.474 222.188 238.314Z" fill="#C7C7C7"/>
<path d="M220.66 235.428C224.816 233.472 229.18 231.732 233.596 230.028C238.012 228.324 242.516 226.74 247.196 225.342C243.04 227.298 238.676 229.038 234.264 230.742C229.852 232.446 225.356 234.03 220.66 235.428Z" fill="#C7C7C7"/>
<path d="M225.852 229.998C228.144 228.75 230.652 227.712 233.2 226.728C235.748 225.744 238.4 224.856 241.228 224.16C238.936 225.414 236.428 226.446 233.884 227.43C231.34 228.414 228.684 229.302 225.852 229.998Z" fill="#C7C7C7"/>
<path d="M22.824 171.636L77.944 155.988L131.132 179.298L76.288 195.51L22.824 171.636Z" fill="#EBEBEB"/>
<path d="M22.824 171.636L77.948 155.91C77.948 155.91 131.148 179.16 131.148 179.154L131.548 179.328L131.148 179.448L76.288 195.6C76.268 195.6 22.84 171.654 22.824 171.654V171.636ZM22.824 171.636L76.304 195.432C76.172 195.474 131.148 179.136 131.104 179.154V179.442L77.932 156.042C78.036 156.006 22.808 171.642 22.824 171.642V171.636Z" fill="#DBDBDB"/>
<path d="M75.5159 190.758C79.1159 189.51 82.7439 188.358 86.3879 187.2C90.0319 186.042 93.7039 184.938 97.3799 183.846C101.056 182.754 104.752 181.686 108.472 180.672L114.052 179.148C115.928 178.668 117.788 178.164 119.68 177.708C117.888 178.338 116.08 178.908 114.264 179.508L108.8 181.266C105.16 182.43 101.484 183.528 97.8119 184.62C94.1399 185.712 90.4399 186.78 86.7199 187.794C82.9999 188.808 79.2839 189.834 75.5159 190.758Z" fill="#DBDBDB"/>
<path d="M89.644 182.46C93.572 180.942 97.644 179.658 101.728 178.434C105.812 177.21 109.972 176.094 114.244 175.188C110.316 176.706 106.244 177.99 102.16 179.214C98.076 180.438 93.916 181.554 89.644 182.46Z" fill="#DBDBDB"/>
<path d="M70.0801 184.116C73.2201 183 76.4041 181.974 79.5961 180.954C82.7881 179.934 85.9961 178.968 89.2281 178.002C92.4601 177.036 95.6961 176.112 98.9641 175.23L103.864 173.91C105.516 173.496 107.148 173.058 108.812 172.668C107.248 173.232 105.656 173.748 104.076 174.288L99.2961 175.83C96.0961 176.856 92.8961 177.816 89.6641 178.782C86.4321 179.748 83.2001 180.666 79.9321 181.554C76.6641 182.442 73.4001 183.324 70.0801 184.116Z" fill="#DBDBDB"/>
<path d="M67.5159 180.75C70.4159 179.706 73.3599 178.746 76.3159 177.798C79.2719 176.85 82.2479 175.95 85.2319 175.062C88.2159 174.174 91.2319 173.31 94.2479 172.5L98.7879 171.3C100.32 170.922 101.836 170.52 103.38 170.166C101.936 170.7 100.46 171.174 99.0039 171.684L94.5799 173.118C91.6319 174.072 88.6479 174.966 85.6639 175.854C82.6799 176.742 79.6639 177.6 76.6479 178.416C73.6319 179.232 70.5959 180 67.5159 180.75Z" fill="#DBDBDB"/>
<path d="M53.7839 180.684C57.3839 179.436 61.0119 178.284 64.6559 177.12C68.2999 175.956 71.9719 174.864 75.6479 173.766C79.3239 172.668 83.0199 171.612 86.7359 170.592L92.3359 169.068C94.2119 168.594 96.0719 168.084 97.9639 167.628C96.1719 168.264 94.3639 168.828 92.5479 169.428L87.0879 171.168C83.4479 172.326 79.7719 173.424 76.0999 174.522C72.4279 175.62 68.7279 176.676 65.0079 177.696C61.2879 178.716 57.5519 179.754 53.7839 180.684Z" fill="#DBDBDB"/>
<path d="M53.3279 176.694C56.5039 175.566 59.7279 174.528 62.9559 173.496C66.1839 172.464 69.4439 171.486 72.7039 170.496C75.9639 169.506 79.2439 168.582 82.5479 167.688L87.5079 166.35C89.1759 165.93 90.8319 165.486 92.5119 165.096C90.9119 165.666 89.3119 166.182 87.7119 166.734L82.8759 168.288C79.6519 169.326 76.3919 170.298 73.1319 171.288C69.8719 172.278 66.5879 173.202 63.2839 174.096C59.9799 174.99 56.6839 175.89 53.3279 176.694Z" fill="#DBDBDB"/>
<path d="M42.916 175.644C46.516 174.396 50.144 173.244 53.792 172.086C57.44 170.928 61.108 169.8 64.8 168.732C68.492 167.664 72.172 166.572 75.892 165.558L81.472 164.034C83.348 163.554 85.212 163.05 87.1 162.594C85.308 163.224 83.5 163.794 81.688 164.394L76.228 166.14C72.588 167.298 68.912 168.396 65.236 169.488C61.56 170.58 57.864 171.648 54.144 172.662C50.424 173.676 46.688 174.72 42.916 175.644Z" fill="#DBDBDB"/>
<path d="M55.5439 167.79C59.7239 166.194 64.0359 164.838 68.3799 163.542C72.7239 162.246 77.1239 161.052 81.6479 160.074C77.4679 161.67 73.1599 163.02 68.8119 164.322C64.4639 165.624 60.0679 166.8 55.5439 167.79Z" fill="#DBDBDB"/>
<path d="M103.592 251.52L173.64 231.636L241.224 261.258L171.532 281.856L103.592 251.52Z" fill="#EBEBEB"/>
<path d="M103.6 251.52L173.64 231.558C173.64 231.558 241.24 261.12 241.24 261.114L241.64 261.288L241.24 261.408L171.532 281.934C171.512 281.94 103.6 251.52 103.6 251.52ZM103.6 251.52L171.556 281.784C171.432 281.784 241.244 261.102 241.212 261.114V261.402L173.624 231.708C173.728 231.66 103.576 251.55 103.592 251.508L103.6 251.52Z" fill="#DBDBDB"/>
<path d="M170.548 275.82C175.112 274.236 179.748 272.754 184.368 271.296C188.988 269.838 193.664 268.428 198.332 267.036C203 265.644 207.7 264.294 212.428 262.998L219.52 261.066C221.92 260.466 224.268 259.812 226.672 259.236C224.396 260.04 222.084 260.778 219.792 261.552L212.852 263.76C208.228 265.236 203.556 266.628 198.888 268.02C194.22 269.412 189.52 270.762 184.792 272.052C180.064 273.342 175.34 274.644 170.548 275.82Z" fill="#DBDBDB"/>
<path d="M188.504 265.272C193.496 263.346 198.656 261.714 203.856 260.16C209.056 258.606 214.336 257.16 219.768 256.032C214.776 257.964 209.612 259.596 204.412 261.15C199.212 262.704 193.932 264.12 188.504 265.272Z" fill="#DBDBDB"/>
<path d="M163.644 267.378C167.644 265.962 171.68 264.654 175.736 263.364C179.792 262.074 183.884 260.838 187.976 259.614C192.068 258.39 196.192 257.214 200.344 256.086L206.576 254.406C208.672 253.884 210.748 253.326 212.864 252.834C210.864 253.554 208.864 254.208 206.864 254.892L200.792 256.848C196.74 258.15 192.644 259.374 188.552 260.598C184.46 261.822 180.332 262.998 176.18 264.12C172.028 265.242 167.86 266.4 163.644 267.378Z" fill="#DBDBDB"/>
<path d="M160.4 263.1C164.084 261.774 167.828 260.556 171.6 259.356C175.372 258.156 179.136 257.004 182.928 255.87C186.72 254.736 190.528 253.65 194.384 252.618L200.16 251.07C202.104 250.596 204.028 250.08 205.992 249.63C204.156 250.308 202.284 250.914 200.428 251.556L194.808 253.356C191.064 254.556 187.272 255.702 183.48 256.836C179.688 257.97 175.88 259.056 172.024 260.088C168.168 261.12 164.296 262.2 160.4 263.1Z" fill="#DBDBDB"/>
<path d="M142.932 263.016C147.496 261.432 152.132 259.95 156.752 258.492C161.372 257.034 166.048 255.624 170.716 254.232C175.384 252.84 180.084 251.49 184.8 250.2L191.892 248.268C194.292 247.668 196.64 247.014 199.044 246.468C196.768 247.272 194.456 248.01 192.164 248.784L185.224 250.992C180.6 252.468 175.928 253.86 171.26 255.252C166.592 256.644 161.892 257.994 157.164 259.284C152.436 260.574 147.724 261.84 142.932 263.016Z" fill="#DBDBDB"/>
<path d="M142.356 257.946C146.392 256.518 150.488 255.192 154.592 253.89C158.696 252.588 162.832 251.334 166.992 250.092C171.152 248.85 175.304 247.662 179.504 246.528L185.788 244.8C187.912 244.272 190.012 243.708 192.152 243.204C190.152 243.93 188.092 244.59 186.06 245.286L179.916 247.266C175.816 248.58 171.672 249.822 167.516 251.058C163.36 252.294 159.204 253.458 155.004 254.622C150.804 255.786 146.62 256.926 142.356 257.946Z" fill="#DBDBDB"/>
<path d="M129.124 256.614C133.688 255.03 138.324 253.548 142.944 252.09C147.564 250.632 152.24 249.222 156.908 247.83C161.576 246.438 166.276 245.088 171.004 243.792L178.096 241.86C180.496 241.26 182.844 240.606 185.244 240.03C182.972 240.834 180.66 241.572 178.368 242.346L171.428 244.554C166.804 246.03 162.132 247.422 157.464 248.814C152.796 250.206 148.096 251.556 143.368 252.846C138.64 254.136 133.916 255.438 129.124 256.614Z" fill="#DBDBDB"/>
<path d="M145.172 246.63C150.484 244.608 155.972 242.886 161.48 241.23C166.988 239.574 172.596 238.062 178.344 236.82C173.032 238.848 167.544 240.57 162.032 242.22C156.52 243.87 150.92 245.4 145.172 246.63Z" fill="#DBDBDB"/>
<path d="M274.76 201.126L145.072 254.874V216.132L274.76 162.384C281.632 181.392 274.76 201.126 274.76 201.126Z" fill="#37474F"/>
<path d="M18.52 228L145.072 254.874V245.052L30.092 223.956L18.52 225V228Z" fill="#455A64"/>
<path d="M145.076 216.312C149.804 233.382 145.076 254.874 145.076 254.874L24.624 226.338V192.852L145.076 216.312Z" fill="#455A64"/>
<path d="M142.096 215.736C146.7 232.74 142.476 251.052 142.476 251.052L24.624 226.2V192.84L142.096 215.736Z" fill="white"/>
<path d="M142.096 215.736C142.252 216.396 142.704 218.256 142.86 218.91C143.796 223.581 144.27 228.433 144.268 233.31C144.286 239.327 143.702 245.313 142.536 251.07C142.592 251.334 24.6361 226.404 24.5961 226.47L24.4241 226.434V226.2V192.84V192.534L24.6241 192.576L83.3841 204.114L142.072 215.724L142.096 215.736ZM142.096 215.736C113.2 209.91 52.7321 199.158 24.8001 192.852L24.8201 226.212L24.6481 225.912C24.6481 225.978 142.744 250.866 142.408 251.022C143.005 248.165 143.452 245.242 143.744 242.28C144.636 233.418 144.292 224.118 142.092 215.736H142.096Z" fill="#DBDBDB"/>
<path d="M81.6479 207.3C101.312 210.9 123.336 215.34 142.932 219.702C123.268 216.102 101.244 211.656 81.6479 207.3Z" fill="#DBDBDB"/>
<path d="M24.624 205.056C41.48 208.056 60.18 211.86 76.976 215.646C60.108 212.646 41.416 208.854 24.624 205.056Z" fill="#DBDBDB"/>
<path d="M27.4321 208.35C56.0761 213.75 88.1681 220.242 116.736 226.416C88.0961 221.016 56.0041 214.524 27.4321 208.35Z" fill="#DBDBDB"/>
<path d="M42.916 219.684C72.628 225.198 105.92 231.822 135.56 238.11C105.852 232.602 72.56 225.972 42.916 219.684Z" fill="#DBDBDB"/>
<path d="M62.8879 226.74C88.7999 231.6 117.86 237.468 143.712 243.096C117.788 238.248 88.7439 232.368 62.8879 226.74Z" fill="#DBDBDB"/>
<path d="M39.6001 226.674C72.8001 233.022 110 240.546 143.116 247.62C109.916 241.278 72.7161 233.748 39.6001 226.674Z" fill="#DBDBDB"/>
<path d="M145.076 216.312L274.76 162.384L143.712 153.48L18.52 188.304V191.664L145.076 216.312Z" fill="#455A64"/>
<path d="M148.4 210.384C164.488 203.07 181.012 196.464 197.52 190.758C181.436 198.078 164.912 204.672 148.4 210.384Z" fill="#37474F"/>
<path d="M117.288 206.952C121.768 207.3 126.396 208.08 130.844 208.89C135.292 209.7 139.884 210.69 144.244 212.04C139.764 211.698 135.136 210.912 130.692 210.102C126.248 209.292 121.652 208.272 117.288 206.952Z" fill="#37474F"/>
<path d="M22 188.958C52.46 193.866 83.164 199.656 113.42 206.214C82.936 201.318 52.236 195.516 22 188.958Z" fill="#37474F"/>
<path d="M233.2 184.236C245.856 178.272 258.665 172.838 271.628 167.934C258.977 173.898 246.168 179.332 233.2 184.236Z" fill="#455A64"/>
<path d="M165.956 154.686C164.276 155.178 157.34 155.736 157.2 153.486C156.984 150.102 173.572 126.102 179.524 121.59C185.184 117.294 203.42 107.922 207.924 107.718L207.964 129.27C205.416 130.242 185.116 127.272 180.852 130.668C179 132.144 176.548 138.264 171.556 147.984C169.8 151.41 166.948 154.392 165.956 154.686Z" fill="#FFD700"/>
<g opacity="0.3">
<path d="M165.956 154.686C164.276 155.178 157.34 155.736 157.2 153.486C156.984 150.102 173.572 126.102 179.524 121.59C185.184 117.294 203.42 107.922 207.924 107.718L207.964 129.27C205.416 130.242 185.116 127.272 180.852 130.668C179 132.144 176.548 138.264 171.556 147.984C169.8 151.41 166.948 154.392 165.956 154.686Z" fill="black"/>
</g>
<path d="M162.512 154.686C160.828 155.178 154.38 155.736 154.236 153.486C154.024 150.102 170.612 126.102 176.56 121.59C182.22 117.294 203.42 107.922 207.924 107.718L207.964 129.27C205.416 130.242 182.156 127.272 177.892 130.668C176.04 132.144 173.092 138.264 168.108 147.984C166.356 151.41 163.504 154.392 162.512 154.686Z" fill="#FFD700"/>
<g opacity="0.2">
<path d="M162.512 154.686C160.828 155.178 154.38 155.736 154.236 153.486C154.024 150.102 170.612 126.102 176.56 121.59C182.22 117.294 203.42 107.922 207.924 107.718L207.964 129.27C205.416 130.242 182.156 127.272 177.892 130.668C176.04 132.144 173.092 138.264 168.108 147.984C166.356 151.41 163.504 154.392 162.512 154.686Z" fill="black"/>
</g>
<path d="M227.916 183.282C229.364 184.194 235.06 184.656 236.036 182.814C237.508 180.024 219.548 142.062 208.996 135.174C199.128 128.784 59.9081 88.224 57.0361 87.552L56.9321 104.4C76.3281 108.948 199.4 138.36 207.012 143.334C211.976 146.568 218.3 163.632 222.844 175.422C224.68 180.21 226.236 182.226 227.916 183.282Z" fill="#FFD700"/>
<g opacity="0.2">
<path d="M227.916 183.282C229.364 184.194 235.06 184.656 236.036 182.814C237.508 180.024 219.548 142.062 208.996 135.174C199.128 128.784 59.9081 88.224 57.0361 87.552L56.9321 104.4C76.3281 108.948 199.4 138.36 207.012 143.334C211.976 146.568 218.3 163.632 222.844 175.422C224.68 180.21 226.236 182.226 227.916 183.282Z" fill="black"/>
</g>
<path d="M225.512 183.282C226.96 184.194 232.656 184.656 233.632 182.814C235.104 180.024 217.276 141.144 206.728 134.256C196.856 127.866 59.9081 88.2 57.0361 87.552L54.5281 104.4C73.9241 108.948 196.996 138.36 204.608 143.334C209.572 146.568 215.896 163.632 220.44 175.422C222.276 180.21 223.832 182.226 225.512 183.282Z" fill="#FFD700"/>
<g opacity="0.1">
<path d="M225.512 183.282C226.96 184.194 232.656 184.656 233.632 182.814C235.104 180.024 217.276 141.144 206.728 134.256C196.856 127.866 59.9081 88.2 57.0361 87.552L54.5281 104.4C73.9241 108.948 196.996 138.36 204.608 143.334C209.572 146.568 215.896 163.632 220.44 175.422C222.276 180.21 223.832 182.226 225.512 183.282Z" fill="black"/>
</g>
<g opacity="0.1">
<path d="M84.0001 95.328L73.4641 108.918C64.7001 106.818 57.9761 105.228 54.5361 104.418L57.0401 87.552C57.8201 87.732 68.5681 90.822 84.0001 95.328Z" fill="black"/>
<path d="M110.944 118.014L104.4 116.4L98.3201 99.528L107.956 102.384L110.944 118.014Z" fill="black"/>
<path d="M147.8 114.396L140.4 125.334L133.828 123.678L139.084 111.732C142.004 112.616 144.909 113.504 147.8 114.396Z" fill="black"/>
<path d="M205.824 133.758L203.276 142.692C202.052 142.176 200.208 141.528 197.836 140.778L196 129.888C200.616 131.52 204.024 132.846 205.824 133.758Z" fill="black"/>
</g>
<path d="M83.4962 192.108C68.9922 191.058 57.9562 166.416 58.8922 137.184C59.3362 123.234 62.4122 110.262 67.5482 100.656C72.8562 90.732 79.7082 85.524 86.9082 86.07C94.1082 86.616 100.596 92.736 105.24 103.386C109.74 113.67 111.972 127.032 111.52 140.994C110.632 168.654 99.3282 190.674 85.8202 192.072C85.0466 192.15 84.2707 192.162 83.4962 192.108ZM71.2402 105.108C66.7242 113.538 64.0002 125.058 63.6002 137.532C62.8002 162.852 71.8122 184.158 83.7162 185.016C95.6202 185.874 105.968 165.972 106.788 140.616C107.188 128.142 105.224 116.292 101.276 107.238C97.4722 98.544 92.2842 93.534 86.6682 93.132C86.07 93.0779 85.4703 93.0779 84.8722 93.132C79.8962 93.702 75.1122 97.86 71.2402 105.096V105.108ZM58.9122 140.898C58.1802 119.514 59.7762 116.166 59.1282 109.86C58.8202 106.86 56.0042 103.98 56.0042 103.98L58.4642 88.626C58.4642 88.626 66.1322 89.748 67.9002 89.79C71.0442 89.856 77.8322 86.412 83.7442 86.19C83.7442 86.19 70.8921 94.854 66.7601 105.9C62.6282 116.946 58.9122 140.886 58.9122 140.886V140.898Z" fill="#FFD700"/>
<path opacity="0.1" d="M83.4962 192.108C68.9922 191.058 57.9562 166.416 58.8922 137.184C59.3362 123.234 62.4122 110.262 67.5482 100.656C72.8562 90.732 79.7082 85.524 86.9082 86.07C94.1082 86.616 100.596 92.736 105.24 103.386C109.74 113.67 111.972 127.032 111.52 140.994C110.632 168.654 99.3282 190.674 85.8202 192.072C85.0466 192.15 84.2707 192.162 83.4962 192.108ZM71.2402 105.108C66.7242 113.538 64.0002 125.058 63.6002 137.532C62.8002 162.852 71.8122 184.158 83.7162 185.016C95.6202 185.874 105.968 165.972 106.788 140.616C107.188 128.142 105.224 116.292 101.276 107.238C97.4722 98.544 92.2842 93.534 86.6682 93.132C86.07 93.0779 85.4703 93.0779 84.8722 93.132C79.8962 93.702 75.1122 97.86 71.2402 105.096V105.108ZM58.9122 140.898C58.1802 119.514 59.7762 116.166 59.1282 109.86C58.8202 106.86 56.0042 103.98 56.0042 103.98L58.4642 88.626C58.4642 88.626 66.1322 89.748 67.9002 89.79C71.0442 89.856 77.8322 86.412 83.7442 86.19C83.7442 86.19 70.8921 94.854 66.7601 105.9C62.6282 116.946 58.9122 140.886 58.9122 140.886V140.898Z" fill="black"/>
<path d="M81.5241 192.108C67.0161 191.058 55.9801 166.416 56.9161 137.184C57.3601 123.234 60.4361 110.262 65.5721 100.656C70.8801 90.732 77.7321 85.524 84.9321 86.07C92.1321 86.616 98.6201 92.736 103.264 103.386C107.764 113.67 109.996 127.032 109.544 140.994C108.656 168.654 97.3521 190.674 83.8441 192.072C83.0718 192.15 82.2972 192.162 81.5241 192.108ZM69.2641 105.108C64.7481 113.55 62.0401 125.07 61.6401 137.544C60.8401 162.864 69.8481 184.17 81.7521 185.028C93.6561 185.886 104.004 165.984 104.824 140.628C105.224 128.154 103.26 116.304 99.3121 107.25C95.5121 98.556 90.3201 93.546 84.7041 93.144C84.1059 93.0899 83.5062 93.0899 82.9081 93.144C77.9241 93.702 73.1361 97.86 69.2641 105.096V105.108ZM56.9361 140.898C56.2041 119.514 57.8001 116.166 57.1521 109.86C56.8441 106.86 54.0281 103.98 54.0281 103.98L56.6001 86.868C56.6001 86.868 64.3961 88.938 66.1601 88.974C69.3041 89.046 75.8561 86.412 81.7601 86.214C81.7601 86.214 68.9081 94.878 64.7761 105.924C60.6441 116.97 56.9361 140.886 56.9361 140.886V140.898Z" fill="#FFD700"/>
<path d="M64.2881 94.698C64.1961 95.76 62.8801 96.372 61.3481 96.066C59.8161 95.76 58.6561 94.65 58.7521 93.594C58.8481 92.538 60.1601 91.92 61.6921 92.226C63.2241 92.532 64.4001 93.636 64.2881 94.698Z" fill="#A6A6A6"/>
<path d="M59.4241 93.63C59.5481 93.12 60.8801 92.544 62.3361 93.132L59.4241 93.63Z" fill="white"/>
<path d="M56.0002 104.118C58.7682 106.446 59.9522 109.878 59.6402 114.63C59.3322 122.874 58.7122 131.04 58.7042 139.284C58.6664 143.398 58.843 147.511 59.2322 151.584C57.4602 141.54 57.9882 130.95 58.6122 120.72L59.0122 114.576C59.4442 109.98 58.4762 106.836 55.9922 104.118H56.0002Z" fill="white"/>
<path d="M70.4561 89.964C74.2961 88.32 78.2841 86.964 82.3001 87.234C78.3001 87.768 74.4161 89.112 70.4561 89.964Z" fill="white"/>
<path opacity="0.1" d="M70.452 105.534C66.088 113.934 63.472 125.382 63.08 137.79C62.3 162.99 71.02 184.158 82.524 185.016C94.028 185.874 104.032 166.074 104.824 140.886C105.224 128.484 103.316 116.694 99.5 107.694C95.824 99.042 90.808 94.062 85.376 93.66C84.7979 93.606 84.2181 93.606 83.64 93.66C78.82 94.2 74.196 98.328 70.452 105.534Z" fill="#EBEBEB"/>
<g opacity="0.2">
<path d="M92.528 97.044L63.048 142.542C63.02 140.97 63.048 139.392 63.084 137.784C63.2235 133.09 63.7037 128.432 64.516 123.894L84.116 93.66C84.516 93.66 84.96 93.66 85.384 93.66C87.9163 93.8763 90.3722 95.0396 92.528 97.044Z" fill="white"/>
<path d="M102.8 118.2L68.4681 171.186C67.8367 169.717 67.265 168.192 66.7561 166.62L101.44 113.088C101.958 114.752 102.412 116.459 102.8 118.2Z" fill="white"/>
<path d="M104.136 149.856C103.717 153.274 103.104 156.632 102.304 159.894L86.324 184.554C85.0764 184.958 83.7987 185.113 82.524 185.016C82.164 184.986 81.804 184.944 81.448 184.872L104.136 149.856Z" fill="white"/>
<path d="M104.2 126.354L71.46 176.88C71.304 176.652 71.156 176.412 71.012 176.166L104.048 125.166C104.108 125.562 104.152 125.964 104.2 126.354Z" fill="white"/>
</g>
<path d="M128.688 142.302L131.888 137.088C126.744 129.948 114.636 119.976 105.564 133.206L108.86 138.294C116.988 126.42 128.212 141.654 128.688 142.302Z" fill="#FFD700"/>
<path d="M159.304 198.6C150.07 196.057 141.886 188.12 136.55 176.533C131.213 164.946 129.161 150.655 130.844 136.8C132.105 126.469 135.379 116.93 140.253 109.39C145.128 101.85 151.383 96.6472 158.229 94.4397C165.074 92.2322 172.202 93.1191 178.712 96.9881C185.221 100.857 190.82 107.535 194.8 116.176C198.779 124.818 200.961 135.035 201.07 145.537C201.178 156.039 199.208 166.353 195.409 175.175C191.609 183.997 186.152 190.932 179.725 195.101C173.298 199.271 166.192 200.488 159.304 198.6ZM135.5 138.096C134.361 147.512 135.21 157.227 137.93 165.884C140.65 174.541 145.105 181.707 150.672 186.382C156.239 191.057 162.64 193.007 168.982 191.96C175.324 190.913 181.289 186.922 186.045 180.543C190.801 174.163 194.11 165.716 195.51 156.379C196.909 147.042 196.33 137.282 193.853 128.463C191.376 119.644 187.124 112.206 181.691 107.187C176.259 102.168 169.917 99.8201 163.552 100.47C156.756 101.183 150.31 105.267 145.232 112.079C140.153 118.891 136.729 128.044 135.5 138.096Z" fill="#FFD700"/>
<path d="M197.2 123.672C194.764 111.54 180.576 98.202 180.576 98.202C186.32 100.32 192.656 104.628 195.736 105.588C197.464 106.122 207.944 107.73 207.944 107.73L207.984 129.282C207.984 129.282 205.104 129.522 204.384 132.348C202.84 138.294 203.62 139.734 199.812 160.362C199.776 160.362 199.6 135.798 197.2 123.672Z" fill="#FFD700"/>
<g opacity="0.1">
<path d="M159.304 198.6C150.07 196.057 141.886 188.12 136.55 176.533C131.213 164.946 129.161 150.655 130.844 136.8C132.105 126.469 135.379 116.93 140.253 109.39C145.128 101.85 151.383 96.6472 158.229 94.4397C165.074 92.2322 172.202 93.1191 178.712 96.9881C185.221 100.857 190.82 107.535 194.8 116.176C198.779 124.818 200.961 135.035 201.07 145.537C201.178 156.039 199.208 166.353 195.409 175.175C191.609 183.997 186.152 190.932 179.725 195.101C173.298 199.271 166.192 200.488 159.304 198.6ZM135.5 138.096C134.361 147.512 135.21 157.227 137.93 165.884C140.65 174.541 145.105 181.707 150.672 186.382C156.239 191.057 162.64 193.007 168.982 191.96C175.324 190.913 181.289 186.922 186.045 180.543C190.801 174.163 194.11 165.716 195.51 156.379C196.909 147.042 196.33 137.282 193.853 128.463C191.376 119.644 187.124 112.206 181.691 107.187C176.259 102.168 169.917 99.8201 163.552 100.47C156.756 101.183 150.31 105.267 145.232 112.079C140.153 118.891 136.729 128.044 135.5 138.096Z" fill="black"/>
<path d="M197.2 123.672C194.764 111.54 180.576 98.202 180.576 98.202C186.32 100.32 192.656 104.628 195.736 105.588C197.464 106.122 207.944 107.73 207.944 107.73L207.984 129.282C207.984 129.282 205.104 129.522 204.384 132.348C202.84 138.294 203.62 139.734 199.812 160.362C199.776 160.362 199.6 135.798 197.2 123.672Z" fill="black"/>
</g>
<path d="M156.156 197.826C146.929 195.282 138.751 187.354 133.416 175.778C128.081 164.203 126.024 149.927 127.696 136.08C128.948 125.737 132.218 116.184 137.091 108.629C141.964 101.075 148.222 95.8582 155.072 93.64C161.922 91.4219 169.057 92.3017 175.574 96.1682C182.091 100.035 187.696 106.714 191.682 115.361C195.667 124.008 197.852 134.234 197.962 144.745C198.071 155.255 196.099 165.579 192.296 174.408C188.493 183.237 183.029 190.176 176.595 194.345C170.162 198.515 163.049 199.728 156.156 197.832V197.826ZM132.352 137.352C131.208 146.776 132.054 156.5 134.774 165.167C137.494 173.833 141.95 181.009 147.521 185.691C153.092 190.373 159.499 192.327 165.847 191.281C172.195 190.235 178.166 186.24 182.926 179.855C187.686 173.47 190.998 165.014 192.398 155.669C193.798 146.323 193.217 136.555 190.736 127.729C188.254 118.903 183.997 111.46 178.558 106.441C173.119 101.421 166.771 99.0756 160.4 99.732C153.605 100.446 147.161 104.529 142.083 111.34C137.005 118.151 133.582 127.302 132.352 137.352Z" fill="#FFD700"/>
<path d="M194.032 122.928C191.596 110.796 177.408 97.458 177.408 97.458C183.152 99.576 189.488 103.884 192.568 104.844C194.296 105.378 204.776 106.986 204.776 106.986L204.816 126.72C204.816 126.72 201.936 128.028 201.216 130.848C199.668 136.794 200.448 138.99 196.64 159.648C196.628 159.6 196.468 135.054 194.032 122.928Z" fill="#FFD700"/>
<path d="M200.288 115.848C200.192 116.91 198.876 117.522 197.348 117.216C195.82 116.91 194.652 115.806 194.748 114.744C194.844 113.682 196.16 113.07 197.688 113.376C199.216 113.682 200.4 114.792 200.288 115.848Z" fill="#A6A6A6"/>
<path d="M195.42 114.786C195.544 114.276 196.876 113.694 198.332 114.288L195.42 114.786Z" fill="white"/>
<path d="M146.332 101.322C149.365 97.8571 153.08 96.0019 156.892 96.048C153.292 97.632 149.828 99.348 146.332 101.322Z" fill="white"/>
<path d="M131.352 127.8C133.144 117.066 139.128 106.71 145.716 101.88C139.548 108.48 134.376 117.336 131.352 127.8Z" fill="white"/>
<path opacity="0.1" d="M133.812 137.352C130.852 162.294 141.644 186.294 157.876 190.848C174.108 195.402 189.716 178.806 192.676 153.87C195.636 128.934 184.84 104.922 168.608 100.374C166.167 99.6848 163.677 99.469 161.2 99.732C147.868 101.142 136.316 116.262 133.812 137.352Z" fill="#EBEBEB"/>
<g opacity="0.2">
<path d="M193.136 147.732L164.62 191.532C162.361 191.688 160.098 191.451 157.876 190.824C156.914 190.556 155.962 190.214 155.024 189.798L192 132.984C192.904 137.777 193.287 142.756 193.136 147.732Z" fill="white"/>
<path d="M167.08 100.008L133.572 151.512C133.176 146.801 133.257 142.027 133.812 137.352C133.948 136.188 134.12 135.03 134.312 133.896L155.6 101.154C157.431 100.407 159.307 99.9307 161.2 99.732C163.161 99.5203 165.132 99.6128 167.08 100.008Z" fill="white"/>
<path d="M188.276 120.474L146.88 184.074C145.935 183.13 145.028 182.102 144.164 180.996L186.28 116.298C186.999 117.631 187.665 119.025 188.276 120.474Z" fill="white"/>
<path d="M175.324 103.53L135.876 164.13C135.38 162.407 134.956 160.639 134.604 158.838L171.88 101.55C173.055 102.102 174.205 102.763 175.324 103.53Z" fill="white"/>
<path d="M192.752 153.234C192.732 153.444 192.704 153.66 192.68 153.87C192.64 154.242 192.592 154.614 192.54 154.974L169.34 190.638C168.968 190.758 168.588 190.866 168.204 190.962L192.752 153.234Z" fill="white"/>
<path d="M183.924 112.398L141.636 177.39C141.484 177.15 141.336 176.904 141.192 176.658L183.452 111.708L183.924 112.398Z" fill="white"/>
</g>
</svg>
