<svg xmlns="http://www.w3.org/2000/svg" width="375" viewBox="0 0 375 375" height="375" version="1.0"><g fill="#03989E"><g><g><path d="M 37.027344 -16.9375 C 36.957031 -18.199219 36.046875 -17.847656 35.417969 -17.289062 C 35.070312 -16.9375 30.519531 -11.898438 30.730469 -11.550781 C 30.867188 -11.550781 31.078125 -11.550781 31.21875 -11.691406 C 29.890625 -10.359375 27.789062 -9.101562 26.179688 -7.910156 C 24.570312 -6.648438 22.75 -4.339844 20.507812 -4.199219 C 20.300781 -4.199219 20.089844 -4.128906 19.808594 -4.199219 C 18.828125 -4.339844 16.449219 -8.609375 16.238281 -9.519531 C 16.308594 -8.820312 17.917969 -5.667969 18.339844 -4.96875 C 16.730469 -6.789062 15.890625 -9.519531 15.46875 -11.96875 C 15.539062 -11.757812 15.679688 -11.550781 15.75 -11.550781 C 15.960938 -11.621094 15.679688 -13.019531 15.679688 -13.089844 C 15.820312 -13.230469 16.871094 -13.507812 17.148438 -13.648438 C 18.6875 -14.28125 20.160156 -15.050781 21.628906 -15.890625 C 24.359375 -17.359375 27.089844 -19.109375 29.328125 -21.277344 C 31.777344 -23.730469 33.878906 -27.160156 30.660156 -29.957031 C 27.4375 -32.6875 22.890625 -29.050781 20.4375 -26.878906 C 18.058594 -24.777344 16.03125 -22.328125 14.140625 -19.808594 C 13.300781 -18.550781 12.390625 -17.359375 11.621094 -16.097656 C 11.128906 -15.398438 9.589844 -13.648438 9.730469 -12.808594 C 9.730469 -12.808594 11.058594 -14.417969 11.128906 -14.488281 C 10.640625 -13.789062 10.148438 -13.019531 9.730469 -12.25 C 9.730469 -12.320312 8.609375 -10.78125 8.46875 -10.5 L 6.578125 -7.210938 C 7.351562 -10.5 8.257812 -13.789062 9.238281 -17.078125 C 9.730469 -18.757812 10.148438 -19.738281 11.269531 -21.070312 C 12.25 -22.257812 13.230469 -23.449219 14.140625 -24.640625 C 16.238281 -27.300781 18.128906 -30.167969 20.019531 -33.039062 C 21.417969 -35.140625 22.46875 -37.867188 24.078125 -39.617188 C 26.039062 -41.929688 27.71875 -45.007812 28.699219 -47.949219 C 29.257812 -49.558594 29.050781 -50.886719 28.277344 -52.5 C 26.808594 -55.367188 23.871094 -57.957031 20.648438 -56.488281 C 17.988281 -55.296875 16.097656 -52.566406 14.699219 -50.117188 C 13.789062 -48.578125 12.949219 -46.96875 12.25 -45.289062 L 10.851562 -42.347656 C 10.640625 -41.789062 10.429688 -40.878906 10.21875 -40.386719 C 10.21875 -40.320312 10.148438 -40.25 10.148438 -40.25 C 9.589844 -38.847656 9.167969 -37.519531 8.679688 -36.117188 C 8.609375 -36.1875 9.03125 -37.519531 9.03125 -37.519531 C 8.679688 -37.519531 7.558594 -34.160156 7.417969 -33.738281 C 6.789062 -32.058594 6.230469 -30.378906 5.667969 -28.628906 C 4.621094 -25.480469 3.78125 -22.257812 3.148438 -18.96875 C 2.589844 -15.398438 1.539062 -11.898438 0.769531 -8.398438 C 0.488281 -6.859375 0 -5.320312 0 -3.78125 C 0 -2.941406 0.140625 -2.03125 0.628906 -1.328125 C 0.769531 -1.191406 1.960938 -0.210938 1.960938 -0.28125 C 1.960938 -0.28125 1.890625 -0.351562 1.890625 -0.421875 C 2.238281 -0.140625 2.941406 0.0703125 3.5 0.140625 C 3.011719 0.140625 2.378906 0.0703125 2.238281 -0.140625 C 2.730469 0.558594 4.621094 0.0703125 4.761719 0.0703125 C 6.371094 -0.28125 6.71875 -2.519531 7.558594 -3.78125 L 10.917969 -9.378906 C 11.199219 -7.910156 11.757812 -6.230469 12.460938 -4.96875 C 12.597656 -4.621094 14.628906 -1.820312 14.769531 -1.960938 C 14.769531 -2.03125 14.699219 -2.171875 14.699219 -2.238281 C 14.980469 -1.890625 15.257812 -1.609375 15.609375 -1.398438 C 15.539062 -1.328125 15.328125 -1.609375 15.257812 -1.46875 C 14.839844 -0.839844 17.847656 0.210938 18.339844 0.210938 C 19.320312 0.140625 20.160156 -0.558594 21.070312 -0.910156 C 21.839844 -1.261719 22.609375 -1.539062 23.308594 -2.101562 C 24.148438 -2.800781 23.238281 -2.378906 23.800781 -2.800781 L 23.800781 -2.660156 C 24.007812 -2.941406 27.160156 -4.691406 27.300781 -4.828125 C 28.910156 -6.019531 30.167969 -7.628906 31.570312 -9.101562 C 32.757812 -10.289062 33.738281 -11.621094 34.71875 -12.878906 C 35.769531 -14.070312 37.167969 -15.050781 37.027344 -16.871094 Z M 21.839844 -51.097656 C 22.539062 -52.078125 24.570312 -54.527344 25.828125 -52.847656 C 27.089844 -51.167969 24.917969 -47.179688 24.148438 -45.570312 C 23.097656 -43.1875 21.769531 -40.878906 20.4375 -38.636719 L 18.550781 -35.558594 C 17.847656 -34.507812 16.9375 -33.527344 16.519531 -32.480469 C 16.800781 -32.96875 17.359375 -33.597656 17.710938 -34.019531 L 19.25 -36.46875 C 20.4375 -38.359375 21.558594 -40.25 22.609375 -42.207031 C 23.167969 -43.117188 23.730469 -44.167969 24.359375 -45.289062 C 23.660156 -43.820312 22.890625 -42.417969 22.121094 -41.019531 C 19.039062 -35.417969 15.46875 -30.167969 11.621094 -25.128906 C 12.878906 -29.679688 14.210938 -34.230469 15.890625 -38.707031 C 17.5 -42.910156 19.109375 -47.457031 21.839844 -51.097656 Z M 14.839844 -15.050781 C 17.148438 -18.269531 19.53125 -21.417969 22.257812 -24.289062 C 22.890625 -24.988281 26.390625 -28.980469 27.578125 -28.140625 C 28.699219 -27.300781 24.710938 -22.75 24.148438 -22.121094 C 21.558594 -19.320312 18.410156 -16.449219 14.839844 -15.050781 Z M 15.257812 -40.179688 C 16.097656 -42.207031 16.871094 -44.308594 17.847656 -46.410156 C 17.917969 -46.6875 18.621094 -47.597656 18.96875 -48.226562 C 18.621094 -47.316406 17.570312 -45.777344 17.429688 -45.359375 C 16.308594 -42.488281 15.46875 -39.546875 14.488281 -36.609375 C 13.371094 -33.109375 12.25 -29.75 11.339844 -26.25 L 11.480469 -26.808594 L 11.410156 -26.738281 C 11.410156 -26.808594 11.480469 -26.808594 11.480469 -26.878906 C 12.390625 -31.289062 13.507812 -35.980469 15.257812 -40.179688 Z M 10.21875 -40.386719 L 10.148438 -40.320312 C 10.21875 -40.320312 10.21875 -40.386719 10.21875 -40.386719 Z M 10.148438 -40.25 L 10.148438 -40.320312 Z M 10.148438 -40.25" transform="translate(7.09 205.905)"/></g></g></g><g fill="#03989E"><g><g><path d="M 35.628906 -16.871094 C 35.558594 -18.410156 34.296875 -17.078125 33.878906 -16.519531 C 32.96875 -15.191406 32.128906 -13.789062 31.289062 -12.460938 C 29.398438 -9.589844 27.507812 -6.71875 25.339844 -3.988281 C 18.128906 4.898438 23.167969 -10.917969 22.609375 -10.78125 C 22.328125 -10.710938 22.121094 -9.660156 22.050781 -9.449219 C 22.609375 -11.96875 23.660156 -14.980469 24.988281 -17.429688 C 25.757812 -18.96875 26.667969 -20.230469 25.269531 -21.910156 C 22.679688 -25.058594 19.667969 -22.1875 17.988281 -20.019531 C 17.289062 -22.679688 15.890625 -26.597656 12.460938 -26.597656 C 10.917969 -26.597656 10.007812 -25.828125 8.960938 -24.917969 C 8.328125 -24.5 7.839844 -24.429688 7.28125 -23.9375 C 6.371094 -23.308594 5.738281 -22.328125 5.109375 -21.488281 C 2.730469 -17.988281 1.050781 -13.578125 0.28125 -9.519531 C -0.0703125 -7.558594 -0.210938 -5.390625 0.351562 -3.429688 C 0.699219 -2.308594 1.960938 0.210938 3.570312 0 C 3.640625 0 3.5 -0.0703125 3.289062 -0.210938 C 4.269531 0.0703125 5.390625 -0.0703125 6.230469 -0.628906 C 6.300781 -0.488281 5.460938 -0.140625 5.460938 -0.140625 C 6.230469 1.050781 11.96875 -5.878906 12.390625 -6.511719 C 13.300781 -7.769531 13.929688 -9.101562 14.769531 -10.429688 C 15.398438 -11.410156 16.378906 -12.667969 17.078125 -13.71875 C 17.007812 -13.230469 17.007812 -12.597656 17.007812 -12.597656 C 15.75 -8.609375 14.558594 -4.269531 16.238281 -0.140625 C 17.007812 1.960938 18.898438 3.917969 21.277344 3.5 C 23.378906 3.148438 25.128906 1.121094 26.390625 -0.488281 C 27.929688 -2.308594 29.257812 -4.339844 30.589844 -6.441406 C 31.707031 -8.328125 32.757812 -10.21875 33.667969 -12.320312 C 34.230469 -13.648438 35.769531 -15.257812 35.628906 -16.871094 Z M 15.539062 -16.378906 C 15.191406 -15.890625 14.839844 -15.398438 14.558594 -14.910156 L 12.738281 -12.320312 C 11.550781 -10.570312 10.289062 -8.890625 8.960938 -7.28125 C 8.609375 -6.789062 6.929688 -4.621094 6.230469 -4.828125 C 5.179688 -5.179688 6.300781 -8.820312 6.441406 -9.378906 C 6.648438 -10.359375 10.359375 -21.140625 11.339844 -21.347656 C 10.078125 -21.417969 6.019531 -8.75 5.808594 -7.699219 C 6.371094 -11.128906 7.628906 -14.488281 9.03125 -17.640625 C 9.800781 -19.25 11.550781 -23.519531 13.859375 -23.519531 C 15.121094 -23.519531 15.398438 -20.929688 15.609375 -20.089844 C 15.539062 -20.230469 14.910156 -22.257812 14.839844 -22.1875 C 14.488281 -21.910156 15.890625 -18.058594 15.890625 -17.5 C 15.890625 -16.9375 15.890625 -16.9375 15.539062 -16.378906 Z M 17.148438 -12.949219 C 17.148438 -12.949219 17.359375 -13.929688 17.429688 -14.140625 L 17.78125 -14.628906 Z M 16.097656 -17.289062 L 16.097656 -17.988281 C 16.308594 -17.710938 16.308594 -17.5 16.097656 -17.289062 Z M 16.097656 -17.289062" transform="translate(39.008 205.905)"/></g></g></g><g fill="#03989E"><g><g><path d="M 28 -17.847656 C 27.019531 -16.800781 26.390625 -15.050781 25.617188 -13.789062 C 24.429688 -11.757812 23.238281 -9.800781 21.980469 -7.839844 C 19.597656 -4.058594 17.21875 -0.210938 14.347656 3.21875 C 13.160156 4.691406 10.640625 8.257812 8.257812 7.980469 C 6.511719 7.699219 6.511719 4.691406 6.511719 3.359375 C 6.511719 2.238281 6.578125 1.121094 6.71875 0.0703125 C 6.789062 -0.558594 7.351562 -2.660156 7 -3.21875 L 6.441406 -1.121094 C 6.511719 -1.960938 6.648438 -2.871094 6.859375 -3.710938 C 6.789062 -3.851562 7.417969 -5.808594 7.558594 -6.441406 C 7.910156 -7.839844 8.257812 -9.238281 8.679688 -10.640625 C 9.03125 -12.039062 9.378906 -13.371094 9.800781 -14.699219 C 10.148438 -15.960938 10.640625 -16.589844 11.410156 -17.570312 C 14.558594 -21.488281 17.429688 -25.757812 20.089844 -30.027344 C 21.070312 -31.640625 21.699219 -33.039062 22.890625 -34.367188 C 24.640625 -36.1875 25.828125 -38.917969 26.949219 -41.160156 C 28.839844 -44.796875 31.359375 -49.839844 30.9375 -54.109375 L 30.9375 -54.457031 L 30.867188 -54.527344 C 30.449219 -57.257812 27.929688 -60.476562 24.847656 -59.496094 C 23.238281 -59.007812 22.050781 -57.328125 21.070312 -56.136719 L 19.460938 -53.96875 C 19.109375 -53.546875 18.621094 -52.5 18.269531 -51.9375 L 18.339844 -52.007812 L 16.097656 -48.160156 L 16.660156 -49.347656 C 16.308594 -49.417969 14.769531 -46.410156 14.558594 -46.058594 C 13.789062 -44.726562 13.089844 -43.398438 12.460938 -42.070312 C 11.058594 -39.269531 9.660156 -36.398438 8.75 -33.390625 C 7.769531 -30.378906 6.648438 -27.4375 5.601562 -24.429688 C 5.039062 -22.820312 4.480469 -21.140625 3.988281 -19.53125 C 3.570312 -18.199219 2.589844 -16.03125 2.800781 -14.628906 L 3.011719 -14.628906 C 2.800781 -14.140625 2.660156 -13.648438 2.519531 -13.160156 C 2.589844 -13.578125 2.589844 -14.070312 2.660156 -14.210938 C 2.308594 -13.71875 2.378906 -12.039062 2.308594 -11.898438 C 1.398438 -8.121094 0.351562 -4.339844 0.0703125 -0.421875 C -0.140625 3.289062 -0.140625 8.191406 2.800781 10.917969 C 6.089844 13.929688 9.871094 11.898438 12.597656 9.308594 C 15.820312 6.160156 18.550781 2.449219 21.070312 -1.191406 C 23.378906 -4.550781 25.199219 -8.121094 27.300781 -11.480469 C 28.140625 -12.878906 29.050781 -14.28125 29.46875 -15.820312 C 29.75 -16.9375 29.609375 -19.53125 28 -17.847656 Z M 19.25 -42.910156 C 20.648438 -46.269531 22.050781 -49.699219 24.007812 -52.847656 C 24.5 -53.617188 27.648438 -57.816406 27.507812 -54.109375 L 27.507812 -54.039062 C 27.367188 -50.117188 24.847656 -45.988281 23.167969 -42.628906 L 20.230469 -37.167969 C 19.25 -35.488281 17.570312 -33.390625 17.007812 -31.570312 C 17.429688 -32.6875 18.6875 -34.296875 19.320312 -35.347656 C 20.371094 -37.097656 21.277344 -38.847656 22.257812 -40.597656 C 23.871094 -43.679688 25.617188 -46.898438 26.808594 -50.257812 C 23.660156 -40.878906 17.78125 -32.128906 12.597656 -23.800781 C 14.628906 -29.957031 16.660156 -36.679688 19.25 -42.910156 Z M 17.007812 -47.808594 C 17.710938 -49.136719 18.96875 -50.257812 19.667969 -51.519531 C 18.199219 -48.578125 16.378906 -45.917969 14.839844 -43.117188 C 14.839844 -43.1875 14.839844 -43.328125 14.910156 -43.398438 C 15.539062 -44.9375 16.238281 -46.339844 17.007812 -47.808594 Z M 3.78125 -11.621094 C 3.710938 -11.480469 3.710938 -11.410156 3.710938 -11.410156 C 2.871094 -9.449219 2.800781 -6.789062 2.378906 -4.691406 C 2.308594 -4.199219 2.171875 -3.78125 2.171875 -3.289062 L 2.171875 -3.5 L 1.960938 -1.261719 C 2.101562 -3.78125 2.378906 -6.371094 2.871094 -8.820312 L 2.871094 -8.75 C 3.078125 -10.359375 3.429688 -11.828125 3.710938 -11.828125 C 3.851562 -11.898438 3.851562 -11.691406 3.78125 -11.621094 Z M 3.78125 -11.621094" transform="translate(69.526 205.905)"/></g></g></g><g fill="#03989E"><g><g><path d="M 35.628906 -16.871094 C 35.558594 -18.410156 34.296875 -17.078125 33.878906 -16.519531 C 32.96875 -15.191406 32.128906 -13.789062 31.289062 -12.460938 C 29.398438 -9.589844 27.507812 -6.71875 25.339844 -3.988281 C 18.128906 4.898438 23.167969 -10.917969 22.609375 -10.78125 C 22.328125 -10.710938 22.121094 -9.660156 22.050781 -9.449219 C 22.609375 -11.96875 23.660156 -14.980469 24.988281 -17.429688 C 25.757812 -18.96875 26.667969 -20.230469 25.269531 -21.910156 C 22.679688 -25.058594 19.667969 -22.1875 17.988281 -20.019531 C 17.289062 -22.679688 15.890625 -26.597656 12.460938 -26.597656 C 10.917969 -26.597656 10.007812 -25.828125 8.960938 -24.917969 C 8.328125 -24.5 7.839844 -24.429688 7.28125 -23.9375 C 6.371094 -23.308594 5.738281 -22.328125 5.109375 -21.488281 C 2.730469 -17.988281 1.050781 -13.578125 0.28125 -9.519531 C -0.0703125 -7.558594 -0.210938 -5.390625 0.351562 -3.429688 C 0.699219 -2.308594 1.960938 0.210938 3.570312 0 C 3.640625 0 3.5 -0.0703125 3.289062 -0.210938 C 4.269531 0.0703125 5.390625 -0.0703125 6.230469 -0.628906 C 6.300781 -0.488281 5.460938 -0.140625 5.460938 -0.140625 C 6.230469 1.050781 11.96875 -5.878906 12.390625 -6.511719 C 13.300781 -7.769531 13.929688 -9.101562 14.769531 -10.429688 C 15.398438 -11.410156 16.378906 -12.667969 17.078125 -13.71875 C 17.007812 -13.230469 17.007812 -12.597656 17.007812 -12.597656 C 15.75 -8.609375 14.558594 -4.269531 16.238281 -0.140625 C 17.007812 1.960938 18.898438 3.917969 21.277344 3.5 C 23.378906 3.148438 25.128906 1.121094 26.390625 -0.488281 C 27.929688 -2.308594 29.257812 -4.339844 30.589844 -6.441406 C 31.707031 -8.328125 32.757812 -10.21875 33.667969 -12.320312 C 34.230469 -13.648438 35.769531 -15.257812 35.628906 -16.871094 Z M 15.539062 -16.378906 C 15.191406 -15.890625 14.839844 -15.398438 14.558594 -14.910156 L 12.738281 -12.320312 C 11.550781 -10.570312 10.289062 -8.890625 8.960938 -7.28125 C 8.609375 -6.789062 6.929688 -4.621094 6.230469 -4.828125 C 5.179688 -5.179688 6.300781 -8.820312 6.441406 -9.378906 C 6.648438 -10.359375 10.359375 -21.140625 11.339844 -21.347656 C 10.078125 -21.417969 6.019531 -8.75 5.808594 -7.699219 C 6.371094 -11.128906 7.628906 -14.488281 9.03125 -17.640625 C 9.800781 -19.25 11.550781 -23.519531 13.859375 -23.519531 C 15.121094 -23.519531 15.398438 -20.929688 15.609375 -20.089844 C 15.539062 -20.230469 14.910156 -22.257812 14.839844 -22.1875 C 14.488281 -21.910156 15.890625 -18.058594 15.890625 -17.5 C 15.890625 -16.9375 15.890625 -16.9375 15.539062 -16.378906 Z M 17.148438 -12.949219 C 17.148438 -12.949219 17.359375 -13.929688 17.429688 -14.140625 L 17.78125 -14.628906 Z M 16.097656 -17.289062 L 16.097656 -17.988281 C 16.308594 -17.710938 16.308594 -17.5 16.097656 -17.289062 Z M 16.097656 -17.289062" transform="translate(94.305 205.905)"/></g></g></g><g fill="#03989E"><g><g><path d="M 27.789062 -16.449219 C 27.578125 -17.429688 27.019531 -17.570312 26.320312 -17.289062 C 24.988281 -16.660156 23.660156 -15.257812 22.398438 -14.417969 C 19.53125 -12.597656 16.660156 -11.128906 13.578125 -9.589844 C 13.578125 -9.660156 13.507812 -9.800781 13.441406 -10.007812 C 13.507812 -9.660156 13.441406 -9.519531 13.371094 -9.449219 C 12.667969 -12.460938 11.96875 -15.46875 11.410156 -18.550781 C 11.691406 -17.21875 12.320312 -14.980469 12.808594 -13.089844 C 12.179688 -16.03125 11.410156 -19.667969 11.480469 -19.667969 C 11.339844 -19.597656 11.339844 -19.460938 11.339844 -19.320312 C 11.199219 -20.160156 10.988281 -21.210938 11.128906 -22.121094 C 11.199219 -23.167969 11.757812 -24.078125 12.109375 -25.058594 C 12.039062 -24.570312 11.898438 -23.9375 11.898438 -23.9375 C 12.320312 -23.871094 12.597656 -26.460938 12.597656 -26.738281 C 12.53125 -27.160156 11.621094 -28.488281 11.621094 -28.140625 C 9.730469 -29.890625 6.019531 -26.039062 5.460938 -24.359375 C 5.039062 -23.238281 5.039062 -22.050781 5.109375 -20.859375 C 5.179688 -19.667969 5.53125 -18.621094 5.878906 -17.5 C 6.089844 -16.660156 5.808594 -16.097656 5.878906 -15.191406 C 6.019531 -13.789062 6.511719 -12.390625 6.789062 -11.058594 C 7.070312 -10.007812 7.980469 -7.910156 7.769531 -6.929688 C 7.628906 -5.949219 5.53125 -5.109375 4.621094 -4.550781 C 3.429688 -3.78125 2.238281 -2.871094 1.050781 -1.960938 C -1.050781 -0.351562 -3.289062 1.679688 -4.128906 4.269531 C -4.269531 4.621094 -4.761719 6.160156 -4.269531 6.441406 C -4.199219 6.511719 -3.988281 5.320312 -3.917969 5.179688 C -4.828125 9.800781 -0.28125 12.039062 3.988281 12.109375 C 8.820312 12.25 12.179688 9.449219 13.859375 5.109375 C 14.558594 3.21875 14.769531 1.261719 14.699219 -0.699219 C 14.699219 -2.03125 14.558594 -3.289062 14.347656 -4.550781 C 14.210938 -5.667969 14.070312 -5.601562 14.839844 -6.230469 C 15.398438 -6.648438 16.238281 -6.929688 16.800781 -7.210938 C 19.039062 -8.398438 21.070312 -9.800781 23.097656 -11.269531 C 24.570312 -12.320312 28.070312 -14.140625 27.789062 -16.378906 Z M -0.488281 7.628906 C -2.308594 7.070312 -0.488281 4.199219 0.140625 3.289062 C 1.191406 1.890625 2.730469 0.839844 4.128906 -0.140625 L 6.230469 -1.539062 C 6.441406 -1.679688 7.769531 -2.730469 7.351562 -2.589844 L 8.191406 -3.078125 L 7.699219 -2.660156 C 7.839844 -2.730469 8.050781 -2.800781 8.191406 -2.941406 C 8.257812 -1.261719 8.257812 0.421875 7.769531 2.101562 C 7.699219 2.378906 6.371094 5.179688 5.808594 5.738281 L 6.160156 5.460938 C 5.53125 6.230469 4.828125 6.859375 3.988281 7.351562 C 3.988281 7.28125 4.621094 6.859375 4.550781 6.789062 L 2.589844 7.558594 C 1.609375 7.769531 0.488281 7.980469 -0.488281 7.628906 Z M 8.328125 9.660156 C 6.511719 10.429688 4.761719 10.78125 2.871094 10.851562 C 6.300781 10.640625 9.871094 8.960938 11.898438 6.089844 C 11.128906 7.628906 10.148438 8.820312 8.328125 9.660156 Z M 13.441406 -10.21875 C 13.371094 -10.710938 13.230469 -11.410156 13.019531 -12.179688 C 13.160156 -11.410156 13.300781 -10.640625 13.441406 -10.21875 Z M 14.347656 -2.941406 C 14.28125 -3.011719 14.28125 -3.148438 14.28125 -3.289062 C 14.28125 -3.148438 14.347656 -3.011719 14.347656 -2.941406 Z M 14.347656 -2.941406" transform="translate(124.823 205.905)"/></g></g></g><g fill="#03989E"><g><g><path d="M 34.71875 -17.21875 C 34.367188 -17.21875 33.878906 -16.519531 33.667969 -16.308594 C 32.6875 -15.328125 31.847656 -14.210938 31.007812 -13.160156 C 28.699219 -10.5 26.390625 -7.769531 23.871094 -5.320312 C 23.238281 -4.761719 21.628906 -2.871094 20.71875 -3.5 C 20.160156 -3.851562 20.648438 -6.089844 20.71875 -6.578125 C 20.859375 -7.210938 22.121094 -10.5 21.699219 -10.917969 C 21.488281 -11.058594 21.140625 -10.007812 21.070312 -9.941406 C 22.1875 -13.859375 24.429688 -18.339844 26.25 -22.1875 C 27.300781 -24.289062 28.628906 -26.878906 26.878906 -29.050781 C 23.800781 -32.828125 19.949219 -28 17.847656 -25.757812 C 16.9375 -24.777344 8.121094 -14 8.257812 -13.929688 C 8.257812 -13.929688 8.890625 -14.699219 9.800781 -15.75 C 8.46875 -14 7.210938 -12.25 6.019531 -10.429688 C 6.789062 -13.300781 7.628906 -16.097656 8.539062 -18.898438 C 9.03125 -20.300781 9.449219 -21.769531 9.941406 -23.238281 C 10.5 -24.777344 10.917969 -25.410156 12.109375 -26.527344 C 14.140625 -28.347656 16.097656 -30.308594 17.917969 -32.410156 C 18.621094 -33.25 19.109375 -34.230469 19.808594 -35 C 20.4375 -35.628906 21.347656 -36.1875 22.050781 -36.957031 C 25.617188 -41.160156 28.488281 -46.410156 30.867188 -51.308594 C 31.917969 -53.617188 32.898438 -55.996094 33.597656 -58.449219 C 33.738281 -59.007812 35.277344 -65.449219 34.929688 -65.449219 C 34.859375 -65.449219 34.859375 -65.378906 34.789062 -65.238281 C 34.859375 -66.359375 34.789062 -67.617188 34.367188 -68.738281 C 34.4375 -68.738281 34.789062 -67.6875 34.789062 -67.6875 C 35.207031 -67.96875 33.949219 -70.136719 33.667969 -70.417969 C 33.039062 -71.046875 32.128906 -71.398438 31.21875 -71.398438 C 29.398438 -71.539062 27.71875 -70.558594 26.320312 -69.507812 C 23.660156 -67.476562 21.769531 -64.46875 19.808594 -61.738281 C 18.6875 -60.199219 17.640625 -58.65625 16.660156 -57.046875 C 15.960938 -55.996094 14.417969 -54.109375 14.417969 -52.847656 C 14.488281 -52.777344 14.558594 -52.777344 14.558594 -52.777344 L 13.71875 -51.167969 C 13.71875 -51.167969 14.140625 -52.429688 14.210938 -52.5 C 13.859375 -52.289062 13.507812 -50.816406 13.507812 -50.75 C 10.78125 -45.429688 7.910156 -40.320312 6.019531 -34.648438 C 3.851562 -28.277344 2.238281 -21.699219 1.050781 -15.121094 C 0.488281 -12.109375 -0.210938 -8.820312 0.0703125 -5.738281 C 0.0703125 -4.898438 0.140625 -3.917969 0.769531 -3.21875 C 1.539062 -2.238281 3.148438 -1.890625 4.058594 -2.871094 C 4.339844 -3.21875 4.339844 -3.429688 4.480469 -3.78125 L 5.738281 -6.019531 C 7.417969 -8.609375 9.449219 -10.988281 11.058594 -13.648438 C 11.269531 -14.070312 11.480469 -14.558594 11.757812 -14.910156 C 12.109375 -15.328125 12.25 -15.121094 12.667969 -15.46875 C 13.859375 -16.449219 14.769531 -17.917969 15.75 -19.109375 C 17.78125 -21.628906 19.808594 -24.5 22.398438 -26.597656 L 20.371094 -21.699219 L 20.578125 -21.910156 L 19.53125 -19.53125 C 19.460938 -19.597656 19.738281 -20.230469 19.738281 -20.300781 C 19.460938 -20.300781 18.128906 -17.570312 17.988281 -17.289062 C 17.148438 -15.609375 16.238281 -13.929688 15.75 -12.179688 C 15.328125 -10.5 14.839844 -8.820312 14.347656 -7.140625 C 14.140625 -6.089844 13.929688 -5.039062 14 -3.988281 C 14 -3.710938 14.558594 -1.191406 14.769531 -1.398438 L 14.769531 -1.679688 C 14.910156 -1.261719 15.050781 -0.910156 15.257812 -0.558594 L 14.839844 -1.191406 C 14.628906 -0.699219 16.519531 0.910156 16.730469 1.121094 C 17.78125 2.171875 18.828125 2.871094 20.4375 2.941406 C 21.769531 3.011719 22.46875 2.519531 23.449219 1.609375 C 26.109375 -0.980469 28 -4.550781 30.027344 -7.628906 C 31.148438 -9.238281 32.269531 -10.917969 33.320312 -12.597656 C 33.597656 -12.949219 35.488281 -16.871094 35.207031 -16.800781 C 35.628906 -16.871094 34.859375 -17.21875 34.71875 -17.21875 Z M 28.628906 -64.328125 L 28.628906 -64.398438 C 28.628906 -64.398438 28.699219 -64.398438 28.699219 -64.46875 L 28.699219 -64.398438 C 28.769531 -64.539062 28.839844 -64.675781 28.769531 -64.609375 C 29.328125 -65.449219 30.730469 -67.96875 31.707031 -67.128906 C 32.6875 -66.289062 31.777344 -63.347656 31.5 -62.296875 C 30.9375 -60.128906 30.097656 -58.027344 29.257812 -55.996094 C 27.578125 -52.078125 25.480469 -48.367188 23.167969 -44.726562 C 22.050781 -42.976562 20.859375 -41.230469 19.667969 -39.546875 C 19.039062 -38.707031 18.410156 -37.867188 17.710938 -37.027344 L 17.148438 -36.398438 L 18.410156 -37.660156 L 21.210938 -41.578125 C 22.75 -43.679688 24.21875 -45.988281 25.617188 -48.296875 C 22.050781 -42 17.710938 -36.046875 12.667969 -30.730469 L 14.769531 -36.257812 C 14.980469 -36.679688 16.449219 -40.808594 16.449219 -40.808594 C 16.308594 -40.738281 16.097656 -40.386719 15.890625 -40.039062 C 17.570312 -43.886719 19.738281 -47.878906 21.699219 -51.726562 C 23.871094 -55.929688 26.039062 -60.269531 28.558594 -64.257812 C 28.558594 -64.257812 28.628906 -64.257812 28.628906 -64.328125 Z M 11.058594 -30.027344 C 11.691406 -33.808594 13.441406 -37.378906 14.699219 -41.019531 C 15.820312 -44.097656 17.640625 -46.898438 19.039062 -49.839844 C 19.667969 -51.238281 26.390625 -64.046875 26.527344 -63.976562 C 27.089844 -63.628906 18.480469 -47.179688 17.570312 -45.21875 C 16.800781 -43.75 16.097656 -42.347656 15.539062 -40.738281 C 15.050781 -39.199219 14.210938 -37.9375 13.648438 -36.46875 C 13.371094 -35.769531 10.570312 -28.417969 10.78125 -28.347656 C 10.640625 -28.347656 10.917969 -29.46875 10.988281 -29.820312 Z M 15.890625 -34.929688 C 16.03125 -35.070312 16.167969 -35.347656 16.378906 -35.558594 C 16.167969 -35.347656 16.03125 -35.140625 15.890625 -34.929688 Z M 28.628906 -64.328125 L 28.628906 -64.398438 L 28.699219 -64.398438 Z M 11.058594 -29.957031 C 11.058594 -29.890625 10.988281 -29.820312 10.988281 -29.820312 C 10.988281 -29.890625 11.058594 -29.890625 11.058594 -29.957031 Z M 11.058594 -29.957031" transform="translate(147.502 205.905)"/></g></g></g><g fill="#03989E"><g><g><path d="M 27.789062 -16.449219 C 27.578125 -17.429688 27.019531 -17.570312 26.320312 -17.289062 C 24.988281 -16.660156 23.660156 -15.257812 22.398438 -14.417969 C 19.53125 -12.597656 16.660156 -11.128906 13.578125 -9.589844 C 13.578125 -9.660156 13.507812 -9.800781 13.441406 -10.007812 C 13.507812 -9.660156 13.441406 -9.519531 13.371094 -9.449219 C 12.667969 -12.460938 11.96875 -15.46875 11.410156 -18.550781 C 11.691406 -17.21875 12.320312 -14.980469 12.808594 -13.089844 C 12.179688 -16.03125 11.410156 -19.667969 11.480469 -19.667969 C 11.339844 -19.597656 11.339844 -19.460938 11.339844 -19.320312 C 11.199219 -20.160156 10.988281 -21.210938 11.128906 -22.121094 C 11.199219 -23.167969 11.757812 -24.078125 12.109375 -25.058594 C 12.039062 -24.570312 11.898438 -23.9375 11.898438 -23.9375 C 12.320312 -23.871094 12.597656 -26.460938 12.597656 -26.738281 C 12.53125 -27.160156 11.621094 -28.488281 11.621094 -28.140625 C 9.730469 -29.890625 6.019531 -26.039062 5.460938 -24.359375 C 5.039062 -23.238281 5.039062 -22.050781 5.109375 -20.859375 C 5.179688 -19.667969 5.53125 -18.621094 5.878906 -17.5 C 6.089844 -16.660156 5.808594 -16.097656 5.878906 -15.191406 C 6.019531 -13.789062 6.511719 -12.390625 6.789062 -11.058594 C 7.070312 -10.007812 7.980469 -7.910156 7.769531 -6.929688 C 7.628906 -5.949219 5.53125 -5.109375 4.621094 -4.550781 C 3.429688 -3.78125 2.238281 -2.871094 1.050781 -1.960938 C -1.050781 -0.351562 -3.289062 1.679688 -4.128906 4.269531 C -4.269531 4.621094 -4.761719 6.160156 -4.269531 6.441406 C -4.199219 6.511719 -3.988281 5.320312 -3.917969 5.179688 C -4.828125 9.800781 -0.28125 12.039062 3.988281 12.109375 C 8.820312 12.25 12.179688 9.449219 13.859375 5.109375 C 14.558594 3.21875 14.769531 1.261719 14.699219 -0.699219 C 14.699219 -2.03125 14.558594 -3.289062 14.347656 -4.550781 C 14.210938 -5.667969 14.070312 -5.601562 14.839844 -6.230469 C 15.398438 -6.648438 16.238281 -6.929688 16.800781 -7.210938 C 19.039062 -8.398438 21.070312 -9.800781 23.097656 -11.269531 C 24.570312 -12.320312 28.070312 -14.140625 27.789062 -16.378906 Z M -0.488281 7.628906 C -2.308594 7.070312 -0.488281 4.199219 0.140625 3.289062 C 1.191406 1.890625 2.730469 0.839844 4.128906 -0.140625 L 6.230469 -1.539062 C 6.441406 -1.679688 7.769531 -2.730469 7.351562 -2.589844 L 8.191406 -3.078125 L 7.699219 -2.660156 C 7.839844 -2.730469 8.050781 -2.800781 8.191406 -2.941406 C 8.257812 -1.261719 8.257812 0.421875 7.769531 2.101562 C 7.699219 2.378906 6.371094 5.179688 5.808594 5.738281 L 6.160156 5.460938 C 5.53125 6.230469 4.828125 6.859375 3.988281 7.351562 C 3.988281 7.28125 4.621094 6.859375 4.550781 6.789062 L 2.589844 7.558594 C 1.609375 7.769531 0.488281 7.980469 -0.488281 7.628906 Z M 8.328125 9.660156 C 6.511719 10.429688 4.761719 10.78125 2.871094 10.851562 C 6.300781 10.640625 9.871094 8.960938 11.898438 6.089844 C 11.128906 7.628906 10.148438 8.820312 8.328125 9.660156 Z M 13.441406 -10.21875 C 13.371094 -10.710938 13.230469 -11.410156 13.019531 -12.179688 C 13.160156 -11.410156 13.300781 -10.640625 13.441406 -10.21875 Z M 14.347656 -2.941406 C 14.28125 -3.011719 14.28125 -3.148438 14.28125 -3.289062 C 14.28125 -3.148438 14.347656 -3.011719 14.347656 -2.941406 Z M 14.347656 -2.941406" transform="translate(177.67 205.905)"/></g></g></g><g fill="#03989E"><g><g><path d="M 34.71875 -17.21875 C 34.367188 -17.21875 33.878906 -16.519531 33.667969 -16.308594 C 32.6875 -15.328125 31.847656 -14.210938 31.007812 -13.160156 C 28.699219 -10.5 26.390625 -7.769531 23.871094 -5.320312 C 23.238281 -4.761719 21.628906 -2.871094 20.71875 -3.5 C 20.160156 -3.851562 20.648438 -6.089844 20.71875 -6.578125 C 20.859375 -7.210938 22.121094 -10.5 21.699219 -10.917969 C 21.488281 -11.058594 21.140625 -10.007812 21.070312 -9.941406 C 22.1875 -13.859375 24.429688 -18.339844 26.25 -22.1875 C 27.300781 -24.289062 28.628906 -26.878906 26.878906 -29.050781 C 23.800781 -32.828125 19.949219 -28 17.847656 -25.757812 C 16.9375 -24.777344 8.121094 -14 8.257812 -13.929688 C 8.257812 -13.929688 8.890625 -14.699219 9.800781 -15.75 C 8.46875 -14 7.210938 -12.25 6.019531 -10.429688 C 6.789062 -13.300781 7.628906 -16.097656 8.539062 -18.898438 C 9.03125 -20.300781 9.449219 -21.769531 9.941406 -23.238281 C 10.5 -24.777344 10.917969 -25.410156 12.109375 -26.527344 C 14.140625 -28.347656 16.097656 -30.308594 17.917969 -32.410156 C 18.621094 -33.25 19.109375 -34.230469 19.808594 -35 C 20.4375 -35.628906 21.347656 -36.1875 22.050781 -36.957031 C 25.617188 -41.160156 28.488281 -46.410156 30.867188 -51.308594 C 31.917969 -53.617188 32.898438 -55.996094 33.597656 -58.449219 C 33.738281 -59.007812 35.277344 -65.449219 34.929688 -65.449219 C 34.859375 -65.449219 34.859375 -65.378906 34.789062 -65.238281 C 34.859375 -66.359375 34.789062 -67.617188 34.367188 -68.738281 C 34.4375 -68.738281 34.789062 -67.6875 34.789062 -67.6875 C 35.207031 -67.96875 33.949219 -70.136719 33.667969 -70.417969 C 33.039062 -71.046875 32.128906 -71.398438 31.21875 -71.398438 C 29.398438 -71.539062 27.71875 -70.558594 26.320312 -69.507812 C 23.660156 -67.476562 21.769531 -64.46875 19.808594 -61.738281 C 18.6875 -60.199219 17.640625 -58.65625 16.660156 -57.046875 C 15.960938 -55.996094 14.417969 -54.109375 14.417969 -52.847656 C 14.488281 -52.777344 14.558594 -52.777344 14.558594 -52.777344 L 13.71875 -51.167969 C 13.71875 -51.167969 14.140625 -52.429688 14.210938 -52.5 C 13.859375 -52.289062 13.507812 -50.816406 13.507812 -50.75 C 10.78125 -45.429688 7.910156 -40.320312 6.019531 -34.648438 C 3.851562 -28.277344 2.238281 -21.699219 1.050781 -15.121094 C 0.488281 -12.109375 -0.210938 -8.820312 0.0703125 -5.738281 C 0.0703125 -4.898438 0.140625 -3.917969 0.769531 -3.21875 C 1.539062 -2.238281 3.148438 -1.890625 4.058594 -2.871094 C 4.339844 -3.21875 4.339844 -3.429688 4.480469 -3.78125 L 5.738281 -6.019531 C 7.417969 -8.609375 9.449219 -10.988281 11.058594 -13.648438 C 11.269531 -14.070312 11.480469 -14.558594 11.757812 -14.910156 C 12.109375 -15.328125 12.25 -15.121094 12.667969 -15.46875 C 13.859375 -16.449219 14.769531 -17.917969 15.75 -19.109375 C 17.78125 -21.628906 19.808594 -24.5 22.398438 -26.597656 L 20.371094 -21.699219 L 20.578125 -21.910156 L 19.53125 -19.53125 C 19.460938 -19.597656 19.738281 -20.230469 19.738281 -20.300781 C 19.460938 -20.300781 18.128906 -17.570312 17.988281 -17.289062 C 17.148438 -15.609375 16.238281 -13.929688 15.75 -12.179688 C 15.328125 -10.5 14.839844 -8.820312 14.347656 -7.140625 C 14.140625 -6.089844 13.929688 -5.039062 14 -3.988281 C 14 -3.710938 14.558594 -1.191406 14.769531 -1.398438 L 14.769531 -1.679688 C 14.910156 -1.261719 15.050781 -0.910156 15.257812 -0.558594 L 14.839844 -1.191406 C 14.628906 -0.699219 16.519531 0.910156 16.730469 1.121094 C 17.78125 2.171875 18.828125 2.871094 20.4375 2.941406 C 21.769531 3.011719 22.46875 2.519531 23.449219 1.609375 C 26.109375 -0.980469 28 -4.550781 30.027344 -7.628906 C 31.148438 -9.238281 32.269531 -10.917969 33.320312 -12.597656 C 33.597656 -12.949219 35.488281 -16.871094 35.207031 -16.800781 C 35.628906 -16.871094 34.859375 -17.21875 34.71875 -17.21875 Z M 28.628906 -64.328125 L 28.628906 -64.398438 C 28.628906 -64.398438 28.699219 -64.398438 28.699219 -64.46875 L 28.699219 -64.398438 C 28.769531 -64.539062 28.839844 -64.675781 28.769531 -64.609375 C 29.328125 -65.449219 30.730469 -67.96875 31.707031 -67.128906 C 32.6875 -66.289062 31.777344 -63.347656 31.5 -62.296875 C 30.9375 -60.128906 30.097656 -58.027344 29.257812 -55.996094 C 27.578125 -52.078125 25.480469 -48.367188 23.167969 -44.726562 C 22.050781 -42.976562 20.859375 -41.230469 19.667969 -39.546875 C 19.039062 -38.707031 18.410156 -37.867188 17.710938 -37.027344 L 17.148438 -36.398438 L 18.410156 -37.660156 L 21.210938 -41.578125 C 22.75 -43.679688 24.21875 -45.988281 25.617188 -48.296875 C 22.050781 -42 17.710938 -36.046875 12.667969 -30.730469 L 14.769531 -36.257812 C 14.980469 -36.679688 16.449219 -40.808594 16.449219 -40.808594 C 16.308594 -40.738281 16.097656 -40.386719 15.890625 -40.039062 C 17.570312 -43.886719 19.738281 -47.878906 21.699219 -51.726562 C 23.871094 -55.929688 26.039062 -60.269531 28.558594 -64.257812 C 28.558594 -64.257812 28.628906 -64.257812 28.628906 -64.328125 Z M 11.058594 -30.027344 C 11.691406 -33.808594 13.441406 -37.378906 14.699219 -41.019531 C 15.820312 -44.097656 17.640625 -46.898438 19.039062 -49.839844 C 19.667969 -51.238281 26.390625 -64.046875 26.527344 -63.976562 C 27.089844 -63.628906 18.480469 -47.179688 17.570312 -45.21875 C 16.800781 -43.75 16.097656 -42.347656 15.539062 -40.738281 C 15.050781 -39.199219 14.210938 -37.9375 13.648438 -36.46875 C 13.371094 -35.769531 10.570312 -28.417969 10.78125 -28.347656 C 10.640625 -28.347656 10.917969 -29.46875 10.988281 -29.820312 Z M 15.890625 -34.929688 C 16.03125 -35.070312 16.167969 -35.347656 16.378906 -35.558594 C 16.167969 -35.347656 16.03125 -35.140625 15.890625 -34.929688 Z M 28.628906 -64.328125 L 28.628906 -64.398438 L 28.699219 -64.398438 Z M 11.058594 -29.957031 C 11.058594 -29.890625 10.988281 -29.820312 10.988281 -29.820312 C 10.988281 -29.890625 11.058594 -29.890625 11.058594 -29.957031 Z M 11.058594 -29.957031" transform="translate(200.35 205.905)"/></g></g></g><g fill="#03989E"><g><g><path d="M 35.628906 -16.871094 C 35.558594 -18.410156 34.296875 -17.078125 33.878906 -16.519531 C 32.96875 -15.191406 32.128906 -13.789062 31.289062 -12.460938 C 29.398438 -9.589844 27.507812 -6.71875 25.339844 -3.988281 C 18.128906 4.898438 23.167969 -10.917969 22.609375 -10.78125 C 22.328125 -10.710938 22.121094 -9.660156 22.050781 -9.449219 C 22.609375 -11.96875 23.660156 -14.980469 24.988281 -17.429688 C 25.757812 -18.96875 26.667969 -20.230469 25.269531 -21.910156 C 22.679688 -25.058594 19.667969 -22.1875 17.988281 -20.019531 C 17.289062 -22.679688 15.890625 -26.597656 12.460938 -26.597656 C 10.917969 -26.597656 10.007812 -25.828125 8.960938 -24.917969 C 8.328125 -24.5 7.839844 -24.429688 7.28125 -23.9375 C 6.371094 -23.308594 5.738281 -22.328125 5.109375 -21.488281 C 2.730469 -17.988281 1.050781 -13.578125 0.28125 -9.519531 C -0.0703125 -7.558594 -0.210938 -5.390625 0.351562 -3.429688 C 0.699219 -2.308594 1.960938 0.210938 3.570312 0 C 3.640625 0 3.5 -0.0703125 3.289062 -0.210938 C 4.269531 0.0703125 5.390625 -0.0703125 6.230469 -0.628906 C 6.300781 -0.488281 5.460938 -0.140625 5.460938 -0.140625 C 6.230469 1.050781 11.96875 -5.878906 12.390625 -6.511719 C 13.300781 -7.769531 13.929688 -9.101562 14.769531 -10.429688 C 15.398438 -11.410156 16.378906 -12.667969 17.078125 -13.71875 C 17.007812 -13.230469 17.007812 -12.597656 17.007812 -12.597656 C 15.75 -8.609375 14.558594 -4.269531 16.238281 -0.140625 C 17.007812 1.960938 18.898438 3.917969 21.277344 3.5 C 23.378906 3.148438 25.128906 1.121094 26.390625 -0.488281 C 27.929688 -2.308594 29.257812 -4.339844 30.589844 -6.441406 C 31.707031 -8.328125 32.757812 -10.21875 33.667969 -12.320312 C 34.230469 -13.648438 35.769531 -15.257812 35.628906 -16.871094 Z M 15.539062 -16.378906 C 15.191406 -15.890625 14.839844 -15.398438 14.558594 -14.910156 L 12.738281 -12.320312 C 11.550781 -10.570312 10.289062 -8.890625 8.960938 -7.28125 C 8.609375 -6.789062 6.929688 -4.621094 6.230469 -4.828125 C 5.179688 -5.179688 6.300781 -8.820312 6.441406 -9.378906 C 6.648438 -10.359375 10.359375 -21.140625 11.339844 -21.347656 C 10.078125 -21.417969 6.019531 -8.75 5.808594 -7.699219 C 6.371094 -11.128906 7.628906 -14.488281 9.03125 -17.640625 C 9.800781 -19.25 11.550781 -23.519531 13.859375 -23.519531 C 15.121094 -23.519531 15.398438 -20.929688 15.609375 -20.089844 C 15.539062 -20.230469 14.910156 -22.257812 14.839844 -22.1875 C 14.488281 -21.910156 15.890625 -18.058594 15.890625 -17.5 C 15.890625 -16.9375 15.890625 -16.9375 15.539062 -16.378906 Z M 17.148438 -12.949219 C 17.148438 -12.949219 17.359375 -13.929688 17.429688 -14.140625 L 17.78125 -14.628906 Z M 16.097656 -17.289062 L 16.097656 -17.988281 C 16.308594 -17.710938 16.308594 -17.5 16.097656 -17.289062 Z M 16.097656 -17.289062" transform="translate(230.518 205.905)"/></g></g></g><g fill="#03989E"><g><g><path d="M 28.699219 -17.007812 C 28.277344 -18.828125 26.597656 -16.378906 26.25 -15.960938 L 22.398438 -10.78125 L 18.621094 -5.808594 L 16.589844 -3.21875 C 16.378906 -2.941406 14.839844 -0.980469 14.980469 -0.980469 C 15.121094 -1.121094 15.328125 -1.121094 15.539062 -1.328125 C 14.488281 -0.210938 10.640625 3.289062 9.941406 2.449219 C 9.378906 1.75 10.917969 -1.191406 11.128906 -1.890625 C 11.898438 -3.917969 12.597656 -6.019531 13.441406 -7.980469 C 14.347656 -10.007812 15.398438 -12.039062 16.238281 -14.070312 C 17.078125 -16.238281 15.820312 -17.007812 13.789062 -17.5 C 12.878906 -17.710938 11.757812 -17.710938 10.710938 -17.847656 C 10.710938 -17.78125 10.78125 -17.78125 10.78125 -17.78125 C 11.691406 -17.640625 13.019531 -17.570312 14.140625 -17.21875 C 12.460938 -17.710938 10.359375 -17.5 9.03125 -17.847656 C 8.121094 -18.058594 7.558594 -18.058594 7.699219 -19.109375 C 7.839844 -20.507812 9.308594 -21.980469 9.800781 -23.308594 C 9.800781 -23.238281 9.308594 -21.980469 9.378906 -21.980469 C 9.730469 -21.839844 10.289062 -23.800781 10.289062 -24.078125 C 10.21875 -24.429688 9.378906 -25.480469 9.308594 -25.058594 L 9.449219 -24.847656 C 6.089844 -27.160156 2.101562 -22.398438 2.800781 -18.96875 C 2.941406 -18.480469 3.21875 -18.199219 3.429688 -17.640625 C 3.570312 -17.21875 3.429688 -16.730469 3.851562 -16.167969 C 5.320312 -14.347656 7.980469 -14.28125 10.078125 -14.699219 C 9.730469 -14.210938 6.019531 -6.371094 6.230469 -6.300781 L 5.738281 -4.550781 C 5.667969 -4.621094 5.949219 -5.179688 5.808594 -5.179688 C 5.320312 -5.25 4.339844 -1.191406 4.269531 -0.839844 C 3.988281 0.839844 4.058594 2.308594 4.761719 3.851562 C 5.179688 4.828125 5.667969 5.667969 6.578125 6.230469 C 7.417969 6.789062 8.46875 7.070312 9.449219 6.859375 C 9.800781 6.71875 11.128906 5.808594 10.78125 5.878906 L 11.269531 5.667969 C 11.199219 5.738281 11.128906 5.808594 11.128906 5.878906 C 11.339844 5.949219 14.558594 3.359375 14.980469 3.078125 C 17.21875 1.191406 19.039062 -1.121094 20.71875 -3.429688 C 22.398438 -5.808594 24.148438 -8.191406 25.757812 -10.570312 C 26.527344 -11.691406 27.230469 -12.808594 27.789062 -14 C 28.210938 -14.839844 28.910156 -16.03125 28.699219 -17.007812 Z M 7.769531 -8.609375 C 8.257812 -9.871094 8.820312 -11.058594 9.449219 -12.25 C 9.589844 -12.460938 10.570312 -14.980469 11.058594 -15.121094 C 10.710938 -14.910156 9.238281 -11.480469 8.890625 -10.851562 L 7.558594 -7.769531 C 6.859375 -6.089844 6.089844 -4.339844 5.601562 -2.519531 C 6.089844 -4.621094 6.929688 -6.648438 7.769531 -8.609375 Z M 6.089844 4.828125 C 6.511719 5.390625 7.070312 5.949219 7.839844 6.230469 C 7.210938 6.019531 6.648438 5.667969 6.230469 5.25 C 6.300781 5.25 6.300781 5.320312 6.300781 5.390625 C 5.878906 4.828125 5.320312 3.640625 5.25 3.429688 C 5.039062 2.589844 4.96875 1.609375 5.039062 0.769531 C 5.039062 0.0703125 5.109375 -0.488281 5.25 -1.121094 L 5.25 -1.050781 C 5.109375 -0.140625 5.039062 0.769531 5.109375 1.75 L 5.109375 2.101562 C 5.039062 2.03125 5.039062 1.960938 5.039062 1.960938 C 5.039062 1.960938 5.039062 2.03125 5.109375 2.171875 L 5.109375 2.238281 L 5.390625 3.710938 L 5.179688 2.800781 C 5.320312 3.21875 5.667969 3.988281 6.019531 4.761719 L 5.949219 4.691406 C 5.949219 4.761719 6.019531 4.828125 6.089844 4.898438 Z M 8.050781 -18.269531 C 8.398438 -17.988281 9.03125 -17.917969 9.660156 -17.847656 C 9.101562 -17.917969 8.609375 -18.058594 8.257812 -18.339844 C 8.257812 -18.339844 7.839844 -18.6875 7.769531 -18.828125 C 7.769531 -18.6875 7.910156 -18.339844 8.050781 -18.269531 Z M 15.398438 -12.808594 L 13.929688 -9.730469 L 15.398438 -12.878906 Z M 5.320312 -1.328125 C 5.320312 -1.261719 5.25 -1.191406 5.25 -1.121094 L 5.25 -1.191406 C 5.25 -1.261719 5.320312 -1.261719 5.320312 -1.328125 Z M 15.46875 -13.019531 L 15.46875 -12.949219 L 15.398438 -12.949219 Z M 15.46875 -13.019531 L 15.46875 -12.949219 L 15.398438 -12.949219 Z M 5.390625 -2.238281 C 5.390625 -2.308594 5.460938 -2.378906 5.460938 -2.519531 C 5.460938 -2.378906 5.390625 -2.308594 5.390625 -2.238281 Z M 5.667969 4.199219 C 5.667969 4.199219 5.738281 4.269531 5.738281 4.339844 C 5.738281 4.269531 5.667969 4.269531 5.667969 4.199219 Z M 7.839844 -18.96875 C 7.769531 -18.96875 7.769531 -18.898438 7.769531 -18.898438 Z M 7.839844 -18.96875" transform="translate(261.036 205.905)"/></g></g></g><g fill="#03989E"><g><g><path d="M 42.558594 -16.800781 C 42.558594 -16.800781 42.628906 -16.730469 42.558594 -16.871094 C 42.070312 -18.410156 38.988281 -14.210938 38.636719 -13.789062 C 36.820312 -11.621094 35 -9.378906 33.109375 -7.28125 C 32.339844 -6.441406 29.609375 -2.660156 28.277344 -2.941406 C 27.648438 -3.078125 28.140625 -6.441406 28.140625 -6.441406 C 28 -6.300781 27.929688 -6.160156 27.859375 -6.019531 C 28.417969 -8.679688 30.027344 -11.828125 31.148438 -14.488281 C 32.339844 -17.5 34.089844 -21.417969 33.179688 -24.777344 C 32.128906 -28.628906 28.140625 -26.667969 26.25 -24.847656 C 25.550781 -24.148438 19.738281 -16.589844 19.808594 -16.097656 L 21.210938 -17.988281 C 20.089844 -16.238281 19.039062 -14.558594 18.199219 -12.808594 C 18.898438 -15.257812 19.597656 -17.78125 20.4375 -20.230469 C 21.070312 -21.910156 22.121094 -23.660156 22.609375 -25.410156 C 23.167969 -27.648438 21.210938 -30.730469 18.6875 -30.378906 C 16.871094 -30.167969 15.328125 -28.070312 14.417969 -26.597656 C 13.300781 -24.777344 11.96875 -23.097656 10.851562 -21.347656 C 9.519531 -19.179688 8.398438 -16.800781 7.28125 -14.558594 C 6.300781 -12.738281 5.808594 -10.640625 4.761719 -8.960938 C 4.898438 -9.730469 4.621094 -10.289062 4.621094 -10.988281 C 4.621094 -11.621094 4.898438 -12.390625 5.039062 -13.019531 C 5.25 -14 5.808594 -14.839844 6.019531 -15.820312 C 6.160156 -16.308594 6.019531 -16.519531 6.160156 -17.007812 C 6.230469 -17.359375 6.578125 -17.78125 6.789062 -18.058594 C 7.28125 -18.757812 7.910156 -19.390625 8.328125 -20.089844 C 8.398438 -20.230469 8.539062 -20.371094 8.539062 -20.507812 C 8.820312 -21.488281 8.121094 -21.839844 7.769531 -22.328125 C 7.417969 -22.75 7.070312 -23.660156 6.511719 -24.148438 C 6.089844 -24.5 5.390625 -24.917969 4.898438 -24.710938 C 4.269531 -24.429688 4.550781 -24.078125 4.339844 -23.730469 C 4.058594 -23.027344 3.5 -22.46875 3.148438 -21.839844 C 2.589844 -20.648438 2.101562 -19.460938 1.75 -18.269531 C 0.910156 -15.820312 -0.0703125 -13.300781 0.0703125 -10.710938 C 0.140625 -8.75 -0.421875 -7.140625 1.050781 -5.390625 C 1.75 -4.550781 4.480469 -2.730469 5.179688 -3.988281 C 5.25 -4.128906 5.320312 -4.691406 5.320312 -4.898438 C 5.53125 -5.601562 6.019531 -6.230469 6.300781 -6.929688 C 7 -8.328125 7.628906 -9.800781 8.398438 -11.269531 C 10.359375 -14.980469 11.828125 -18.550781 14.140625 -22.121094 C 14.839844 -23.167969 15.679688 -24.21875 16.519531 -25.199219 C 16.730469 -25.410156 17.78125 -26.878906 17.917969 -26.808594 C 19.039062 -26.738281 16.800781 -22.46875 16.589844 -21.699219 C 15.679688 -19.320312 14.070312 -16.871094 13.789062 -14.347656 C 13.71875 -13.507812 13.929688 -13.230469 13.71875 -12.460938 C 13.507812 -11.621094 13.160156 -10.710938 13.230469 -9.800781 C 13.371094 -8.960938 13.71875 -8.191406 14.347656 -7.628906 C 16.589844 -5.460938 17.5 -7.980469 18.480469 -9.660156 C 19.667969 -11.621094 20.789062 -14.417969 22.257812 -15.890625 C 24.570312 -18.128906 25.757812 -21.140625 28.070312 -23.308594 C 27.71875 -22.539062 25.757812 -17.78125 25.828125 -17.710938 C 25.96875 -17.847656 26.039062 -17.988281 26.109375 -18.128906 C 25.828125 -17.359375 25.550781 -16.660156 25.339844 -15.960938 C 25.199219 -16.03125 25.480469 -16.589844 25.410156 -16.589844 C 24.988281 -16.660156 23.730469 -12.738281 23.660156 -12.460938 C 23.167969 -11.058594 22.960938 -9.730469 22.960938 -8.257812 C 22.960938 -6.929688 22.960938 -5.601562 23.167969 -4.199219 C 23.308594 -3.359375 23.519531 -2.449219 23.9375 -1.679688 C 24.078125 -1.328125 25.058594 -0.351562 25.058594 -0.488281 C 25.128906 -0.351562 25.128906 -0.210938 25.269531 -0.140625 L 25.199219 -0.210938 C 25.058594 0.351562 28 1.328125 28.488281 1.261719 C 30.9375 1.191406 33.390625 -2.101562 34.71875 -3.851562 C 36.679688 -6.230469 38.429688 -8.820312 40.179688 -11.339844 C 41.089844 -12.667969 42.976562 -14.980469 42.558594 -16.800781 Z M 17.429688 -21.417969 L 17.5 -21.417969 C 17.429688 -21.347656 17.359375 -21.210938 17.359375 -21.210938 C 16.519531 -19.460938 16.097656 -17.429688 15.398438 -15.539062 C 14.839844 -14.140625 14.140625 -12.460938 14 -10.917969 C 14 -12.53125 14.488281 -14.417969 14.980469 -15.820312 C 15.539062 -17.5 16.378906 -19.109375 17.078125 -20.71875 C 17.359375 -21.277344 19.039062 -25.617188 18.757812 -26.738281 C 19.179688 -25.757812 17.917969 -22.46875 17.5 -21.417969 L 17.5 -21.488281 Z M 17.429688 -21.417969" transform="translate(284.625 205.905)"/></g></g></g><g fill="#03989E"><g><g><path d="M 35.628906 -16.871094 C 35.558594 -18.410156 34.296875 -17.078125 33.878906 -16.519531 C 32.96875 -15.191406 32.128906 -13.789062 31.289062 -12.460938 C 29.398438 -9.589844 27.507812 -6.71875 25.339844 -3.988281 C 18.128906 4.898438 23.167969 -10.917969 22.609375 -10.78125 C 22.328125 -10.710938 22.121094 -9.660156 22.050781 -9.449219 C 22.609375 -11.96875 23.660156 -14.980469 24.988281 -17.429688 C 25.757812 -18.96875 26.667969 -20.230469 25.269531 -21.910156 C 22.679688 -25.058594 19.667969 -22.1875 17.988281 -20.019531 C 17.289062 -22.679688 15.890625 -26.597656 12.460938 -26.597656 C 10.917969 -26.597656 10.007812 -25.828125 8.960938 -24.917969 C 8.328125 -24.5 7.839844 -24.429688 7.28125 -23.9375 C 6.371094 -23.308594 5.738281 -22.328125 5.109375 -21.488281 C 2.730469 -17.988281 1.050781 -13.578125 0.28125 -9.519531 C -0.0703125 -7.558594 -0.210938 -5.390625 0.351562 -3.429688 C 0.699219 -2.308594 1.960938 0.210938 3.570312 0 C 3.640625 0 3.5 -0.0703125 3.289062 -0.210938 C 4.269531 0.0703125 5.390625 -0.0703125 6.230469 -0.628906 C 6.300781 -0.488281 5.460938 -0.140625 5.460938 -0.140625 C 6.230469 1.050781 11.96875 -5.878906 12.390625 -6.511719 C 13.300781 -7.769531 13.929688 -9.101562 14.769531 -10.429688 C 15.398438 -11.410156 16.378906 -12.667969 17.078125 -13.71875 C 17.007812 -13.230469 17.007812 -12.597656 17.007812 -12.597656 C 15.75 -8.609375 14.558594 -4.269531 16.238281 -0.140625 C 17.007812 1.960938 18.898438 3.917969 21.277344 3.5 C 23.378906 3.148438 25.128906 1.121094 26.390625 -0.488281 C 27.929688 -2.308594 29.257812 -4.339844 30.589844 -6.441406 C 31.707031 -8.328125 32.757812 -10.21875 33.667969 -12.320312 C 34.230469 -13.648438 35.769531 -15.257812 35.628906 -16.871094 Z M 15.539062 -16.378906 C 15.191406 -15.890625 14.839844 -15.398438 14.558594 -14.910156 L 12.738281 -12.320312 C 11.550781 -10.570312 10.289062 -8.890625 8.960938 -7.28125 C 8.609375 -6.789062 6.929688 -4.621094 6.230469 -4.828125 C 5.179688 -5.179688 6.300781 -8.820312 6.441406 -9.378906 C 6.648438 -10.359375 10.359375 -21.140625 11.339844 -21.347656 C 10.078125 -21.417969 6.019531 -8.75 5.808594 -7.699219 C 6.371094 -11.128906 7.628906 -14.488281 9.03125 -17.640625 C 9.800781 -19.25 11.550781 -23.519531 13.859375 -23.519531 C 15.121094 -23.519531 15.398438 -20.929688 15.609375 -20.089844 C 15.539062 -20.230469 14.910156 -22.257812 14.839844 -22.1875 C 14.488281 -21.910156 15.890625 -18.058594 15.890625 -17.5 C 15.890625 -16.9375 15.890625 -16.9375 15.539062 -16.378906 Z M 17.148438 -12.949219 C 17.148438 -12.949219 17.359375 -13.929688 17.429688 -14.140625 L 17.78125 -14.628906 Z M 16.097656 -17.289062 L 16.097656 -17.988281 C 16.308594 -17.710938 16.308594 -17.5 16.097656 -17.289062 Z M 16.097656 -17.289062" transform="translate(322.073 205.905)"/></g></g></g><g fill="#03989E"><g><g><path d="M 10.917969 -0.699219 C 10.917969 -1.191406 11.339844 -1.820312 10.917969 -2.378906 C 10.570312 -2.800781 10.570312 -2.519531 10.21875 -2.589844 C 8.820312 -3.148438 7.488281 -2.800781 6.230469 -2.171875 C 4.621094 -1.328125 2.03125 1.539062 3.011719 3.640625 C 3.289062 4.199219 4.550781 5.320312 5.039062 5.53125 C 6.371094 6.230469 7.070312 5.320312 7.910156 4.550781 C 8.890625 3.640625 9.589844 3.289062 10.078125 2.171875 C 10.21875 1.890625 11.898438 -0.699219 10.917969 -0.699219 Z M 10.917969 -0.699219" transform="translate(352.59 205.905)"/></g></g></g></svg>