<svg xmlns="http://www.w3.org/2000/svg" width="375" viewBox="0 0 375 375" height="375" version="1.0"><g fill="#FFF"><g><g><path d="M 165.042969 -75.503906 C 164.730469 -81.117188 160.675781 -79.558594 157.867188 -77.0625 C 156.308594 -75.503906 136.027344 -53.039062 136.964844 -51.480469 C 137.589844 -51.480469 138.523438 -51.480469 139.148438 -52.101562 C 133.222656 -46.175781 123.859375 -40.558594 116.683594 -35.253906 C 109.507812 -29.640625 101.398438 -19.34375 91.414062 -18.71875 C 90.476562 -18.71875 89.542969 -18.40625 88.292969 -18.71875 C 83.925781 -19.34375 73.316406 -38.375 72.382812 -42.429688 C 72.695312 -39.3125 79.871094 -25.269531 81.742188 -22.152344 C 74.566406 -30.261719 70.824219 -42.429688 68.949219 -53.351562 C 69.261719 -52.414062 69.886719 -51.480469 70.199219 -51.480469 C 71.132812 -51.789062 69.886719 -58.03125 69.886719 -58.34375 C 70.511719 -58.964844 75.191406 -60.214844 76.4375 -60.839844 C 83.300781 -63.644531 89.855469 -67.078125 96.40625 -70.824219 C 108.574219 -77.375 120.742188 -85.175781 130.726562 -94.847656 C 141.644531 -105.765625 151.003906 -121.054688 136.652344 -133.53125 C 122.300781 -145.699219 102.023438 -129.476562 91.101562 -119.804688 C 80.492188 -110.445312 71.445312 -99.527344 63.023438 -88.292969 C 59.277344 -82.679688 55.222656 -77.375 51.789062 -71.757812 C 49.605469 -68.636719 42.742188 -60.839844 43.367188 -57.09375 C 43.367188 -57.09375 49.292969 -64.269531 49.605469 -64.582031 C 47.421875 -61.460938 45.238281 -58.03125 43.367188 -54.597656 C 43.367188 -54.910156 38.375 -48.046875 37.75 -46.800781 L 29.328125 -32.136719 C 32.757812 -46.800781 36.816406 -61.460938 41.183594 -76.125 C 43.367188 -83.613281 45.238281 -87.980469 50.230469 -93.910156 C 54.597656 -99.214844 58.964844 -104.515625 63.023438 -109.820312 C 72.382812 -121.675781 80.804688 -134.46875 89.230469 -147.261719 C 95.46875 -156.621094 100.148438 -168.789062 107.324219 -176.585938 C 116.0625 -186.882812 123.550781 -200.609375 127.917969 -213.714844 C 130.414062 -220.890625 129.476562 -226.820312 126.046875 -233.996094 C 119.492188 -246.785156 106.390625 -258.328125 92.039062 -251.777344 C 80.183594 -246.472656 71.757812 -234.304688 65.519531 -223.386719 C 61.460938 -216.523438 57.71875 -209.347656 54.597656 -201.859375 L 48.359375 -188.753906 C 47.421875 -186.257812 46.488281 -182.203125 45.550781 -180.019531 C 45.550781 -179.707031 45.238281 -179.394531 45.238281 -179.394531 C 42.742188 -173.15625 40.871094 -167.226562 38.6875 -160.988281 C 38.375 -161.300781 40.246094 -167.226562 40.246094 -167.226562 C 38.6875 -167.226562 33.695312 -152.253906 33.070312 -150.378906 C 30.261719 -142.890625 27.765625 -135.40625 25.269531 -127.605469 C 20.589844 -113.566406 16.847656 -99.214844 14.039062 -84.550781 C 11.542969 -68.636719 6.863281 -53.039062 3.433594 -37.4375 C 2.183594 -30.574219 0 -23.710938 0 -16.847656 C 0 -13.105469 0.625 -9.046875 2.808594 -5.929688 C 3.433594 -5.304688 8.734375 -0.9375 8.734375 -1.246094 C 8.734375 -1.246094 8.421875 -1.558594 8.421875 -1.871094 C 9.984375 -0.625 13.105469 0.3125 15.601562 0.625 C 13.414062 0.625 10.609375 0.3125 9.984375 -0.625 C 12.167969 2.496094 20.589844 0.3125 21.214844 0.3125 C 28.390625 -1.246094 29.953125 -11.230469 33.695312 -16.847656 L 48.671875 -41.808594 C 49.917969 -35.253906 52.414062 -27.765625 55.535156 -22.152344 C 56.160156 -20.589844 65.207031 -8.113281 65.832031 -8.734375 C 65.832031 -9.046875 65.519531 -9.671875 65.519531 -9.984375 C 66.765625 -8.421875 68.015625 -7.175781 69.574219 -6.238281 C 69.261719 -5.929688 68.328125 -7.175781 68.015625 -6.550781 C 66.140625 -3.742188 79.558594 0.9375 81.742188 0.9375 C 86.109375 0.625 89.855469 -2.496094 93.910156 -4.054688 C 97.339844 -5.617188 100.773438 -6.863281 103.894531 -9.359375 C 107.636719 -12.480469 103.582031 -10.609375 106.078125 -12.480469 L 106.078125 -11.855469 C 107.011719 -13.105469 121.054688 -20.902344 121.675781 -21.527344 C 128.851562 -26.832031 134.46875 -34.007812 140.707031 -40.558594 C 146.011719 -45.863281 150.378906 -51.789062 154.75 -57.40625 C 159.429688 -62.710938 165.667969 -67.078125 165.042969 -75.191406 Z M 97.339844 -227.753906 C 100.460938 -232.121094 109.507812 -243.042969 115.125 -235.554688 C 120.742188 -228.066406 111.070312 -210.28125 107.636719 -203.105469 C 102.957031 -192.5 97.03125 -182.203125 91.101562 -172.21875 L 82.679688 -158.492188 C 79.558594 -153.8125 75.503906 -149.445312 73.628906 -144.765625 C 74.878906 -146.949219 77.375 -149.757812 78.933594 -151.628906 L 85.796875 -162.546875 C 91.101562 -170.972656 96.09375 -179.394531 100.773438 -188.132812 C 103.269531 -192.1875 105.765625 -196.867188 108.574219 -201.859375 C 105.453125 -195.308594 102.023438 -189.066406 98.589844 -182.828125 C 84.863281 -157.867188 68.949219 -134.46875 51.789062 -112.003906 C 57.40625 -132.285156 63.335938 -152.5625 70.824219 -172.53125 C 78 -191.25 85.175781 -211.53125 97.339844 -227.753906 Z M 66.140625 -67.078125 C 76.4375 -81.429688 87.046875 -95.46875 99.214844 -108.261719 C 102.023438 -111.382812 117.621094 -129.164062 122.925781 -125.421875 C 127.917969 -121.675781 110.132812 -101.398438 107.636719 -98.589844 C 96.09375 -86.109375 82.054688 -73.316406 66.140625 -67.078125 Z M 68.015625 -179.082031 C 71.757812 -188.132812 75.191406 -197.492188 79.558594 -206.851562 C 79.871094 -208.097656 82.988281 -212.15625 84.550781 -214.960938 C 82.988281 -210.90625 78.308594 -204.042969 77.6875 -202.171875 C 72.695312 -189.378906 68.949219 -176.277344 64.582031 -163.171875 C 59.589844 -147.574219 54.597656 -132.597656 50.542969 -116.996094 L 51.167969 -119.492188 L 50.855469 -119.179688 C 50.855469 -119.492188 51.167969 -119.492188 51.167969 -119.804688 C 55.222656 -139.460938 60.214844 -160.363281 68.015625 -179.082031 Z M 45.550781 -180.019531 L 45.238281 -179.707031 C 45.550781 -179.707031 45.550781 -180.019531 45.550781 -180.019531 Z M 45.238281 -179.394531 L 45.238281 -179.707031 Z M 45.238281 -179.394531" transform="translate(31.664 273.03)"/></g></g></g><g fill="#FFF"><g><g><path d="M 123.859375 -73.316406 C 122.925781 -77.6875 120.429688 -78.308594 117.308594 -77.0625 C 111.382812 -74.253906 105.453125 -68.015625 99.835938 -64.269531 C 87.046875 -56.160156 74.253906 -49.605469 60.527344 -42.742188 C 60.527344 -43.054688 60.214844 -43.679688 59.902344 -44.613281 C 60.214844 -43.054688 59.902344 -42.429688 59.589844 -42.117188 C 56.46875 -55.535156 53.351562 -68.949219 50.855469 -82.679688 C 52.101562 -76.75 54.910156 -66.765625 57.09375 -58.34375 C 54.285156 -71.445312 50.855469 -87.667969 51.167969 -87.667969 C 50.542969 -87.359375 50.542969 -86.734375 50.542969 -86.109375 C 49.917969 -89.855469 48.984375 -94.535156 49.605469 -98.589844 C 49.917969 -103.269531 52.414062 -107.324219 53.976562 -111.691406 C 53.664062 -109.507812 53.039062 -106.703125 53.039062 -106.703125 C 54.910156 -106.390625 56.160156 -117.933594 56.160156 -119.179688 C 55.847656 -121.054688 51.789062 -126.980469 51.789062 -125.421875 C 43.367188 -133.222656 26.832031 -116.0625 24.335938 -108.574219 C 22.464844 -103.582031 22.464844 -98.277344 22.777344 -92.972656 C 23.085938 -87.667969 24.648438 -82.988281 26.207031 -78 C 27.144531 -74.253906 25.894531 -71.757812 26.207031 -67.703125 C 26.832031 -61.460938 29.015625 -55.222656 30.261719 -49.292969 C 31.511719 -44.613281 35.566406 -35.253906 34.632812 -30.886719 C 34.007812 -26.519531 24.648438 -22.777344 20.589844 -20.28125 C 15.289062 -16.847656 9.984375 -12.792969 4.679688 -8.734375 C -4.679688 -1.558594 -14.664062 7.488281 -18.40625 19.03125 C -19.03125 20.589844 -21.214844 27.457031 -19.03125 28.703125 C -18.71875 29.015625 -17.785156 23.710938 -17.472656 23.085938 C -21.527344 43.679688 -1.246094 53.664062 17.785156 53.976562 C 39.3125 54.597656 54.285156 42.117188 61.773438 22.777344 C 64.894531 14.351562 65.832031 5.617188 65.519531 -3.121094 C 65.519531 -9.046875 64.894531 -14.664062 63.957031 -20.28125 C 63.335938 -25.269531 62.710938 -24.960938 66.140625 -27.765625 C 68.636719 -29.640625 72.382812 -30.886719 74.878906 -32.136719 C 84.863281 -37.4375 93.910156 -43.679688 102.957031 -50.230469 C 109.507812 -54.910156 125.109375 -63.023438 123.859375 -73.007812 Z M -2.183594 34.007812 C -10.296875 31.511719 -2.183594 18.71875 0.625 14.664062 C 5.304688 8.421875 12.167969 3.742188 18.40625 -0.625 L 27.765625 -6.863281 C 28.703125 -7.488281 34.632812 -12.167969 32.757812 -11.542969 L 36.503906 -13.726562 L 34.320312 -11.855469 C 34.941406 -12.167969 35.878906 -12.480469 36.503906 -13.105469 C 36.816406 -5.617188 36.816406 1.871094 34.632812 9.359375 C 34.320312 10.609375 28.390625 23.085938 25.894531 25.582031 L 27.457031 24.335938 C 24.648438 27.765625 21.527344 30.574219 17.785156 32.757812 C 17.785156 32.445312 20.589844 30.574219 20.28125 30.261719 L 11.542969 33.695312 C 7.175781 34.632812 2.183594 35.566406 -2.183594 34.007812 Z M 37.128906 43.054688 C 29.015625 46.488281 21.214844 48.046875 12.792969 48.359375 C 28.078125 47.421875 43.992188 39.933594 53.039062 27.144531 C 49.605469 34.007812 45.238281 39.3125 37.128906 43.054688 Z M 59.902344 -45.550781 C 59.589844 -47.734375 58.964844 -50.855469 58.03125 -54.285156 C 58.65625 -50.855469 59.277344 -47.421875 59.902344 -45.550781 Z M 63.957031 -13.105469 C 63.644531 -13.414062 63.644531 -14.039062 63.644531 -14.664062 C 63.644531 -14.039062 63.957031 -13.414062 63.957031 -13.105469 Z M 63.957031 -13.105469" transform="translate(173.932 273.03)"/></g></g></g><g fill="#FFF"><g><g><path d="M 48.671875 -3.121094 C 48.671875 -5.304688 50.542969 -8.113281 48.671875 -10.609375 C 47.109375 -12.480469 47.109375 -11.230469 45.550781 -11.542969 C 39.3125 -14.039062 33.382812 -12.480469 27.765625 -9.671875 C 20.589844 -5.929688 9.046875 6.863281 13.414062 16.222656 C 14.664062 18.71875 20.28125 23.710938 22.464844 24.648438 C 28.390625 27.765625 31.511719 23.710938 35.253906 20.28125 C 39.621094 16.222656 42.742188 14.664062 44.925781 9.671875 C 45.550781 8.421875 53.039062 -3.121094 48.671875 -3.121094 Z M 48.671875 -3.121094" transform="translate(275.018 273.03)"/></g></g></g></svg>