<svg width="400" height="400" viewBox="0 0 400 400" fill="none" xmlns="http://www.w3.org/2000/svg">
<path d="M74.544 247.256C74.6763 245.63 75.2983 244.082 76.328 242.816C77.2974 241.544 78.64 240.607 80.168 240.136C81.4721 239.765 82.8623 239.835 84.1224 240.336C85.3825 240.836 86.4419 241.739 87.136 242.904C87.7239 241.734 88.6683 240.781 89.8331 240.183C90.9979 239.585 92.3226 239.372 93.616 239.576C95.1892 239.867 96.6324 240.641 97.744 241.792C98.9186 242.922 99.7174 244.385 100.032 245.984C100.409 248.027 100.117 250.136 99.2 252C98.1105 253.896 96.586 255.505 94.752 256.696C91.776 258.736 87.864 261.296 87.864 261.296C87.864 261.296 84.28 258.936 81.096 257.296C79.13 256.336 77.4234 254.917 76.12 253.16C74.9726 251.413 74.4198 249.342 74.544 247.256Z" fill="#EBEBEB"/>
<path d="M297.512 158.896C297.64 157.269 298.262 155.719 299.296 154.456C300.261 153.183 301.601 152.245 303.128 151.776C304.432 151.405 305.822 151.475 307.082 151.976C308.342 152.476 309.402 153.379 310.096 154.544C310.684 153.374 311.628 152.421 312.793 151.823C313.958 151.225 315.283 151.012 316.576 151.216C318.149 151.507 319.592 152.281 320.704 153.432C321.879 154.563 322.68 156.025 323 157.624C323.367 159.672 323.067 161.784 322.144 163.648C321.057 165.545 319.532 167.156 317.696 168.344C314.728 170.384 310.808 172.944 310.808 172.944C310.808 172.944 307.232 170.544 304.04 168.944C302.074 167.984 300.367 166.565 299.064 164.808C297.923 163.056 297.378 160.982 297.512 158.896Z" fill="#EBEBEB"/>
<path d="M96.2 227.392C96.2786 226.347 96.6781 225.353 97.344 224.544C97.9651 223.725 98.8266 223.121 99.808 222.816C100.331 222.673 100.878 222.637 101.415 222.71C101.953 222.783 102.47 222.963 102.936 223.24C103.486 223.578 103.95 224.042 104.288 224.592C104.665 223.841 105.272 223.23 106.02 222.847C106.768 222.465 107.618 222.33 108.448 222.464C109.458 222.643 110.386 223.139 111.096 223.88C111.851 224.607 112.365 225.548 112.568 226.576C112.809 227.889 112.618 229.245 112.024 230.44C111.326 231.659 110.347 232.693 109.168 233.456C107.256 234.768 104.744 236.416 104.744 236.416C104.744 236.416 102.44 234.896 100.392 233.824C99.1284 233.207 98.0311 232.296 97.192 231.168C96.4649 230.048 96.1171 228.724 96.2 227.392Z" fill="#F5F5F5"/>
<path d="M283.824 178.48C283.908 177.437 284.306 176.443 284.968 175.632C285.59 174.816 286.452 174.215 287.432 173.912C288.27 173.681 289.161 173.729 289.969 174.05C290.778 174.37 291.46 174.945 291.912 175.688C292.177 175.164 292.554 174.706 293.016 174.344C293.444 174.01 293.936 173.767 294.462 173.63C294.987 173.492 295.535 173.463 296.072 173.544C297.082 173.73 298.008 174.228 298.72 174.968C299.477 175.694 299.991 176.635 300.192 177.664C300.432 178.977 300.241 180.332 299.648 181.528C298.952 182.749 297.973 183.783 296.792 184.544C294.88 185.848 292.368 187.496 292.368 187.496C292.368 187.496 290.072 185.984 288.016 184.904C286.751 184.29 285.653 183.378 284.816 182.248C284.089 181.131 283.742 179.81 283.824 178.48Z" fill="#F5F5F5"/>
<path d="M324.264 218.92C324.343 217.875 324.742 216.881 325.408 216.072C326.029 215.253 326.891 214.649 327.872 214.344C328.395 214.201 328.942 214.165 329.479 214.238C330.016 214.311 330.534 214.491 331 214.768C331.55 215.106 332.014 215.57 332.352 216.12C332.727 215.367 333.333 214.755 334.082 214.372C334.831 213.989 335.682 213.856 336.512 213.992C337.52 214.179 338.445 214.673 339.16 215.408C339.915 216.135 340.429 217.076 340.632 218.104C340.869 219.417 340.678 220.771 340.088 221.968C339.39 223.189 338.407 224.223 337.224 224.984C335.32 226.296 332.8 227.944 332.8 227.944C332.8 227.944 330.504 226.424 328.456 225.352C327.192 224.735 326.095 223.824 325.256 222.696C324.529 221.576 324.181 220.252 324.264 218.92Z" fill="#EBEBEB"/>
<path d="M101.52 260.544C101.574 259.856 101.84 259.202 102.28 258.672C102.683 258.134 103.242 257.735 103.88 257.528C104.226 257.434 104.586 257.41 104.941 257.458C105.295 257.506 105.637 257.625 105.944 257.808C106.305 258.035 106.609 258.342 106.832 258.704C107.008 258.359 107.257 258.056 107.56 257.816C107.844 257.597 108.168 257.438 108.515 257.349C108.861 257.259 109.223 257.241 109.576 257.296C110.242 257.416 110.852 257.744 111.32 258.232C111.826 258.706 112.174 259.323 112.32 260C112.476 260.867 112.35 261.762 111.96 262.552C111.5 263.358 110.853 264.042 110.072 264.544C108.816 265.408 107.152 266.488 107.152 266.488C107.152 266.488 105.64 265.488 104.288 264.784C103.459 264.373 102.738 263.773 102.184 263.032C101.701 262.296 101.468 261.423 101.52 260.544Z" fill="#F5F5F5"/>
<path d="M58.2321 66.976C58.2321 66.976 54.5441 70.176 62.5521 77.544C66.6027 81.3968 70.9056 84.9754 75.4321 88.256C75.4321 88.256 77.0321 90.064 75.3841 91.048C73.7361 92.032 69.6001 92.848 69.6001 95.32C69.6001 97.792 72.0001 99.408 76.0561 100.048C80.1121 100.688 88.8561 102.448 89.6001 102.576C90.3441 102.704 91.3761 103.48 90.3521 104.336C89.3281 105.192 80.8561 109.36 83.0801 113.256C85.3041 117.152 96.7761 117.104 98.0321 117.128C99.2881 117.152 99.7201 117.512 99.8561 118.152C99.9921 118.792 97.0081 119.92 94.6481 121.2C92.2881 122.48 89.7761 124.4 91.2401 126.536C92.7041 128.672 100.536 131.432 115.616 127.488L122.488 125.208L124.088 118.104C126.536 102.712 123.032 95.192 120.752 93.944C118.472 92.696 116.824 95.376 115.776 97.848C114.728 100.32 113.896 103.4 113.248 103.336C112.6 103.272 112.192 102.864 112.048 101.616C111.904 100.368 110.84 88.944 106.736 87.12C102.632 85.296 99.3201 94.128 98.5681 95.232C97.8161 96.336 96.9681 95.408 96.7441 94.656C96.5201 93.904 93.9361 85.352 92.9041 81.416C91.8721 77.48 90.1201 75.224 87.5681 75.464C85.0161 75.704 84.7041 79.904 83.8801 81.648C83.0561 83.392 81.1041 81.976 81.1041 81.976C77.3881 77.7876 73.3951 73.8534 69.1521 70.2C61.0161 63 58.1601 67.048 58.1601 67.048" fill="#EBEBEB"/>
<path d="M123.408 126.672C117.456 121.328 107.032 111.656 98.0403 103.4C89.0483 95.144 80.9043 87.672 74.9763 82.304L67.9523 75.952C67.1523 75.2 66.4803 74.624 66.0403 74.216L65.5443 73.768L65.3843 73.608C65.4459 73.6494 65.5047 73.6948 65.5603 73.744C65.6803 73.856 65.8563 74 66.0723 74.184L68.0003 75.88C69.6803 77.36 72.0963 79.512 75.0723 82.184C81.0323 87.528 89.1923 94.984 98.1843 103.232C107.176 111.48 117.6 121.184 123.52 126.552" fill="#E0E0E0"/>
<path d="M75.4321 94.4C75.6208 94.3775 75.8115 94.3775 76.0001 94.4H77.4241C78.6241 94.4 80.2881 94.4 82.1201 94.512L86.8081 94.72L88.2321 94.776C88.4051 94.76 88.5792 94.76 88.7521 94.776C88.5812 94.8119 88.4067 94.828 88.2321 94.824C87.8881 94.824 87.4321 94.824 86.8001 94.824C85.6001 94.824 83.9441 94.752 82.1121 94.68L77.4161 94.496L76.0001 94.448C75.8095 94.4569 75.6186 94.4408 75.4321 94.4Z" fill="#E0E0E0"/>
<path d="M89.0162 94.16C88.9522 94.16 88.8802 90.728 88.8562 86.504C88.8322 82.28 88.8562 78.84 88.9282 78.84C89.0002 78.84 89.0562 82.272 89.0802 86.496C89.1042 90.72 89.0722 94.16 89.0162 94.16Z" fill="#E0E0E0"/>
<path d="M102.248 107.456C102.271 107.279 102.312 107.105 102.368 106.936C102.48 106.568 102.608 106.136 102.768 105.544C103.104 104.36 103.568 102.728 103.992 100.912C104.416 99.096 104.792 97.44 105.008 96.232C105.128 95.672 105.216 95.192 105.296 94.808C105.317 94.6301 105.36 94.4555 105.424 94.288C105.431 94.4676 105.417 94.6474 105.384 94.824C105.336 95.168 105.272 95.624 105.168 96.264C104.968 97.472 104.656 99.144 104.216 100.968C103.776 102.792 103.296 104.416 102.92 105.592C102.728 106.176 102.576 106.64 102.456 106.968C102.407 107.139 102.337 107.302 102.248 107.456Z" fill="#E0E0E0"/>
<path d="M90.0161 110.4C90.1622 110.323 90.3184 110.266 90.4801 110.232L91.7761 109.872C92.8721 109.568 94.3841 109.176 96.0641 108.752C97.7441 108.328 99.2641 107.952 100.368 107.696L101.672 107.4C101.832 107.36 101.996 107.333 102.16 107.32C102.013 107.395 101.857 107.451 101.696 107.488L100.408 107.848C99.3121 108.152 97.7921 108.544 96.1201 108.968C94.4481 109.392 92.9201 109.768 91.8161 110.024L90.5041 110.32C90.344 110.361 90.1808 110.387 90.0161 110.4Z" fill="#E0E0E0"/>
<path d="M100.208 123.616C100.401 123.529 100.602 123.462 100.808 123.416L102.464 122.944C103.864 122.552 105.8 122.032 107.944 121.464C110.088 120.896 112.032 120.4 113.448 120.048L115.12 119.648C115.322 119.591 115.528 119.551 115.736 119.528C115.546 119.617 115.348 119.686 115.144 119.736L113.488 120.208C112.088 120.592 110.144 121.12 108 121.68C105.856 122.24 103.912 122.744 102.504 123.096L100.832 123.496C100.629 123.559 100.42 123.599 100.208 123.616Z" fill="#E0E0E0"/>
<path d="M115.344 119.52C115.369 119.295 115.414 119.073 115.48 118.856C115.592 118.4 115.736 117.792 115.92 117.072C116.288 115.56 116.792 113.472 117.28 111.152C117.768 108.832 118.168 106.712 118.44 105.184C118.576 104.448 118.688 103.84 118.768 103.368C118.799 103.143 118.847 102.921 118.912 102.704C118.912 102.932 118.893 103.159 118.856 103.384C118.8 103.816 118.72 104.44 118.6 105.208C118.368 106.752 118 108.872 117.504 111.192C117.008 113.512 116.48 115.608 116.072 117.112C115.864 117.864 115.688 118.464 115.56 118.88C115.502 119.098 115.43 119.311 115.344 119.52Z" fill="#E0E0E0"/>
<path d="M284.224 111.504C273.6 102.2 272.56 86.96 274.464 73.6C274.784 71.36 274.792 68.968 276.064 67.112C277.336 65.256 279.976 64.184 281.888 65.344C283.488 66.312 283.984 68.328 284.744 70.032C285.756 72.3077 287.393 74.2496 289.464 75.632C290.816 76.528 292.536 77.168 294.032 76.544C296.08 75.688 296.592 73.04 296.824 70.8C297.246 66.64 297.667 62.4773 298.088 58.312C298.193 56.0668 298.663 53.8538 299.48 51.76C300.4 49.712 302.144 47.912 304.336 47.544C306.528 47.176 309.016 48.688 309.224 50.92C309.215 51.8524 309.137 52.7829 308.992 53.704C308.918 54.1719 308.986 54.6514 309.189 55.0796C309.392 55.5079 309.719 55.8649 310.128 56.104C310.992 56.464 311.952 55.928 312.688 55.304C315.232 53.296 317.112 50.56 318.888 47.832C320.664 45.104 322.4 42.264 324.8 40C327.2 37.736 330.256 36.136 333.472 36.296C336.688 36.456 339.872 38.8 340.352 42.024C340.832 45.248 338.64 48.256 336.352 50.584C332.981 54.0517 329.128 57.0154 324.912 59.384C324.104 59.7234 323.426 60.312 322.976 61.064C322.328 62.496 323.584 64.128 325 64.776C326.6 65.504 328.424 65.528 330.144 65.92C331.864 66.312 333.664 67.288 334.144 69C334.816 71.4 332.648 73.568 330.6 74.928C326.503 77.6638 321.964 79.6719 317.184 80.864C315.48 81.288 313.696 81.664 312.248 82.64C310.8 83.616 309.76 85.6 310.4 87.2C311.04 88.8 313.032 89.6 314.784 89.456C316.536 89.312 318.184 88.552 319.888 88.112C323.088 87.312 327.016 87.92 328.688 90.784C329.19 91.7607 329.459 92.8405 329.473 93.9386C329.487 95.0367 329.245 96.123 328.768 97.112C327.794 99.0801 326.433 100.832 324.768 102.264C319.275 107.579 312.47 111.342 305.048 113.168C297.672 114.864 291.008 114.824 284.208 111.48" fill="#F5F5F5"/>
<path d="M288.608 103.448C291.631 96.3653 295.055 89.4608 298.864 82.768C299.872 80.984 300.856 79.224 301.832 77.488C302.808 75.752 303.784 74.04 304.832 72.416C306.862 69.3096 309.06 66.3158 311.416 63.448C313.648 60.696 315.864 58.168 317.952 55.816C320.04 53.464 322.048 51.32 323.952 49.416C326.931 46.434 330.141 43.6922 333.552 41.216C334.76 40.336 335.72 39.688 336.376 39.256L337.128 38.768C337.21 38.7078 337.299 38.6569 337.392 38.616C337.317 38.6862 337.237 38.7504 337.152 38.808L336.424 39.328C335.784 39.776 334.824 40.448 333.648 41.344C330.274 43.8647 327.092 46.6323 324.128 49.624C322.248 51.52 320.264 53.672 318.184 56.024C316.104 58.376 313.904 60.92 311.688 63.672C309.343 66.5284 307.161 69.5144 305.152 72.616C304.104 74.216 303.144 75.928 302.168 77.664L299.2 82.944C295.397 89.6221 291.97 96.5075 288.936 103.568" fill="#E0E0E0"/>
<path d="M304.952 72.416C304.884 72.0949 304.847 71.7681 304.84 71.44C304.784 70.808 304.744 69.896 304.704 68.768C304.632 66.512 304.632 63.392 304.648 59.968C304.664 56.544 304.648 53.416 304.512 51.168C304.456 50.04 304.408 49.128 304.36 48.504C304.32 48.1772 304.32 47.8468 304.36 47.52C304.45 47.8363 304.508 48.1604 304.536 48.488C304.632 49.112 304.728 50.024 304.816 51.144C305 53.4 305.088 56.52 305.072 59.944C305.056 63.368 305.032 66.408 305.016 68.744V71.416C305.036 71.7507 305.015 72.0866 304.952 72.416Z" fill="#E0E0E0"/>
<path d="M334.232 70.144C333.846 70.1764 333.458 70.1764 333.072 70.144C332.328 70.144 331.248 70.144 329.92 70.144C327.264 70.144 323.592 70.272 319.52 70.592C315.448 70.912 311.824 71.392 309.192 71.776C307.872 71.968 306.792 72.152 306.08 72.272C305.701 72.3576 305.316 72.4111 304.928 72.432C305.29 72.2874 305.665 72.1802 306.048 72.112C306.776 71.944 307.832 71.712 309.144 71.48C311.776 71.008 315.432 70.504 319.488 70.176C322.947 69.8915 326.418 69.782 329.888 69.848C331.216 69.848 332.288 69.944 333.04 70.008C333.441 70.0136 333.84 70.0591 334.232 70.144Z" fill="#E0E0E0"/>
<path d="M289.016 102.952C288.945 102.838 288.892 102.714 288.856 102.584L288.48 101.496C288.152 100.544 287.68 99.16 287.208 97.44C286.176 94 284.904 89.208 283.568 83.904C282.232 78.6 281.008 73.8 280.048 70.344L278.904 66.256C278.784 65.816 278.68 65.456 278.6 65.144C278.555 65.0151 278.528 64.8804 278.52 64.744C278.583 64.865 278.636 64.9907 278.68 65.12C278.776 65.416 278.904 65.776 279.056 66.208C279.384 67.16 279.816 68.544 280.328 70.264C281.36 73.696 282.632 78.488 283.968 83.8C285.304 89.112 286.528 93.904 287.488 97.4L288.632 101.488C288.752 101.928 288.856 102.288 288.936 102.6C288.977 102.714 289.004 102.832 289.016 102.952Z" fill="#E0E0E0"/>
<path d="M328.472 94.776C328.349 94.8364 328.216 94.8743 328.08 94.888L326.936 95.144L322.704 96.024C319.136 96.776 314.224 97.856 308.792 99.072C303.36 100.288 298.392 101.32 294.84 101.992C293.048 102.336 291.592 102.592 290.584 102.792L289.424 102.96C289.289 102.983 289.151 102.983 289.016 102.96C289.144 102.912 289.275 102.875 289.408 102.848L290.56 102.6L294.784 101.712C298.352 100.968 303.272 99.88 308.704 98.672C314.136 97.464 319.064 96.416 322.648 95.744C324.44 95.408 325.896 95.152 326.904 94.992L328.064 94.816C328.198 94.7852 328.335 94.7718 328.472 94.776Z" fill="#E0E0E0"/>
<path d="M378.696 372.656C378.696 372.776 298.696 372.872 200.008 372.872C101.32 372.872 21.3042 372.8 21.3042 372.656C21.3042 372.512 101.304 372.448 200.008 372.448C298.712 372.448 378.696 372.544 378.696 372.656Z" fill="#263238"/>
<path d="M252.56 178.768C252.997 171.36 253.44 163.952 253.888 156.544C253.944 155.648 254.08 154.616 254.848 154.144C255.222 153.996 255.625 153.934 256.026 153.962C256.427 153.99 256.818 154.106 257.168 154.304C270.304 159.592 279.944 174.248 281.096 188.352" fill="#FFD700"/>
<g opacity="0.3">
<path d="M257.024 161.824C260.101 163.84 262.67 166.541 264.53 169.715C266.389 172.889 267.49 176.45 267.744 180.12C267.89 181.007 267.702 181.916 267.216 182.672C266.967 182.943 266.664 183.159 266.326 183.307C265.989 183.454 265.624 183.529 265.256 183.528C264.519 183.52 263.786 183.407 263.08 183.192C261.312 182.736 259.448 182.24 258.136 180.96C256.937 179.689 256.25 178.019 256.208 176.272C256.176 174.54 256.354 172.81 256.736 171.12L258.976 174.944L256.576 162.56C256.538 162.451 256.525 162.336 256.536 162.221C256.547 162.106 256.582 161.996 256.64 161.896C256.776 161.72 257.16 161.784 257.136 162.008" fill="white"/>
</g>
<path d="M176.408 194.544C169.553 186.405 165.611 176.21 165.208 165.576L172.528 169.024L170.696 166.792C181.378 167.682 191.29 172.709 198.32 180.8" fill="#FFD700"/>
<g opacity="0.3">
<path d="M180.464 191.312C177.589 189.223 175.174 186.566 173.367 183.505C171.56 180.445 170.401 177.046 169.96 173.52C169.904 173.04 169.96 172.408 170.408 172.248C170.575 172.219 170.747 172.227 170.91 172.273C171.074 172.319 171.225 172.4 171.352 172.512L184.56 181.144C183.987 180.32 183.629 179.366 183.52 178.368L189.12 182.472C189.333 182.59 189.52 182.749 189.671 182.94C189.822 183.131 189.934 183.35 190 183.584C190.003 183.847 189.943 184.107 189.825 184.343C189.706 184.578 189.533 184.781 189.32 184.936C188.387 185.778 187.252 186.364 186.025 186.636C184.798 186.908 183.522 186.857 182.32 186.488L184.72 188.576C184.006 189.038 183.205 189.35 182.366 189.495C181.527 189.639 180.668 189.612 179.84 189.416C179.759 189.811 179.798 190.22 179.952 190.592C180.106 190.965 180.368 191.282 180.704 191.504" fill="white"/>
</g>
<path d="M325.6 264.36C325.6 264.36 335.84 274.944 340.496 274.064C340.496 274.064 324.32 256.856 317.52 240.976C314.272 233.466 310.403 226.241 305.952 219.376C309.016 214.096 311.744 208.12 312.992 202.08C309.553 206.069 305.632 209.616 301.32 212.64C300.968 212.144 300.608 211.656 300.24 211.16C303.858 207.886 306.27 203.491 307.088 198.68L290.92 197.984C291.426 197.255 291.883 196.494 292.288 195.704C284.346 188.877 275.453 183.242 265.888 178.976C247.288 168.392 205.888 164.896 185.728 182.104C167.672 192.632 162.832 206.104 148.608 209.44L140.176 208.52C140.176 208.52 136.896 226.12 147.672 233.984L139.672 232.128C139.672 232.128 141.144 239.136 149.016 246.864L144.104 246.264C144.104 246.264 146.232 257.288 153.032 259.936C153.032 259.936 142.408 261.264 139.432 257.288C139.432 257.288 135.896 273.768 151.984 279.984C151.984 279.984 103.776 285.632 117.328 344.648C120.528 358.432 139.528 368.352 161.408 373.144L319.008 372.528C328.608 369.392 340.064 337.584 340.488 324.792C340.912 312 334.544 287.288 334.544 287.288L340.512 295.232L325.6 264.36Z" fill="#FFD700"/>
<path d="M145.472 288.952C136.424 288.408 127.536 295.44 125.992 304.376C131.879 300.471 138.601 298.005 145.616 297.176C142.853 299.717 140.928 303.038 140.095 306.698C139.262 310.359 139.561 314.186 140.952 317.672C142.118 314.556 143.905 311.709 146.205 309.304C148.504 306.898 151.268 304.985 154.328 303.68C152.238 306.202 150.833 309.22 150.25 312.443C149.667 315.667 149.925 318.986 151 322.08" fill="#FFD700"/>
<path d="M151 322.096C150.946 321.991 150.903 321.881 150.872 321.768C150.8 321.552 150.672 321.232 150.544 320.808C150.192 319.549 149.972 318.257 149.888 316.952C149.765 314.89 149.973 312.821 150.504 310.824C151.199 308.183 152.463 305.725 154.208 303.624L154.392 303.872C151.361 305.181 148.625 307.088 146.348 309.478C144.07 311.868 142.298 314.693 141.136 317.784L140.96 318.264L140.768 317.792C139.801 315.358 139.354 312.748 139.454 310.13C139.555 307.513 140.201 304.945 141.352 302.592C142.366 300.514 143.767 298.649 145.48 297.096L145.64 297.456C138.659 298.28 131.965 300.717 126.088 304.576L125.736 304.808L125.816 304.392C126.172 302.461 126.848 300.604 127.816 298.896C128.675 297.349 129.752 295.934 131.016 294.696C133.035 292.653 135.476 291.074 138.168 290.072C139.89 289.427 141.7 289.05 143.536 288.952C144.176 288.952 144.664 288.952 144.984 288.952C144.656 288.952 144.184 288.952 143.544 288.952C141.727 289.091 139.939 289.498 138.24 290.16C135.594 291.178 133.2 292.758 131.224 294.792C129.993 296.02 128.945 297.418 128.112 298.944C127.174 300.625 126.52 302.45 126.176 304.344L125.896 304.16C131.812 300.255 138.56 297.789 145.6 296.96L146.248 296.888L145.76 297.32C144.099 298.84 142.742 300.662 141.76 302.688C140.628 304.992 139.99 307.508 139.888 310.073C139.786 312.639 140.222 315.197 141.168 317.584H140.8C142.067 314.234 144.043 311.196 146.592 308.68C148.811 306.485 151.429 304.733 154.304 303.52L154.912 303.264L154.488 303.768C152.757 305.83 151.493 308.242 150.784 310.84C150.243 312.811 150.014 314.854 150.104 316.896C150.167 318.189 150.36 319.473 150.68 320.728C150.784 321.16 150.896 321.488 150.952 321.704C150.981 321.833 150.997 321.964 151 322.096Z" fill="#263238"/>
<path d="M310.664 313.776C315.548 312.743 320.639 313.423 325.08 315.704C329.522 317.984 333.042 321.725 335.048 326.296" fill="#FFD700"/>
<path d="M335.048 326.296C334.968 326.336 334.352 324.776 332.792 322.608C330.759 319.782 328.084 317.479 324.986 315.889C321.889 314.299 318.458 313.468 314.976 313.464C312.304 313.464 310.672 313.864 310.664 313.776C311.029 313.643 311.407 313.549 311.792 313.496C312.847 313.297 313.918 313.19 314.992 313.176C318.536 313.096 322.044 313.901 325.198 315.519C328.352 317.137 331.053 319.515 333.056 322.44C333.665 323.317 334.2 324.243 334.656 325.208C334.828 325.555 334.959 325.92 335.048 326.296Z" fill="#263238"/>
<g opacity="0.3">
<path d="M255.096 327.072C249.288 328 241.896 332.392 239.2 337.6C238.624 338.712 239.152 338.864 239.2 340.112C239.201 340.741 239.378 341.357 239.712 341.89C240.046 342.424 240.523 342.852 241.088 343.128C241.375 343.244 241.683 343.299 241.992 343.289C242.301 343.279 242.604 343.204 242.883 343.069C243.161 342.934 243.408 342.742 243.607 342.505C243.807 342.269 243.954 341.993 244.04 341.696C243.346 345.959 244.277 350.326 246.648 353.936C248.282 353.015 249.599 351.62 250.424 349.936C250.272 353.061 250.762 356.185 251.862 359.114C252.963 362.043 254.652 364.716 256.824 366.968L253.992 355.92C252.976 351.92 251.992 348.52 252.264 344.416C252.552 340.032 255.16 336.336 257.184 332.704C254.4 333.912 251.176 339.384 248.432 342.72C248.268 339.817 248.765 336.914 249.886 334.231C251.007 331.548 252.723 329.155 254.904 327.232" fill="black"/>
</g>
<path d="M254.008 356.048C253.917 355.899 253.842 355.741 253.784 355.576C253.664 355.256 253.432 354.776 253.24 354.16C252.64 352.364 252.277 350.498 252.16 348.608C251.971 345.731 252.31 342.843 253.16 340.088C254.207 336.586 256.074 333.386 258.608 330.752L258.888 331.04C256.55 333.136 254.33 335.361 252.24 337.704C250.89 339.245 249.697 340.917 248.68 342.696L248.368 343.248L248.296 342.624C247.942 339.325 248.542 335.993 250.024 333.024C251.251 330.508 253.075 328.33 255.336 326.68L255.488 326.952C253.899 327.544 252.441 328.444 251.2 329.6C250.264 330.468 249.456 331.465 248.8 332.56C248.384 333.258 248.026 333.988 247.728 334.744C247.643 335.016 247.541 335.284 247.424 335.544C247.415 335.475 247.415 335.405 247.424 335.336C247.464 335.192 247.512 334.984 247.6 334.72C247.864 333.939 248.204 333.186 248.616 332.472C249.265 331.343 250.073 330.313 251.016 329.416C252.272 328.224 253.751 327.291 255.368 326.672L256.44 326.264L255.512 326.944C253.33 328.588 251.577 330.734 250.4 333.2C248.976 336.107 248.402 339.357 248.744 342.576L248.36 342.496C249.391 340.694 250.597 338.998 251.96 337.432C254.062 335.076 256.298 332.843 258.656 330.744L258.936 331.032C256.44 333.615 254.587 336.751 253.528 340.184C252.669 342.9 252.306 345.748 252.456 348.592C252.549 350.466 252.869 352.323 253.408 354.12C253.584 354.752 253.792 355.216 253.888 355.544C253.939 355.709 253.979 355.878 254.008 356.048Z" fill="#263238"/>
<path d="M159.088 355.2C162.231 358.686 166.365 361.127 170.936 362.192C171.185 362.291 171.455 362.324 171.72 362.288C171.985 362.251 172.236 362.147 172.448 361.984C172.912 361.472 172.528 360.664 172.144 360.096L167.064 352.592C170.681 355.45 174.969 357.334 179.52 358.064C180.28 358.184 181.216 358.184 181.6 357.528C181.71 357.239 181.75 356.929 181.718 356.622C181.686 356.315 181.583 356.02 181.416 355.76C180.616 354.048 179.816 352.36 178.872 350.712" fill="#FFD700"/>
<path d="M178.872 350.68C178.97 350.803 179.053 350.938 179.12 351.08L179.76 352.28C180.048 352.816 180.376 353.456 180.76 354.184C180.963 354.557 181.171 354.957 181.384 355.384C181.65 355.832 181.822 356.331 181.888 356.848C181.91 357.158 181.819 357.465 181.632 357.712C181.427 357.957 181.145 358.126 180.832 358.192C180.214 358.287 179.583 358.257 178.976 358.104C177.654 357.877 176.352 357.548 175.08 357.12C172.135 356.137 169.382 354.651 166.944 352.728L167.248 352.448L168.128 353.752L170.96 357.944L172.312 359.936C172.552 360.278 172.728 360.66 172.832 361.064C172.893 361.287 172.882 361.523 172.8 361.738C172.718 361.954 172.57 362.138 172.376 362.264C172 362.454 171.568 362.5 171.16 362.392C170.784 362.328 170.448 362.216 170.096 362.136C169.4 361.936 168.736 361.728 168.112 361.488C166.944 361.049 165.815 360.514 164.736 359.888C163.172 358.989 161.723 357.9 160.424 356.648C159.968 356.2 159.624 355.848 159.416 355.584C159.296 355.46 159.188 355.323 159.096 355.176C159.236 355.276 159.365 355.392 159.48 355.52C159.712 355.76 160.064 356.104 160.536 356.528C161.864 357.722 163.321 358.763 164.88 359.632C165.955 360.233 167.076 360.747 168.232 361.168C168.856 361.4 169.512 361.6 170.192 361.792C170.872 361.984 171.632 362.248 172.176 361.944C172.303 361.859 172.398 361.735 172.447 361.59C172.497 361.445 172.497 361.289 172.448 361.144C172.354 360.792 172.194 360.461 171.976 360.168C171.536 359.52 171.088 358.856 170.624 358.184C169.707 356.824 168.76 355.427 167.784 353.992L166.904 352.688L166.104 351.568L167.2 352.4C170.65 355.129 174.715 356.975 179.04 357.776C179.603 357.926 180.19 357.964 180.768 357.888C181.012 357.856 181.235 357.732 181.391 357.542C181.547 357.352 181.625 357.109 181.608 356.864C181.553 356.38 181.401 355.912 181.16 355.488C180.952 355.064 180.752 354.688 180.568 354.28L179.632 352.352L179.056 351.12C178.975 350.982 178.913 350.834 178.872 350.68Z" fill="#263238"/>
<g opacity="0.3">
<path d="M178.824 305.424C180.592 308.408 183.18 310.821 186.28 312.376C186.103 310.732 185.421 309.184 184.328 307.944C187.704 311.16 191.704 313.648 196.08 315.256C194.217 316.086 192.183 316.461 190.146 316.35C188.109 316.24 186.128 315.647 184.365 314.62C182.603 313.593 181.109 312.163 180.008 310.446C178.907 308.728 178.23 306.774 178.032 304.744" fill="black"/>
</g>
<g opacity="0.3">
<path d="M157.416 253.288C163.768 265.504 184.312 271.536 200.424 271.8C205.4 271.872 212.424 275.552 217.352 275.072C228.416 274.008 237.4 268.048 248.488 267.072C255.392 266.488 262.336 266.272 269.16 265.112C275.984 263.952 275.672 263.144 281.096 258.832C286.52 254.52 292.384 250.248 292.296 243.32C282.104 255.8 272.032 259.664 256.344 263.32C240.656 266.976 224.344 266.896 208.256 266.152C190.552 265.352 171.968 263.4 157.416 253.28" fill="black"/>
</g>
<path d="M212.072 159.592C212.144 159.592 212.208 160.496 212.448 161.928C212.765 163.792 213.275 165.617 213.968 167.376C214.678 169.131 215.565 170.809 216.616 172.384C217.095 173.011 217.541 173.663 217.952 174.336C217.952 174.336 217.768 174.2 217.488 173.896C217.09 173.472 216.719 173.023 216.376 172.552C215.238 171.004 214.3 169.319 213.584 167.536C212.867 165.74 212.388 163.857 212.16 161.936C212.085 161.36 212.042 160.781 212.032 160.2C212.016 159.996 212.03 159.792 212.072 159.592Z" fill="#FFD700"/>
<path d="M217.296 157.6C217.368 157.6 217.048 158.4 216.736 159.736C216.342 161.461 216.21 163.236 216.344 165C216.489 166.762 216.901 168.491 217.568 170.128C218.08 171.392 218.52 172.12 218.456 172.152C218.392 172.184 218.304 172 218.088 171.68C217.787 171.223 217.52 170.744 217.288 170.248C215.753 166.934 215.455 163.179 216.448 159.664C216.591 159.138 216.775 158.624 217 158.128C217.168 157.744 217.272 157.552 217.296 157.6Z" fill="#FFD700"/>
<path d="M119.384 290.56C119.479 290.445 119.587 290.34 119.704 290.248C119.92 290.056 120.232 289.752 120.672 289.448C121.902 288.471 123.201 287.586 124.56 286.8C129.076 284.241 133.99 282.462 139.096 281.536C144.188 280.609 149.346 280.095 154.52 280C156.504 279.952 158.104 279.936 159.208 279.936H160.488C160.637 279.923 160.787 279.923 160.936 279.936C160.79 279.972 160.639 279.991 160.488 279.992L159.216 280.056L154.528 280.256C149.379 280.42 144.249 280.955 139.176 281.856C134.113 282.781 129.228 284.504 124.704 286.96C123.346 287.724 122.034 288.568 120.776 289.488C119.888 290.2 119.408 290.584 119.384 290.56Z" fill="#FFD700"/>
<path d="M234.064 161.072C234.064 161.144 232.696 160.688 230.472 160.144C229.179 159.826 227.852 159.667 226.52 159.672C224.902 159.683 223.318 160.134 221.936 160.976C221.235 161.413 220.624 161.98 220.136 162.648C219.698 163.279 219.391 163.992 219.232 164.744C219.004 166.047 219.061 167.385 219.4 168.664C219.952 170.872 220.544 172.184 220.464 172.216C220.283 171.933 220.135 171.63 220.024 171.312C219.661 170.475 219.357 169.615 219.112 168.736C218.722 167.418 218.635 166.029 218.856 164.672C219.013 163.863 219.335 163.095 219.8 162.416C220.316 161.698 220.965 161.087 221.712 160.616C223.159 159.739 224.821 159.28 226.512 159.288C227.865 159.301 229.211 159.495 230.512 159.864C231.624 160.16 232.504 160.464 233.112 160.664C233.443 160.768 233.762 160.904 234.064 161.072Z" fill="#FFD700"/>
<path d="M354.088 361.552C353.224 355.808 350.408 350.152 345.6 346.88C340.792 343.608 333.872 343.224 329.296 346.816L310.304 372.496L350.736 372.664C352.992 370.576 354.544 364.592 354.088 361.552Z" fill="#FFD700"/>
<g opacity="0.3">
<path d="M327.2 372.128C330.616 370.704 333.136 367.64 334.688 364.28C336.24 360.92 336.92 357.24 337.6 353.6C338.16 350.584 338.688 347.328 337.376 344.544C337.063 344.527 336.751 344.592 336.47 344.732C336.19 344.873 335.95 345.083 335.776 345.344C335.425 345.875 335.168 346.462 335.016 347.08C331.888 356.952 327.064 365.48 319.184 372.16" fill="black"/>
</g>
<g opacity="0.3">
<path d="M207.104 171.528C211.104 183.056 211.608 195.528 211.176 207.68C210.96 213.744 210.504 219.872 208.608 225.64C206.712 231.408 203.232 236.84 198.064 240.04C193.184 243.056 187.152 243.848 181.456 243.096C175.76 242.344 170.352 240.16 165.224 237.584C159.368 234.64 153.728 231.12 149.184 226.384C144.64 221.648 140.912 215.032 140.16 208.528L148.592 209.448C148.592 209.448 155.08 208.76 165.168 199C176.192 188.344 178.2 187.04 186.456 181.488C192.859 177.254 199.805 173.903 207.104 171.528Z" fill="white"/>
</g>
<g opacity="0.3">
<path d="M241.952 242.584C243.547 241.685 245.392 241.332 247.206 241.579C249.02 241.826 250.704 242.659 252 243.952C253.283 242.275 255.02 240.999 257.004 240.276C258.989 239.553 261.139 239.413 263.2 239.872C260.7 240.855 258.372 242.23 256.304 243.944C254.328 245.76 252.904 248.368 253.152 251.04C250.68 248.377 247.838 246.085 244.712 244.232C243.416 243.432 241.712 242.784 240.496 243.68" fill="black"/>
</g>
<path d="M269.504 332.712C264.86 336.045 261.437 340.81 259.76 346.274C258.082 351.739 258.242 357.603 260.216 362.968" fill="#FFD700"/>
<path d="M260.216 362.968C260.15 362.872 260.099 362.767 260.064 362.656C259.984 362.44 259.848 362.136 259.712 361.72C259.322 360.564 259.025 359.379 258.824 358.176C258.126 354.185 258.381 350.085 259.57 346.211C260.759 342.338 262.847 338.8 265.664 335.888C266.506 335.015 267.418 334.212 268.392 333.488C268.728 333.224 269.016 333.04 269.192 332.912C269.368 332.784 269.488 332.728 269.496 332.744C269.173 333.053 268.834 333.344 268.48 333.616C267.559 334.395 266.688 335.231 265.872 336.12C263.149 339.043 261.125 342.547 259.953 346.366C258.781 350.185 258.49 354.22 259.104 358.168C259.282 359.362 259.536 360.543 259.864 361.704C260.01 362.117 260.127 362.539 260.216 362.968Z" fill="#263238"/>
<path d="M285.416 305.016C288.688 302.504 292.912 299.864 296.616 301.632C297.642 302.194 298.522 302.99 299.185 303.954C299.847 304.918 300.275 306.025 300.432 307.184C300.72 309.505 300.574 311.86 300 314.128C297.314 327.361 291.477 339.751 282.984 350.248C279.904 354.056 275.52 357.912 270.736 356.864C266.272 355.88 263.736 350.776 264 346.208C264.264 341.64 266.568 337.488 268.704 333.408C273.776 323.808 278.704 313.28 285.392 304.984" fill="#FFD700"/>
<path d="M285.416 305.016C285.352 305.121 285.283 305.223 285.208 305.32L284.568 306.176C284 306.928 283.176 308.056 282.168 309.536C279.38 313.755 276.827 318.124 274.52 322.624L269.72 331.936C268.024 335.296 265.888 338.768 264.776 342.832C264.179 344.896 264.066 347.07 264.448 349.184C264.851 351.385 265.94 353.401 267.56 354.944C268.4 355.7 269.405 356.248 270.496 356.544C271.613 356.833 272.782 356.863 273.912 356.632C276.226 356.035 278.337 354.828 280.024 353.136C281.75 351.465 283.322 349.642 284.72 347.688C286.16 345.8 287.456 343.848 288.72 341.912C293.2 334.758 296.59 326.977 298.776 318.824C299.256 317.011 299.667 315.245 300.008 313.528C300.37 311.9 300.534 310.235 300.496 308.568C300.4 305.424 298.752 302.568 296.408 301.616C295.331 301.16 294.146 301.019 292.992 301.208C292.019 301.372 291.072 301.665 290.176 302.08C288.936 302.668 287.75 303.364 286.632 304.16L285.752 304.784C285.56 304.92 285.448 304.984 285.448 304.984L285.728 304.752C285.92 304.592 286.2 304.376 286.584 304.096C287.685 303.264 288.864 302.54 290.104 301.936C291.008 301.495 291.969 301.186 292.96 301.016C294.244 300.779 295.57 300.954 296.749 301.514C297.928 302.074 298.9 302.991 299.528 304.136C300.302 305.483 300.733 306.999 300.784 308.552C300.839 310.242 300.686 311.932 300.328 313.584C299.984 315.312 299.584 317.088 299.112 318.912C296.942 327.103 293.558 334.923 289.072 342.112C287.824 344.064 286.52 346.016 285.072 347.92C283.66 349.896 282.072 351.741 280.328 353.432C278.586 355.176 276.405 356.417 274.016 357.024C272.824 357.266 271.592 357.23 270.416 356.92C269.26 356.601 268.196 356.012 267.312 355.2C265.637 353.596 264.516 351.5 264.112 349.216C263.718 347.043 263.836 344.808 264.456 342.688C265.6 338.544 267.76 335.072 269.456 331.728C271.152 328.384 272.832 325.28 274.32 322.44C276.653 317.944 279.249 313.59 282.096 309.4C283.12 307.928 283.968 306.816 284.552 306.08L285.232 305.28C285.289 305.189 285.351 305.101 285.416 305.016Z" fill="#263238"/>
<g opacity="0.3">
<path d="M285.816 316.424V316.464C286.616 314.208 288.32 313.56 290.152 312.896C291.984 312.232 294.2 312.304 295.672 313.584C297.368 315.056 297.584 317.648 297.128 319.848C297.021 320.625 296.703 321.358 296.208 321.968C295.953 322.264 295.609 322.471 295.228 322.559C294.847 322.647 294.448 322.611 294.088 322.456C293.288 322.016 293.04 320.856 292.192 320.504C291.344 320.152 290.224 320.944 289.2 321.2C288.5 321.335 287.774 321.225 287.146 320.886C286.517 320.548 286.025 320.003 285.752 319.344C285.569 318.877 285.48 318.379 285.491 317.878C285.502 317.376 285.612 316.882 285.816 316.424Z" fill="black"/>
</g>
<g opacity="0.3">
<path d="M289.304 305.16C289.715 305.343 290.058 305.651 290.284 306.04C290.509 306.43 290.606 306.88 290.56 307.328C290.52 308.332 290.301 309.321 289.912 310.248C289.632 311.048 289.16 311.936 288.312 311.968C288.074 311.962 287.842 311.894 287.637 311.772C287.433 311.65 287.263 311.478 287.144 311.272C286.915 310.854 286.786 310.388 286.768 309.912C286.688 308.822 286.858 307.727 287.264 306.712C287.439 306.183 287.768 305.718 288.208 305.376C288.431 305.208 288.702 305.117 288.98 305.117C289.259 305.117 289.53 305.208 289.752 305.376" fill="black"/>
</g>
<g opacity="0.3">
<path d="M298.888 307.128C299.299 307.311 299.642 307.619 299.868 308.008C300.093 308.398 300.19 308.848 300.144 309.296C300.104 310.3 299.884 311.289 299.496 312.216C299.216 313.016 298.736 313.904 297.896 313.936C297.658 313.93 297.426 313.863 297.221 313.741C297.016 313.619 296.847 313.447 296.728 313.24C296.491 312.825 296.362 312.358 296.352 311.88C296.274 310.79 296.441 309.697 296.84 308.68C297.018 308.15 297.35 307.685 297.792 307.344C298.014 307.175 298.285 307.083 298.564 307.083C298.843 307.083 299.115 307.175 299.336 307.344" fill="black"/>
</g>
<g opacity="0.3">
<path d="M294.84 303.464C295.25 303.651 295.591 303.962 295.816 304.352C296.041 304.741 296.139 305.192 296.096 305.64C296.053 306.641 295.833 307.627 295.448 308.552C295.16 309.352 294.688 310.248 293.848 310.272C293.61 310.266 293.378 310.199 293.173 310.077C292.968 309.955 292.799 309.783 292.68 309.576C292.45 309.162 292.323 308.698 292.312 308.224C292.226 307.134 292.393 306.039 292.8 305.024C292.974 304.492 293.307 304.026 293.752 303.688C293.973 303.521 294.243 303.43 294.52 303.43C294.798 303.43 295.067 303.521 295.288 303.688" fill="black"/>
</g>
<g opacity="0.3">
<path d="M291.736 336.168C291.098 341.008 289.781 345.735 287.824 350.208C285.851 354.699 282.834 358.654 279.024 361.744C277.264 363.12 275.2 364.304 272.968 364.36C269.808 364.44 266.928 362.176 265.504 359.352C264.08 356.528 263.904 353.248 264.048 350.096C265.576 352.648 267.296 355.368 270.064 356.496C271.287 356.906 272.585 357.047 273.868 356.909C275.15 356.771 276.388 356.357 277.496 355.696C279.704 354.358 281.635 352.609 283.184 350.544C286.612 346.36 289.429 341.711 291.552 336.736" fill="black"/>
</g>
<path d="M112.56 305.656C108.624 304.448 103.76 303.448 100.864 306.408C100.105 307.298 99.5656 308.354 99.2877 309.49C99.0099 310.626 99.0019 311.812 99.2643 312.952C99.805 315.23 100.765 317.386 102.096 319.312C109.247 330.765 119.048 340.33 130.672 347.2C134.888 349.68 140.344 351.76 144.456 349.096C148.304 346.616 148.88 340.944 147.04 336.76C145.2 332.576 141.6 329.464 138.152 326.4C130.04 319.2 121.736 311.056 112.552 305.6" fill="#FFD700"/>
<path d="M112.56 305.656C112.56 305.656 112.672 305.704 112.888 305.824L113.808 306.368C114.608 306.856 115.8 307.6 117.28 308.616C121.413 311.546 125.369 314.717 129.128 318.112L136.944 325.104C139.704 327.64 142.944 330.136 145.464 333.616C146.79 335.383 147.685 337.435 148.08 339.608C148.491 341.894 148.169 344.252 147.16 346.344C146.613 347.41 145.824 348.333 144.856 349.04C143.862 349.746 142.717 350.212 141.512 350.4C139.052 350.676 136.563 350.278 134.312 349.248C132.08 348.274 129.938 347.105 127.912 345.752C125.896 344.472 123.984 343.096 122.136 341.712C118.63 339.002 115.34 336.022 112.296 332.8C109.528 329.883 106.972 326.771 104.648 323.488C103.568 321.944 102.568 320.416 101.648 318.92C100.732 317.498 99.9928 315.97 99.4484 314.368C98.9533 312.896 98.8269 311.324 99.0804 309.792C99.267 308.5 99.856 307.3 100.764 306.362C101.671 305.425 102.851 304.797 104.136 304.568C105.125 304.385 106.134 304.336 107.136 304.424C108.511 304.562 109.869 304.83 111.192 305.224C111.648 305.352 111.992 305.456 112.216 305.536L112.56 305.664L112.208 305.576L111.168 305.304C109.842 304.951 108.488 304.713 107.12 304.592C106.136 304.52 105.146 304.579 104.176 304.768C103.027 305.001 101.967 305.556 101.12 306.368C99.2564 308.088 98.7204 311.336 99.7284 314.312C100.276 315.886 101.012 317.387 101.92 318.784C102.848 320.272 103.851 321.784 104.928 323.32C109.835 330.188 115.737 336.287 122.44 341.416C124.28 342.8 126.184 344.168 128.192 345.416C130.188 346.756 132.3 347.913 134.504 348.872C136.674 349.87 139.074 350.263 141.448 350.008C142.601 349.833 143.696 349.392 144.648 348.72C145.566 348.055 146.312 347.18 146.824 346.168C147.8 344.157 148.113 341.888 147.72 339.688C147.341 337.573 146.473 335.576 145.184 333.856C142.72 330.432 139.504 327.928 136.744 325.376L128.968 318.344C125.232 314.929 121.308 311.724 117.216 308.744C115.76 307.704 114.592 306.944 113.8 306.432L112.896 305.856L112.56 305.656Z" fill="#263238"/>
<g opacity="0.3">
<path d="M116.192 316.472C114.648 314.64 112.832 314.624 110.88 314.648C108.928 314.672 106.88 315.52 105.952 317.224C104.88 319.208 105.584 321.704 106.752 323.624C107.119 324.316 107.674 324.89 108.352 325.28C108.693 325.471 109.087 325.547 109.475 325.497C109.862 325.446 110.223 325.272 110.504 325C111.104 324.304 110.936 323.144 111.592 322.504C112.248 321.864 113.6 322.224 114.64 322.112C115.344 321.993 115.984 321.635 116.455 321.099C116.926 320.563 117.197 319.881 117.224 319.168C117.246 318.169 116.875 317.201 116.192 316.472Z" fill="black"/>
</g>
<g opacity="0.3">
<path d="M108.968 307.144C108.648 307.462 108.435 307.872 108.36 308.317C108.286 308.762 108.353 309.219 108.552 309.624C108.933 310.547 109.475 311.394 110.152 312.128C110.688 312.76 111.456 313.448 112.24 313.184C112.461 313.095 112.655 312.95 112.804 312.763C112.952 312.577 113.05 312.355 113.088 312.12C113.16 311.65 113.119 311.17 112.968 310.72C112.655 309.668 112.108 308.7 111.368 307.888C111.019 307.45 110.544 307.13 110.008 306.968C109.74 306.894 109.455 306.91 109.197 307.012C108.939 307.115 108.721 307.299 108.576 307.536" fill="black"/>
</g>
<g opacity="0.3">
<path d="M100.688 312.352C100.368 312.668 100.156 313.077 100.081 313.521C100.007 313.965 100.074 314.42 100.272 314.824C100.653 315.747 101.195 316.595 101.872 317.328C102.416 317.96 103.176 318.648 103.968 318.384C104.189 318.293 104.382 318.148 104.53 317.962C104.679 317.776 104.777 317.555 104.816 317.32C104.886 316.85 104.842 316.37 104.688 315.92C104.378 314.866 103.831 313.898 103.088 313.088C102.739 312.65 102.265 312.33 101.728 312.168C101.46 312.094 101.176 312.11 100.917 312.212C100.659 312.315 100.441 312.499 100.296 312.736" fill="black"/>
</g>
<g opacity="0.3">
<path d="M103.2 307.504C102.88 307.82 102.668 308.229 102.593 308.673C102.519 309.117 102.585 309.572 102.784 309.976C103.165 310.899 103.707 311.747 104.384 312.48C104.928 313.112 105.688 313.8 106.48 313.536C106.701 313.446 106.895 313.301 107.043 313.115C107.191 312.928 107.29 312.707 107.328 312.472C107.398 312.002 107.354 311.522 107.2 311.072C106.89 310.018 106.342 309.05 105.6 308.24C105.251 307.802 104.776 307.482 104.24 307.32C103.972 307.246 103.687 307.262 103.429 307.364C103.171 307.467 102.953 307.651 102.808 307.888" fill="black"/>
</g>
<g opacity="0.3">
<path d="M117.6 337.04C119.886 341.341 122.765 345.3 126.152 348.8C129.557 352.323 133.757 354.978 138.4 356.544C140.528 357.224 142.872 357.608 144.984 356.88C147.976 355.848 149.872 352.72 150.216 349.576C150.56 346.432 149.6 343.288 148.336 340.392C147.8 343.32 147.144 346.472 144.936 348.472C143.942 349.286 142.784 349.874 141.541 350.198C140.298 350.521 139 350.571 137.736 350.344C135.199 349.867 132.776 348.909 130.6 347.52C125.928 344.798 121.662 341.432 117.928 337.52" fill="black"/>
</g>
<g opacity="0.3">
<path d="M114.624 332.696C114.392 333.016 114.16 333.344 113.936 333.672C114.924 332.078 116.225 330.702 117.76 329.625C119.295 328.548 121.033 327.794 122.867 327.407C124.702 327.021 126.596 327.01 128.435 327.376C130.274 327.742 132.02 328.478 133.567 329.537C135.114 330.597 136.429 331.959 137.435 333.542C138.441 335.125 139.115 336.895 139.417 338.745C139.719 340.596 139.643 342.488 139.194 344.309C138.744 346.129 137.93 347.839 136.8 349.336C127.807 345.659 119.665 340.172 112.88 333.216" fill="white"/>
</g>
<path d="M340.48 324.8C340.487 324.98 340.473 325.159 340.44 325.336C340.384 325.736 340.312 326.24 340.232 326.872C340.048 328.208 339.736 330.128 339.296 332.472C338.208 338.662 336.569 344.742 334.4 350.64C333.154 353.876 331.648 357.006 329.896 360C329.488 360.688 329.048 361.328 328.648 361.968L328.04 362.904L327.392 363.776L326.16 365.416C325.736 365.92 325.312 366.392 324.912 366.84C324.512 367.288 324.152 367.744 323.752 368.112L322.648 369.176L321.68 370.096L320.8 370.792L319.576 371.752C319.441 371.873 319.291 371.975 319.128 372.056C319.249 371.921 319.38 371.795 319.52 371.68L320.696 370.672L321.544 369.952L322.48 369.008L323.56 367.936C323.952 367.56 324.296 367.096 324.688 366.648L325.904 365.216L327.112 363.568L327.744 362.704C327.944 362.4 328.136 362.088 328.336 361.768C328.736 361.128 329.136 360.488 329.568 359.808C331.272 356.82 332.746 353.707 333.976 350.496C336.144 344.628 337.827 338.591 339.008 332.448C339.48 330.096 339.808 328.184 340.072 326.848C340.184 326.224 340.28 325.72 340.352 325.328C340.382 325.149 340.425 324.973 340.48 324.8Z" fill="#263238"/>
<path d="M156.432 276.272C156.537 276.128 156.661 275.999 156.8 275.888L157.912 274.848C158.4 274.392 159 273.848 159.72 273.248C160.44 272.648 161.24 271.92 162.168 271.184C164 269.672 166.248 267.984 168.816 266.144C171.384 264.304 174.288 262.472 177.424 260.648C180.56 258.824 183.64 257.256 186.472 255.912C189.304 254.568 191.928 253.512 194.152 252.656C195.256 252.216 196.272 251.856 197.16 251.552C198.048 251.248 198.824 250.984 199.456 250.792L200.92 250.344C201.086 250.283 201.257 250.24 201.432 250.216C201.275 250.298 201.112 250.368 200.944 250.424L199.504 250.944C198.88 251.16 198.12 251.432 197.24 251.744C196.36 252.056 195.352 252.44 194.256 252.896C192.056 253.768 189.456 254.896 186.64 256.232C183.824 257.568 180.8 259.2 177.6 260.992C174.4 262.784 171.584 264.672 169 266.448C166.416 268.224 164.2 269.92 162.32 271.4C161.384 272.12 160.568 272.816 159.84 273.416C159.112 274.016 158.488 274.528 157.992 274.968L156.824 275.952C156.706 276.074 156.575 276.181 156.432 276.272Z" fill="#263238"/>
<path d="M133.912 262.912C133.912 262.912 133.96 262.872 134.056 262.8L134.504 262.496L136.264 261.376C137.024 260.888 137.96 260.304 139.08 259.672C140.2 259.04 141.48 258.272 142.888 257.536L145.128 256.344C145.928 255.936 146.728 255.544 147.6 255.128C149.296 254.272 151.168 253.472 153.12 252.6C157.064 250.936 161.464 249.272 166.184 247.8C170.904 246.328 175.488 245.264 179.688 244.432C181.792 244.056 183.792 243.672 185.68 243.424C186.616 243.296 187.528 243.144 188.4 243.048L190.928 242.768C192.528 242.576 193.992 242.496 195.272 242.4C196.552 242.304 197.672 242.248 198.568 242.224L200.648 242.168H201.184C201.248 242.156 201.313 242.156 201.376 242.168H201.192L200.648 242.216L198.576 242.352C197.672 242.4 196.568 242.464 195.296 242.592C194.024 242.72 192.56 242.808 190.96 243.024L188.44 243.328C187.568 243.432 186.664 243.592 185.728 243.728C183.848 243.984 181.856 244.384 179.76 244.768C175.584 245.624 171.016 246.728 166.304 248.16C161.592 249.592 157.208 251.264 153.272 252.904C151.32 253.76 149.448 254.552 147.752 255.392C146.896 255.808 146.056 256.192 145.272 256.584L143.024 257.752C141.584 258.472 140.32 259.208 139.2 259.824C138.08 260.44 137.12 261 136.344 261.464L134.552 262.52L134.08 262.784C133.976 262.896 133.912 262.92 133.912 262.912Z" fill="#263238"/>
<path d="M229.248 236.544C229.296 236.664 227.232 237.536 224.952 239.064C222.672 240.592 221.064 242.152 220.952 242.056C223.137 239.478 226.004 237.568 229.224 236.544H229.248Z" fill="#263238"/>
<path d="M242.784 240.888C242.784 240.968 241.6 240.432 239.64 239.936C237.087 239.269 234.441 239.026 231.808 239.216C229.175 239.326 226.597 240.011 224.256 241.224C223.325 241.785 222.523 242.537 221.904 243.432C221.986 243.141 222.125 242.869 222.312 242.632C222.798 241.968 223.406 241.403 224.104 240.968C225.848 239.824 228.656 239.032 231.776 238.792C234.454 238.598 237.144 238.885 239.72 239.64C240.497 239.857 241.258 240.124 242 240.44C242.277 240.561 242.54 240.711 242.784 240.888Z" fill="#263238"/>
<path d="M216.496 247.56L217.432 249.8C217.709 250.38 217.897 250.997 217.992 251.632C218.037 251.951 218.013 252.276 217.922 252.585C217.831 252.894 217.675 253.18 217.464 253.424C217.104 253.728 216.654 253.906 216.183 253.931C215.712 253.955 215.246 253.825 214.856 253.56C214.098 252.999 213.538 252.212 213.256 251.312C212.92 250.432 212.696 249.504 212.288 248.656C212.807 248.183 213.198 247.587 213.426 246.923C213.654 246.259 213.711 245.548 213.592 244.856C213.592 244.856 214.4 247.416 216.496 247.56Z" fill="#F5F5F5"/>
<path d="M203.432 239.4C204.141 237.973 205.139 236.709 206.364 235.69C207.588 234.671 209.012 233.918 210.544 233.48C215.648 232.136 220.944 237.48 220.944 237.48C220.944 237.48 214.776 235.664 214.864 238.728C214.952 241.792 216.768 241.72 214.72 243.736C212.672 245.752 209.16 243.632 208.32 241.256L206.672 238.936L203.432 239.4Z" fill="#263238"/>
<path d="M224.568 242.4C224.568 242.4 224.568 242.504 224.608 242.688C224.635 242.967 224.635 243.249 224.608 243.528C224.462 244.553 224.048 245.522 223.408 246.336C222.941 246.954 222.354 247.471 221.682 247.856C221.009 248.241 220.266 248.486 219.496 248.576C218.546 248.648 217.593 248.496 216.713 248.13C215.833 247.764 215.051 247.196 214.432 246.472C213.819 245.768 213.388 244.925 213.176 244.016L213.568 243.904C213.809 244.657 213.874 245.455 213.759 246.237C213.644 247.019 213.352 247.764 212.904 248.416C212.299 249.264 211.443 249.899 210.457 250.234C209.471 250.568 208.404 250.585 207.408 250.28C207.198 250.216 206.995 250.133 206.8 250.032C206.672 249.96 206.608 249.92 206.608 249.904C206.608 249.888 206.904 250.016 207.448 250.144C208.217 250.319 209.016 250.319 209.784 250.144C210.937 249.884 211.947 249.195 212.608 248.216C213.012 247.606 213.274 246.914 213.373 246.19C213.473 245.465 213.408 244.728 213.184 244.032L213.576 243.928C213.78 244.769 214.184 245.548 214.752 246.2C215.329 246.876 216.055 247.409 216.873 247.756C217.69 248.103 218.578 248.255 219.464 248.2C220.189 248.121 220.891 247.9 221.529 247.548C222.168 247.197 222.73 246.722 223.184 246.152C223.82 245.385 224.254 244.472 224.448 243.496C224.552 242.824 224.528 242.4 224.568 242.4Z" fill="#263238"/>
<path d="M214.68 234.232C214.151 234.311 213.615 234.335 213.08 234.304C211.786 234.29 210.496 234.457 209.248 234.8C208.015 235.16 206.896 235.832 206 236.752C205.336 237.48 205.096 238.064 205.032 238.04C205.137 237.485 205.398 236.972 205.784 236.56C206.657 235.521 207.822 234.768 209.128 234.4C210.416 234.043 211.755 233.91 213.088 234.008C213.627 233.999 214.164 234.075 214.68 234.232Z" fill="white"/>
<path d="M216.216 254.112C215.444 252.815 214.862 251.414 214.488 249.952C213.988 248.529 213.697 247.042 213.624 245.536C213.744 245.536 214.168 247.472 214.888 249.832C215.608 252.192 216.328 254.064 216.216 254.112Z" fill="#263238"/>
<path d="M159.256 263.08C159.354 262.976 159.461 262.883 159.576 262.8L160.544 262.048C161.344 261.4 162.648 260.512 164.24 259.472C165.832 258.432 167.768 257.264 169.984 256.064C172.2 254.864 174.696 253.664 177.384 252.568C180.072 251.472 182.688 250.576 185.096 249.848C187.504 249.12 189.712 248.592 191.576 248.248C193.44 247.904 194.96 247.608 196.016 247.448L197.232 247.296C197.373 247.28 197.515 247.28 197.656 247.296C197.524 247.353 197.384 247.391 197.24 247.408L196.04 247.632C194.992 247.808 193.488 248.112 191.64 248.528C189.792 248.944 187.64 249.504 185.24 250.232C182.84 250.96 180.248 251.88 177.568 252.968C174.888 254.056 172.416 255.264 170.192 256.424C167.968 257.584 166.032 258.728 164.424 259.736C162.816 260.744 161.544 261.592 160.672 262.2L159.656 262.88C159.392 263.024 159.264 263.096 159.256 263.08Z" fill="#263238"/>
<path d="M199.343 227.838C201.653 218.147 195.67 208.417 185.978 206.106C176.287 203.796 166.557 209.779 164.246 219.471C161.936 229.162 167.919 238.892 177.611 241.203C187.302 243.513 197.032 237.53 199.343 227.838Z" fill="#F5F5F5"/>
<path d="M199.848 223.68C199.848 232.384 193.968 239.448 188.992 239.448C184.016 239.448 180 232.384 180 223.68C180 214.976 184 207.904 189.024 207.904C194.048 207.904 199.848 214.968 199.848 223.68Z" fill="#263238"/>
<path d="M192.992 217.848C194.698 217.848 196.08 216.465 196.08 214.76C196.08 213.055 194.698 211.672 192.992 211.672C191.287 211.672 189.904 213.055 189.904 214.76C189.904 216.465 191.287 217.848 192.992 217.848Z" fill="white"/>
<path d="M185.008 235.136C184.828 234.905 184.678 234.652 184.56 234.384C184.183 233.676 183.86 232.94 183.592 232.184C183.177 231.065 182.854 229.915 182.624 228.744C182.353 227.309 182.203 225.853 182.176 224.392C182.171 222.928 182.292 221.467 182.536 220.024C182.742 218.85 183.041 217.694 183.432 216.568C183.683 215.807 183.99 215.066 184.352 214.352C184.461 214.068 184.606 213.799 184.784 213.552C184.856 213.552 184.304 214.712 183.712 216.632C183.369 217.754 183.101 218.898 182.912 220.056C182.694 221.478 182.587 222.914 182.592 224.352C182.618 225.79 182.755 227.223 183 228.64C183.211 229.798 183.502 230.939 183.872 232.056C184.504 233.992 185.08 235.104 185.008 235.136Z" fill="white"/>
<path d="M177.224 200.704C177.176 201.288 176.504 201.736 175.624 202.152C174.744 202.568 173.552 202.952 172.376 203.488C171.2 204.024 170.168 204.488 169.288 204.888C168.408 205.288 167.688 205.528 167.168 205.216C166.648 204.904 166.584 204.032 167.168 202.872C167.957 201.408 169.242 200.274 170.792 199.672C172.277 199.018 173.934 198.866 175.512 199.24C176.64 199.544 177.272 200.144 177.224 200.704Z" fill="#263238"/>
<path d="M91.1284 354.4L95.1844 348.048C114.496 369.264 178.304 394.496 235.432 337.464C259.968 312.968 257.984 271.576 257.984 271.576L253.104 256.248H257.984C257.984 256.248 272.128 282.336 257.32 316.496C257.32 316.496 242.12 356.984 195.584 371.696C122.176 394.88 91.1284 354.4 91.1284 354.4Z" fill="#FFD700"/>
<g opacity="0.7">
<path d="M91.1284 354.4L95.1844 348.048C114.496 369.264 178.304 394.496 235.432 337.464C259.968 312.968 257.984 271.576 257.984 271.576L253.104 256.248H257.984C257.984 256.248 272.128 282.336 257.32 316.496C257.32 316.496 242.12 356.984 195.584 371.696C122.176 394.88 91.1284 354.4 91.1284 354.4Z" fill="white"/>
</g>
<path d="M90.0342 362.162C103.578 348.619 103.578 326.66 90.0342 313.117C76.4908 299.574 54.5326 299.574 40.9893 313.117C27.4459 326.66 27.4459 348.619 40.9892 362.162C54.5326 375.705 76.4908 375.705 90.0342 362.162Z" fill="#FFD700"/>
<g opacity="0.7">
<path d="M90.0342 362.162C103.578 348.619 103.578 326.66 90.0342 313.117C76.4908 299.574 54.5326 299.574 40.9893 313.117C27.4459 326.66 27.4459 348.619 40.9892 362.162C54.5326 375.705 76.4908 375.705 90.0342 362.162Z" fill="white"/>
</g>
<path d="M73.8243 303.928C73.8056 304.15 73.7655 304.37 73.7043 304.584C73.6083 305.048 73.4643 305.672 73.2963 306.464C73.2003 306.872 73.0963 307.328 72.9843 307.816C72.8723 308.304 72.6963 308.832 72.5363 309.416C72.1923 310.552 71.8643 311.864 71.3363 313.264L70.5363 315.472C70.2643 316.272 69.9203 317.016 69.5923 317.832C68.9683 319.472 68.1363 321.16 67.2963 322.944C65.3716 326.774 63.1739 330.461 60.7203 333.976C58.2162 337.457 55.4651 340.754 52.4883 343.84C51.0723 345.224 49.7603 346.56 48.4163 347.696C47.7603 348.272 47.1363 348.856 46.5043 349.368L44.6723 350.832C43.5283 351.792 42.4003 352.536 41.4723 353.232C40.9843 353.576 40.5443 353.904 40.1203 354.184L38.9443 354.928L37.3443 355.936C37.1618 356.066 36.966 356.176 36.7603 356.264C36.9303 356.119 37.1093 355.986 37.2963 355.864L38.8963 354.792L40.0483 353.992C40.4643 353.696 40.8963 353.36 41.3763 353.016C42.3203 352.304 43.4323 351.536 44.5763 350.568L46.3843 349.096C47.0163 348.576 47.6243 347.992 48.2723 347.408C49.6003 346.264 50.9043 344.92 52.2723 343.536C55.2049 340.458 57.9208 337.181 60.4003 333.728C62.844 330.232 65.0414 326.57 66.9763 322.768C67.8243 320.992 68.6563 319.32 69.2963 317.696C69.6323 316.896 69.9843 316.096 70.2643 315.352C70.5443 314.608 70.8083 313.856 71.0643 313.16C71.6083 311.768 71.9603 310.464 72.3203 309.344C72.4883 308.776 72.6643 308.248 72.8003 307.744C72.9363 307.24 73.0403 306.808 73.1443 306.4C73.3523 305.6 73.5123 305 73.6323 304.544C73.6788 304.334 73.743 304.128 73.8243 303.928Z" fill="#FFD700"/>
<path d="M82.0244 307.464C81.9998 307.7 81.9543 307.932 81.8884 308.16C81.7764 308.648 81.6244 309.304 81.4244 310.136C81.3204 310.568 81.2004 311.048 81.0724 311.568C80.9444 312.088 80.7604 312.64 80.5764 313.24C80.2004 314.432 79.8404 315.824 79.2564 317.288L78.4004 319.616C78.1044 320.416 77.7124 321.216 77.3524 322.096C76.6564 323.816 75.7524 325.584 74.8164 327.448C72.6894 331.454 70.2555 335.29 67.5364 338.92C64.7745 342.512 61.7445 345.89 58.4724 349.024C56.9364 350.44 55.4804 351.8 54.0244 352.952C53.3044 353.536 52.6324 354.136 51.9364 354.64L49.9444 356.12C48.7044 357.088 47.4804 357.84 46.4404 358.52C45.4004 359.2 44.4804 359.784 43.7204 360.224L41.9604 361.248C41.7606 361.375 41.5521 361.487 41.3364 361.584C41.5204 361.433 41.7157 361.297 41.9204 361.176L43.6324 360.088C44.3844 359.624 45.2964 359.056 46.3124 358.328C47.3284 357.6 48.5444 356.84 49.7764 355.864L51.7364 354.4C52.4244 353.888 53.0884 353.28 53.8004 352.696C55.2484 351.536 56.6804 350.176 58.2084 348.76C61.4445 345.615 64.4496 342.241 67.2004 338.664C69.904 335.054 72.3322 331.246 74.4644 327.272C75.4084 325.416 76.3204 323.664 77.0324 321.952C77.3924 321.104 77.8324 320.304 78.0884 319.496C78.3444 318.688 78.6884 317.896 78.9684 317.192C79.5684 315.728 79.9444 314.36 80.3444 313.192C80.5364 312.592 80.7364 312.04 80.8804 311.528C81.0244 311.016 81.1444 310.544 81.2564 310.112C81.4884 309.312 81.6644 308.64 81.8004 308.16C81.8611 307.924 81.9359 307.691 82.0244 307.464Z" fill="#FFD700"/>
<path d="M89.6002 313.696C89.5599 313.93 89.501 314.16 89.4241 314.384C89.2801 314.872 89.0802 315.52 88.8321 316.352C88.7042 316.776 88.5522 317.248 88.4002 317.76C88.2481 318.272 88.0162 318.824 87.8002 319.424C87.3521 320.6 86.8961 321.968 86.2001 323.424L85.2161 325.72C84.8721 326.52 84.4562 327.32 84.0481 328.168C83.2481 329.864 82.2722 331.608 81.2642 333.456C78.9883 337.405 76.4464 341.196 73.6562 344.8C70.7985 348.367 67.6978 351.732 64.3762 354.872C62.7762 356.288 61.3521 357.648 59.8721 358.808C59.1441 359.392 58.4641 359.984 57.7601 360.504L55.7522 361.992C54.4882 362.96 53.2641 363.72 52.2161 364.392C51.6881 364.736 51.2002 365.072 50.7362 365.352L49.4642 366.104L47.6882 367.128C47.4852 367.254 47.274 367.366 47.0562 367.464C47.2423 367.312 47.4402 367.176 47.6482 367.056L49.3762 365.968L50.6322 365.168C51.0882 364.88 51.5682 364.536 52.0882 364.184C53.1202 363.456 54.3282 362.688 55.5762 361.704C56.2162 361.224 56.8802 360.728 57.5682 360.2C58.2562 359.672 58.9282 359.08 59.6562 358.488C61.1122 357.328 62.5682 355.96 64.1122 354.552C67.4024 351.407 70.4811 348.047 73.3282 344.496C76.1293 340.912 78.6896 337.147 80.9921 333.224C82.0081 331.384 83.0082 329.664 83.8082 327.976C84.2162 327.176 84.6082 326.376 84.9921 325.576C85.3761 324.776 85.6721 324.016 85.9921 323.296C86.6642 321.856 87.1362 320.496 87.5921 319.296C87.8242 318.712 88.0401 318.168 88.2241 317.656C88.4081 317.144 88.5522 316.68 88.6962 316.256C88.9762 315.456 89.2001 314.8 89.3601 314.32C89.4255 314.107 89.5057 313.898 89.6002 313.696Z" fill="#FFD700"/>
<path d="M98.6962 346.6C98.4163 346.53 98.1472 346.422 97.8962 346.28C97.4162 346.056 96.7202 345.704 95.8722 345.264C94.1762 344.384 91.8722 343.104 89.3522 341.6C86.8322 340.096 84.6402 338.648 83.0642 337.56C82.2642 337.016 81.6482 336.568 81.2162 336.24C80.9824 336.09 80.7675 335.913 80.5762 335.712C80.838 335.813 81.0854 335.947 81.3122 336.112L83.2242 337.312C84.8242 338.336 87.0722 339.712 89.5682 341.24C92.0642 342.768 94.3682 344.064 96.0162 345.008L97.9762 346.136C98.2376 346.255 98.4801 346.411 98.6962 346.6Z" fill="#FFD700"/>
<path d="M100.16 339.096C99.3535 338.642 98.5784 338.134 97.8402 337.576C96.4242 336.608 94.4562 335.296 92.2402 333.936C90.0242 332.576 87.9362 331.44 86.4322 330.608C85.5999 330.196 84.7978 329.726 84.0322 329.2C84.2787 329.256 84.5158 329.348 84.7362 329.472C85.1762 329.664 85.8002 329.96 86.5682 330.344C88.1042 331.144 90.2082 332.224 92.4562 333.584C94.7042 334.944 96.6482 336.304 98.0562 337.336C98.7442 337.856 99.2962 338.28 99.6562 338.592C100.016 338.904 100.184 339.08 100.16 339.096Z" fill="#FFD700"/>
<path d="M78.7921 368.96C78.6721 368.96 78.4001 362.608 78.1841 354.76C77.9681 346.912 77.8801 340.544 77.9921 340.544C78.1041 340.544 78.3761 346.896 78.6001 354.744C78.8241 362.592 78.9041 368.96 78.7921 368.96Z" fill="#FFD700"/>
<path d="M61.6962 372.936C61.4854 370.294 61.4159 367.642 61.4882 364.992C61.4158 362.342 61.4852 359.69 61.6962 357.048C61.9023 359.691 61.9718 362.342 61.9042 364.992C61.9715 367.642 61.9021 370.293 61.6962 372.936Z" fill="#FFD700"/>
<path d="M70.0963 372C69.9843 372 69.9203 366.8 69.9683 360.392C70.0163 353.984 70.1363 348.776 70.2563 348.776C70.3763 348.776 70.4243 353.976 70.3843 360.392C70.3443 366.808 70.2083 372 70.0963 372Z" fill="#FFD700"/>
<path d="M52.368 343.832C52.304 343.928 47.776 341.008 42.264 337.304C36.752 333.6 32.32 330.52 32.384 330.4C32.448 330.28 36.976 333.224 42.496 336.928C48.016 340.632 52.432 343.736 52.368 343.832Z" fill="#FFD700"/>
<path d="M46.3283 348.8C46.0883 348.763 45.8559 348.688 45.6403 348.576C45.2163 348.408 44.6003 348.136 43.8563 347.776C41.9337 346.837 40.0642 345.792 38.2563 344.648C36.1283 343.304 34.2563 341.968 32.9603 340.976C32.2251 340.474 31.5369 339.906 30.9043 339.28C31.6808 339.714 32.4266 340.2 33.1363 340.736C34.4883 341.672 36.3363 342.96 38.4803 344.296C40.6243 345.632 42.5763 346.736 44.0243 347.496C44.8172 347.885 45.5865 348.321 46.3283 348.8Z" fill="#FFD700"/>
<path d="M67.1444 322.88C66.753 323.069 66.3462 323.224 65.9284 323.344C65.4462 323.522 64.9549 323.674 64.4564 323.8C63.8804 323.96 63.2244 324.144 62.4884 324.296C60.7623 324.669 59.015 324.936 57.2564 325.096C55.1021 325.288 52.9385 325.354 50.7764 325.296C48.6148 325.218 46.4594 325.018 44.3204 324.696C42.5755 324.427 40.8473 324.058 39.1444 323.592C38.4164 323.408 37.7684 323.2 37.2004 323.016C36.6324 322.832 36.1364 322.664 35.7524 322.504C35.3357 322.369 34.9315 322.197 34.5444 321.992C34.9722 322.078 35.3923 322.198 35.8004 322.352C36.2004 322.488 36.6884 322.64 37.2644 322.792C37.8404 322.944 38.4884 323.144 39.2164 323.312C40.6724 323.688 42.4164 324.008 44.3764 324.32C46.4989 324.615 48.635 324.802 50.7764 324.88C52.9112 324.935 55.0475 324.879 57.1764 324.712C58.9294 324.57 60.6733 324.332 62.4004 324C63.1444 323.872 63.8004 323.704 64.3764 323.568C64.9524 323.432 65.4564 323.304 65.8564 323.184C66.2747 323.041 66.7061 322.939 67.1444 322.88Z" fill="#FFD700"/>
<path d="M70.9761 313.904C70.5994 314.117 70.2061 314.299 69.8001 314.448C69.4161 314.624 68.9361 314.8 68.3761 315C67.8161 315.2 67.1761 315.432 66.4641 315.64C64.7847 316.155 63.0781 316.577 61.3521 316.904C59.2356 317.291 57.0988 317.558 54.9521 317.704C52.8047 317.831 50.6516 317.831 48.5041 317.704C46.7521 317.591 45.0095 317.361 43.2881 317.016C42.5441 316.888 41.8881 316.712 41.3121 316.56C40.8194 316.439 40.3334 316.292 39.8561 316.12C39.439 315.998 39.0324 315.843 38.6401 315.656C39.0706 315.719 39.4939 315.823 39.9041 315.968C40.2961 316.088 40.7921 316.208 41.3681 316.328C41.9441 316.448 42.6001 316.616 43.3361 316.728C45.054 317.025 46.7876 317.222 48.5281 317.32C50.6609 317.416 52.7974 317.398 54.9281 317.264C57.0575 317.104 59.1775 316.837 61.2801 316.464C63.2081 316.088 64.9441 315.712 66.3681 315.296C67.0881 315.104 67.7281 314.896 68.2961 314.712C68.8641 314.528 69.3441 314.384 69.7361 314.232C70.1384 314.084 70.5535 313.975 70.9761 313.904Z" fill="#FFD700"/>
<path d="M73.3442 306C73.0103 306.187 72.656 306.334 72.2882 306.44C71.6002 306.704 70.5842 307.048 69.3282 307.432C66.0396 308.445 62.6776 309.202 59.2722 309.696C55.8641 310.194 52.4187 310.389 48.9762 310.28C47.6562 310.224 46.5762 310.144 45.8562 310.056C45.4727 310.034 45.0923 309.975 44.7202 309.88C45.1034 309.845 45.489 309.845 45.8722 309.88C46.6002 309.92 47.6642 309.952 48.9842 309.968C52.4018 309.997 55.8167 309.77 59.2002 309.288C62.5881 308.786 65.9413 308.072 69.2402 307.152C70.5042 306.8 71.5282 306.504 72.2322 306.288C72.5942 306.161 72.9661 306.065 73.3442 306Z" fill="#FFD700"/>
<path d="M87.3603 340.12C85.9865 341.929 84.5038 343.652 82.9203 345.28C81.4385 347.003 79.8543 348.635 78.1763 350.168C79.551 348.358 81.0337 346.632 82.6163 345C84.0968 343.278 85.681 341.649 87.3603 340.12Z" fill="#FFD700"/>
<path d="M94.016 344.056C93.9297 344.296 93.8084 344.523 93.656 344.728C93.4 345.152 93 345.736 92.48 346.448C89.7498 350.145 86.2613 353.216 82.248 355.456C81.448 355.88 80.848 356.2 80.4 356.4C80.1765 356.523 79.9368 356.615 79.688 356.672C79.688 356.616 80.616 356.112 82.088 355.2C84.0188 354.019 85.8489 352.681 87.56 351.2C89.2517 349.693 90.8145 348.047 92.232 346.28C93.344 344.904 93.96 344 94.016 344.056Z" fill="#FFD700"/>
<path d="M96.0402 347.608C95.8923 349.181 95.4165 350.705 94.6435 352.083C93.8705 353.461 92.8175 354.662 91.5522 355.608C92.5574 354.434 93.472 353.185 94.2882 351.872C94.9763 350.496 95.5619 349.07 96.0402 347.608Z" fill="#FFD700"/>
<path d="M102.752 354.96C102.51 356.248 101.921 357.446 101.048 358.424C100.282 359.488 99.2348 360.319 98.0244 360.824C98.9812 359.994 99.8843 359.104 100.728 358.16C101.464 357.133 102.14 356.065 102.752 354.96Z" fill="#FFD700"/>
<path d="M113.6 361.6C113.638 362.982 113.277 364.346 112.56 365.528C111.96 366.774 111.006 367.815 109.816 368.52C110.711 367.528 111.514 366.457 112.216 365.32C112.786 364.123 113.249 362.878 113.6 361.6Z" fill="#FFD700"/>
<path d="M126.024 367.568C126.321 368.867 126.183 370.227 125.632 371.44C125.208 372.699 124.389 373.788 123.296 374.544C124.965 372.592 125.926 370.134 126.024 367.568Z" fill="#FFD700"/>
<path d="M137.496 377.8C137.376 377.76 137.856 376.2 137.968 374.248C138.08 372.296 137.8 370.688 137.92 370.664C138.686 373.011 138.534 375.56 137.496 377.8Z" fill="#FFD700"/>
<path d="M146.896 378.488C146.784 378.44 147.36 377.048 147.512 375.232C147.664 373.416 147.352 371.952 147.512 371.928C147.908 372.996 148.061 374.139 147.96 375.274C147.859 376.409 147.506 377.506 146.928 378.488H146.896Z" fill="#FFD700"/>
<path d="M160.048 378.4C159.928 378.4 160.12 377.032 159.904 375.392C159.688 373.752 159.176 372.496 159.288 372.448C159.896 373.298 160.253 374.301 160.32 375.344C160.521 376.368 160.426 377.428 160.048 378.4Z" fill="#FFD700"/>
<path d="M169.136 377.6C169.008 377.6 169.008 376.312 168.576 374.816C168.144 373.32 167.496 372.208 167.6 372.144C168.24 372.885 168.71 373.758 168.975 374.701C169.241 375.644 169.296 376.634 169.136 377.6Z" fill="#FFD700"/>
<path d="M179.8 375.256C179.672 375.256 179.736 374 179.264 372.568C178.792 371.136 178.032 370.168 178.136 370.072C178.845 370.713 179.372 371.53 179.664 372.44C179.957 373.351 180.003 374.322 179.8 375.256Z" fill="#FFD700"/>
<path d="M192.928 372.584C192.8 372.584 192.784 371.184 192.2 369.592C191.616 368 190.736 366.912 190.832 366.832C191.623 367.548 192.227 368.446 192.593 369.449C192.958 370.451 193.073 371.527 192.928 372.584Z" fill="#FFD700"/>
<path d="M204 368.264C203.88 368.264 203.44 366.848 202.496 365.264C201.552 363.68 200.504 362.592 200.592 362.504C202.423 363.917 203.643 365.979 204 368.264Z" fill="#FFD700"/>
<path d="M216.376 361.776C216.256 361.776 215.88 360.272 214.872 358.656C213.864 357.04 212.68 356.016 212.76 355.92C213.758 356.568 214.6 357.429 215.226 358.442C215.851 359.455 216.244 360.593 216.376 361.776Z" fill="#FFD700"/>
<path d="M228.464 353.112C227.937 352.179 227.347 351.284 226.696 350.432C225.948 349.666 225.146 348.955 224.296 348.304C225.384 348.609 226.342 349.26 227.024 350.16C227.808 350.964 228.313 351.999 228.464 353.112Z" fill="#FFD700"/>
<path d="M238.816 344.272C238.712 344.344 237.752 343.056 236.296 341.744C234.84 340.432 233.48 339.576 233.544 339.464C234.687 339.889 235.722 340.561 236.576 341.432C237.521 342.204 238.285 343.174 238.816 344.272Z" fill="#FFD700"/>
<path d="M248.088 332.744C247.984 332.808 247.184 331.512 245.776 330.344C244.368 329.176 242.968 328.584 243.016 328.464C244.13 328.75 245.165 329.284 246.044 330.027C246.922 330.769 247.621 331.701 248.088 332.752V332.744Z" fill="#FFD700"/>
<path d="M256.352 319.024C255.418 318.277 254.443 317.583 253.432 316.944C252.354 316.432 251.248 315.981 250.12 315.592C251.361 315.585 252.578 315.929 253.632 316.584C254.754 317.12 255.698 317.967 256.352 319.024Z" fill="#FFD700"/>
<path d="M261.376 304.2C259.216 302.947 256.733 302.363 254.24 302.52C255.474 302.162 256.779 302.129 258.029 302.424C259.279 302.718 260.432 303.33 261.376 304.2Z" fill="#FFD700"/>
<path d="M263.608 288.28C263.568 288.4 262.264 287.944 260.592 287.768C258.92 287.592 257.552 287.768 257.536 287.608C259.571 287.034 261.749 287.275 263.608 288.28Z" fill="#FFD700"/>
<path d="M262.784 272.336C262.031 272.432 261.271 272.464 260.512 272.432C259.762 272.529 259.004 272.566 258.248 272.544C259.681 271.912 261.299 271.838 262.784 272.336Z" fill="#FFD700"/>
<path d="M259.52 261.384C258.731 261.22 257.926 261.147 257.12 261.168C256.339 261.32 255.577 261.559 254.848 261.88C254.848 261.84 254.992 261.608 255.376 261.352C255.887 261.022 256.468 260.817 257.072 260.752C257.676 260.684 258.288 260.761 258.856 260.976C259.32 261.144 259.544 261.336 259.52 261.384Z" fill="#FFD700"/>
<g opacity="0.3">
<path d="M205.264 315.2C209.144 322.568 218.192 326.352 226.464 325.344C234.736 324.336 242.104 319.192 247.264 312.632C251.064 307.784 253.88 301.504 252.312 295.552C248.208 304.083 241.03 310.746 232.217 314.203C223.404 317.66 213.61 317.656 204.8 314.192" fill="black"/>
</g>
<path d="M253.68 251.8C251.821 248.935 251.14 245.464 251.778 242.109C252.416 238.754 254.324 235.775 257.104 233.792C259.312 232.192 261.976 231.336 264.064 229.608C265.341 228.488 266.381 227.124 267.123 225.596C267.865 224.069 268.294 222.408 268.384 220.712C268.538 217.309 267.784 213.927 266.2 210.912L268.424 209.816L268.616 210.056C270.093 211.995 271.121 214.237 271.627 216.622C272.133 219.006 272.105 221.472 271.543 223.844C270.981 226.216 269.901 228.434 268.38 230.338C266.858 232.242 264.933 233.785 262.744 234.856C261.079 235.62 259.512 236.585 258.08 237.728C255.304 240.128 256.44 242.856 256.44 242.856" fill="#FFD700"/>
<g opacity="0.7">
<path d="M253.68 251.8C251.821 248.935 251.14 245.464 251.778 242.109C252.416 238.754 254.324 235.775 257.104 233.792C259.312 232.192 261.976 231.336 264.064 229.608C265.341 228.488 266.381 227.124 267.123 225.596C267.865 224.069 268.294 222.408 268.384 220.712C268.538 217.309 267.784 213.927 266.2 210.912L268.424 209.816L268.616 210.056C270.093 211.995 271.121 214.237 271.627 216.622C272.133 219.006 272.105 221.472 271.543 223.844C270.981 226.216 269.901 228.434 268.38 230.338C266.858 232.242 264.933 233.785 262.744 234.856C261.079 235.62 259.512 236.585 258.08 237.728C255.304 240.128 256.44 242.856 256.44 242.856" fill="white"/>
</g>
<path d="M256.8 243C255.894 242.82 254.971 242.74 254.048 242.76C253.132 242.907 252.236 243.157 251.376 243.504C252.103 242.843 253.025 242.436 254.004 242.345C254.982 242.254 255.964 242.484 256.8 243Z" fill="#FFD700"/>
<path d="M258.896 236.896C258.784 236.936 258.432 236.24 257.776 235.584C257.12 234.928 256.432 234.56 256.472 234.448C256.512 234.336 257.344 234.552 258.072 235.288C258.8 236.024 259 236.864 258.896 236.896Z" fill="#FFD700"/>
<path d="M266.744 232.256C266.632 232.296 266.344 231.52 265.712 230.76C265.08 230 264.4 229.552 264.456 229.448C264.512 229.344 265.352 229.656 266.056 230.504C266.76 231.352 266.856 232.24 266.744 232.256Z" fill="#FFD700"/>
<path d="M272 222.304C271.388 222.261 270.781 222.168 270.184 222.024C269.572 222.01 268.961 221.943 268.36 221.824C268.96 221.599 269.606 221.525 270.24 221.608C270.875 221.692 271.48 221.931 272 222.304Z" fill="#FFD700"/>
<path d="M270.216 212.688C270.216 212.808 269.536 212.768 268.792 212.992C268.048 213.216 267.496 213.576 267.416 213.488C267.336 213.4 267.816 212.832 268.672 212.592C269.528 212.352 270.248 212.584 270.216 212.688Z" fill="#FFD700"/>
<path d="M196.168 271.912C199 270.072 202.752 270.68 205.968 271.744C209.184 272.808 212.408 274.28 215.776 273.96C219.448 273.616 222.592 271.168 225.016 268.4C228.011 264.978 230.239 260.954 231.552 256.6C232.88 252.168 233.56 246.96 237.376 244.336C241.192 241.712 246.488 243.032 249.768 246.136C253.048 249.24 254.632 253.72 255.672 258.136C258.072 268.312 258.112 279.168 254.816 289.096C251.52 299.024 244.744 307.92 235.544 312.896C226.344 317.872 214.744 318.584 205.384 313.928" fill="#FFD700"/>
<path d="M205.384 313.904C205.531 313.955 205.675 314.013 205.816 314.08L207.064 314.624C207.624 314.84 208.32 315.096 209.144 315.424C209.968 315.752 210.944 315.976 212.056 316.224C214.751 316.806 217.508 317.051 220.264 316.952C221.983 316.883 223.694 316.685 225.384 316.36C227.279 316.014 229.14 315.5 230.944 314.824C235.101 313.271 238.931 310.957 242.24 308C246.048 304.63 249.216 300.6 251.592 296.104C254.214 291.138 255.932 285.744 256.664 280.176C257.453 274.197 257.323 268.132 256.28 262.192C255.799 259.178 255.047 256.214 254.032 253.336C253.079 250.535 251.446 248.015 249.28 246C247.142 244.111 244.363 243.11 241.512 243.2C240.147 243.259 238.821 243.672 237.664 244.4C236.547 245.137 235.616 246.123 234.944 247.28C233.568 249.552 232.976 252.144 232.304 254.592C231.714 257.007 230.867 259.351 229.776 261.584C228.75 263.668 227.497 265.632 226.04 267.44C224.723 269.137 223.172 270.637 221.432 271.896C219.844 273.056 217.995 273.806 216.048 274.08C214.308 274.239 212.555 274.051 210.888 273.528C207.776 272.608 205.232 271.424 202.984 271.064C201.282 270.686 199.513 270.73 197.832 271.192C197.401 271.327 196.983 271.501 196.584 271.712C196.312 271.864 196.168 271.928 196.168 271.928L196.56 271.68C196.953 271.449 197.368 271.259 197.8 271.112C199.494 270.608 201.287 270.536 203.016 270.904C205.288 271.248 207.864 272.416 210.952 273.304C212.59 273.807 214.311 273.981 216.016 273.816C217.916 273.539 219.719 272.797 221.264 271.656C222.976 270.407 224.501 268.92 225.792 267.24C227.222 265.442 228.453 263.495 229.464 261.432C230.541 259.216 231.375 256.891 231.952 254.496C232.616 252.056 233.2 249.432 234.616 247.08C235.315 245.869 236.287 244.839 237.456 244.072C238.655 243.305 240.034 242.866 241.456 242.8C242.907 242.732 244.358 242.958 245.72 243.464C247.113 243.965 248.401 244.719 249.52 245.688C251.735 247.747 253.406 250.322 254.384 253.184C255.412 256.09 256.172 259.084 256.656 262.128C257.713 268.107 257.84 274.214 257.032 280.232C256.29 285.847 254.551 291.285 251.896 296.288C249.494 300.828 246.287 304.894 242.432 308.288C239.083 311.246 235.211 313.552 231.016 315.088C229.197 315.758 227.324 316.266 225.416 316.608C223.712 316.923 221.987 317.11 220.256 317.168C217.481 317.251 214.707 316.982 212 316.368C210.888 316.128 209.928 315.808 209.088 315.568C208.248 315.328 207.568 315 207.016 314.768L205.784 314.184C205.52 313.984 205.384 313.904 205.384 313.904Z" fill="#263238"/>
<path d="M239.816 253.72C239.407 253.381 239.078 252.955 238.856 252.472C238.252 251.33 237.949 250.052 237.976 248.76C237.992 247.47 238.33 246.205 238.96 245.08C239.192 244.598 239.535 244.179 239.96 243.856C240.016 243.904 239.632 244.368 239.224 245.216C238.694 246.326 238.411 247.538 238.393 248.769C238.375 249.999 238.623 251.219 239.12 252.344C239.512 253.2 239.88 253.68 239.816 253.72Z" fill="#263238"/>
<path d="M244.672 253.016C244.306 252.639 244.018 252.193 243.824 251.704C243.288 250.546 242.973 249.298 242.896 248.024C242.816 246.752 242.979 245.475 243.376 244.264C243.506 243.754 243.737 243.275 244.056 242.856C243.459 244.502 243.205 246.252 243.311 248C243.417 249.747 243.88 251.455 244.672 253.016Z" fill="#263238"/>
<path d="M248.56 254.4C248.055 253.187 247.846 251.87 247.952 250.56C247.917 249.246 248.191 247.941 248.752 246.752C248.872 246.792 248.416 248.456 248.368 250.568C248.32 252.68 248.68 254.4 248.56 254.4Z" fill="#263238"/>
<path d="M315.352 264.4C308.032 268.864 298.296 268.016 290.712 264.008C283.128 260 277.384 253.288 272.592 246.248C271.232 244.248 269.856 242.128 267.744 240.92C263.592 238.52 257.856 240.84 255.472 244.92C253.088 249 253.536 254.232 255.376 258.6C255.376 258.6 260.256 282.248 285.696 296.952" fill="#FFD700"/>
<path d="M285.696 296.976C285.619 296.95 285.546 296.912 285.48 296.864L284.856 296.496C284.296 296.152 283.504 295.656 282.456 295.032C281.952 294.696 281.344 294.376 280.744 293.928L278.784 292.496C278.088 291.96 277.288 291.456 276.536 290.792L274.136 288.736C270.177 285.19 266.656 281.183 263.648 276.8C261.833 274.162 260.228 271.386 258.848 268.496C257.298 265.352 256.076 262.058 255.2 258.664V258.704C253.983 255.92 253.475 252.877 253.72 249.848C253.876 248.266 254.326 246.728 255.048 245.312C255.989 243.526 257.432 242.055 259.199 241.08C260.966 240.105 262.98 239.668 264.992 239.824C266.164 239.963 267.289 240.368 268.28 241.008C269.229 241.655 270.071 242.446 270.776 243.352C271.488 244.232 272.112 245.16 272.72 246.064C273.328 246.968 273.96 247.856 274.584 248.72C275.848 250.456 277.144 252.112 278.48 253.656C280.987 256.609 283.842 259.247 286.984 261.512C289.729 263.483 292.773 264.999 296 266C300.66 267.517 305.656 267.672 310.4 266.448C310.796 266.351 311.186 266.23 311.568 266.088C311.928 265.96 312.272 265.856 312.576 265.728C313.184 265.456 313.712 265.248 314.112 265.04L315.032 264.552C315.135 264.492 315.242 264.442 315.352 264.4C315.259 264.472 315.16 264.536 315.056 264.592L314.152 265.112C313.752 265.336 313.232 265.552 312.624 265.84C312.312 265.976 311.976 266.088 311.616 266.224C311.232 266.376 310.84 266.504 310.44 266.608C305.66 267.909 300.605 267.795 295.888 266.28C292.627 265.289 289.55 263.773 286.776 261.792C283.602 259.522 280.717 256.873 278.184 253.904C276.832 252.352 275.528 250.704 274.256 248.96C273.624 248.088 273 247.192 272.384 246.288C271.768 245.384 271.152 244.464 270.456 243.608C269.775 242.739 268.966 241.979 268.056 241.352C267.118 240.748 266.053 240.367 264.944 240.24C262.645 240.03 260.347 240.664 258.48 242.024C257.227 242.939 256.188 244.117 255.436 245.476C254.684 246.834 254.238 248.34 254.128 249.888C253.891 252.848 254.386 255.82 255.568 258.544V258.584C256.431 261.954 257.638 265.228 259.168 268.352C260.551 271.23 262.156 273.996 263.968 276.624C266.95 280.996 270.441 284.997 274.368 288.544L276.768 290.616C277.512 291.288 278.304 291.792 278.984 292.336L280.928 293.792C281.52 294.248 282.12 294.592 282.624 294.912L284.968 296.432L285.568 296.832C285.615 296.876 285.658 296.924 285.696 296.976Z" fill="#263238"/>
<path d="M262.256 254.312C261.65 252.379 260.798 250.532 259.72 248.816C257.848 246.016 255.464 244.544 255.56 244.432C256.118 244.664 256.634 244.986 257.088 245.384C259.4 247.21 261.093 249.705 261.936 252.528C262.146 253.1 262.254 253.703 262.256 254.312Z" fill="#263238"/>
<path d="M267.2 251.104C266.885 249.074 266.304 247.094 265.472 245.216C264.513 243.4 263.321 241.717 261.928 240.208C262.454 240.527 262.927 240.926 263.328 241.392C264.352 242.471 265.202 243.701 265.848 245.04C266.491 246.377 266.928 247.804 267.144 249.272C267.268 249.875 267.287 250.495 267.2 251.104Z" fill="#263238"/>
<g opacity="0.3">
<path d="M250.664 298.056C252.656 295.008 244.448 294.288 240.832 294.712C235.536 295.321 230.656 297.875 227.137 301.88C223.619 305.885 221.714 311.054 221.792 316.384C221.792 316.384 237.6 318.072 250.664 298.056Z" fill="white"/>
</g>
<g opacity="0.3">
<path d="M264.144 284.448C268.303 290.809 274.47 295.597 281.664 298.048C282.419 298.376 283.248 298.492 284.064 298.384C284.466 298.325 284.835 298.127 285.107 297.824C285.378 297.522 285.536 297.134 285.552 296.728C277 292.076 269.67 285.466 264.16 277.44C263.74 279.902 264.092 282.434 265.168 284.688" fill="black"/>
</g>
<path d="M253.138 230.463C260.183 223.418 260.183 211.996 253.138 204.951C246.093 197.906 234.67 197.906 227.625 204.951C220.58 211.996 220.58 223.418 227.625 230.463C234.67 237.508 246.093 237.508 253.138 230.463Z" fill="#F5F5F5"/>
<path d="M258.4 218.464C258.4 227.176 253.824 234.464 248.728 234.464C243.632 234.464 239.496 227.4 239.496 218.696C239.496 209.992 243.632 202.928 248.728 202.928C253.824 202.928 258.4 209.76 258.4 218.464Z" fill="#263238"/>
<path d="M244.24 225.944C244.089 225.766 243.965 225.566 243.872 225.352C243.583 224.787 243.334 224.201 243.128 223.6C241.735 219.585 241.851 215.2 243.456 211.264C243.693 210.674 243.976 210.104 244.304 209.56C244.405 209.35 244.538 209.155 244.696 208.984C244.76 208.984 244.28 209.88 243.736 211.384C243.034 213.326 242.646 215.368 242.584 217.432C242.531 219.493 242.801 221.55 243.384 223.528C243.872 225.024 244.312 225.912 244.24 225.944Z" fill="white"/>
<path d="M251.032 211.672C252.738 211.672 254.12 210.289 254.12 208.584C254.12 206.879 252.738 205.496 251.032 205.496C249.327 205.496 247.944 206.879 247.944 208.584C247.944 210.289 249.327 211.672 251.032 211.672Z" fill="white"/>
<path d="M252.064 195.44C251.72 195.912 250.848 195.904 249.752 195.728C248.656 195.552 247.28 195.232 245.792 194.992C244.304 194.752 242.96 194.608 241.88 194.456C240.8 194.304 239.968 194.088 239.752 193.544C239.536 193 240.056 192.224 241.272 191.576C241.987 191.21 242.758 190.965 243.552 190.848C244.522 190.696 245.51 190.696 246.48 190.848C248.229 191.113 249.857 191.9 251.152 193.104C252.112 194.096 252.392 194.984 252.064 195.44Z" fill="#263238"/>
<path d="M243.888 240.232C242.496 237.371 242.189 234.101 243.025 231.031C243.862 227.961 245.784 225.299 248.435 223.539C251.087 221.779 254.286 221.042 257.441 221.463C260.595 221.885 263.488 223.438 265.584 225.832" fill="#FFD700"/>
<path d="M265.6 225.832C265.6 225.832 265.216 225.472 264.504 224.856C263.487 223.993 262.343 223.291 261.112 222.776C259.294 222.007 257.334 221.631 255.36 221.672C252.934 221.65 250.556 222.353 248.532 223.691C246.507 225.03 244.929 226.942 244 229.184C243.197 230.987 242.783 232.938 242.784 234.912C242.784 236.244 242.986 237.569 243.384 238.84C243.672 239.736 243.896 240.216 243.856 240.232C243.782 240.131 243.72 240.02 243.672 239.904C243.504 239.578 243.357 239.241 243.232 238.896C242.761 237.614 242.512 236.262 242.496 234.896C242.443 232.873 242.836 230.862 243.648 229.008C244.587 226.693 246.202 224.715 248.283 223.334C250.365 221.952 252.814 221.231 255.312 221.264C257.335 221.24 259.339 221.658 261.184 222.488C262.427 223.034 263.568 223.786 264.56 224.712C264.832 224.961 265.086 225.228 265.32 225.512C265.426 225.607 265.52 225.714 265.6 225.832Z" fill="#263238"/>
<path d="M208.064 171.92C207.936 171.987 207.799 172.033 207.656 172.056L206.464 172.376C205.944 172.504 205.312 172.688 204.584 172.912L203.424 173.256L202.128 173.696C197.426 175.339 192.914 177.485 188.672 180.096C184.425 182.716 180.362 185.624 176.512 188.8C175.032 190.016 173.84 191.008 173.032 191.712L172.08 192.512C171.864 192.696 171.744 192.784 171.728 192.768C171.815 192.653 171.914 192.549 172.024 192.456L172.92 191.6C173.72 190.864 174.864 189.84 176.32 188.584C180.133 185.343 184.191 182.401 188.456 179.784C192.722 177.136 197.287 175.004 202.056 173.432L203.36 173.008L204.544 172.696C205.28 172.488 205.912 172.328 206.44 172.224L207.656 171.984C207.789 171.946 207.926 171.925 208.064 171.92Z" fill="#263238"/>
<path d="M92.0478 74.224C91.9046 73.9249 91.7947 73.611 91.7198 73.288C91.6238 72.984 91.5198 72.6 91.4238 72.16C91.3278 71.72 91.1998 71.2 91.1198 70.64C90.9004 69.3173 90.7775 67.9805 90.7518 66.64C90.7317 64.9937 90.8441 63.3483 91.0878 61.72C91.3543 60.0918 91.7475 58.487 92.2638 56.92C92.7058 55.6479 93.2406 54.4099 93.8638 53.216C94.1118 52.696 94.3918 52.256 94.6158 51.856C94.8398 51.456 95.0558 51.136 95.2398 50.872C95.4105 50.5846 95.6117 50.3164 95.8398 50.072C95.9038 50.112 95.1118 51.288 94.1278 53.336C93.5595 54.5357 93.0679 55.7701 92.6558 57.032C92.1663 58.5847 91.7867 60.17 91.5198 61.776C91.2844 63.384 91.1641 65.0068 91.1598 66.632C91.1671 67.97 91.2606 69.3061 91.4398 70.632C91.7278 72.848 92.1278 74.208 92.0478 74.224Z" fill="#263238"/>
<path d="M280.996 25.2629L107.525 57.5392L125.68 155.113L299.15 122.836L280.996 25.2629Z" fill="white"/>
<path d="M299.152 122.832C299.152 122.832 299.024 122.24 298.808 121.088C298.592 119.936 298.264 118.224 297.84 115.992C297 111.528 295.76 104.944 294.176 96.496C290.976 79.608 286.448 55.24 280.832 25.296L281.024 25.424L107.568 57.736L107.736 57.488C114.136 92 120.288 125.008 125.88 155.088L125.648 154.928L250.448 131.8L286.296 125.184L295.848 123.432L298.312 122.984L299.16 122.84L298.36 123.008L295.92 123.472L286.4 125.256L250.608 132L125.712 155.304L125.52 155.344V155.152C119.92 125.088 113.776 92.088 107.344 57.552V57.344H107.544L280.96 25.096H281.12V25.248L294.304 96.592C295.856 105.032 297.064 111.6 297.888 116.064L298.816 121.136C299.056 122.256 299.152 122.832 299.152 122.832Z" fill="#263238"/>
<path d="M182.136 94.928L176.8 95.92L178.08 102.776L168.208 104.616L166.928 97.76L148 101.28L146.768 94.68L158.672 69.344L169.16 67.392L158.472 91.024L165.736 89.672L164.6 83.584L174.2 81.808L175.336 87.888L180.648 86.904L182.136 94.928Z" fill="#263238"/>
<path d="M182.128 83.504C179.928 71.688 185.328 63.648 194.472 61.944C203.616 60.24 211.488 65.816 213.672 77.632C215.856 89.448 210.472 97.488 201.384 99.176C192.296 100.864 184.328 95.32 182.128 83.504ZM203.512 79.504C202.112 72 199.2 69.6 196 70.232C192.8 70.864 190.896 74.088 192.296 81.608C193.696 89.128 196.568 91.504 199.84 90.896C203.112 90.288 204.912 87.04 203.512 79.52V79.504Z" fill="#263238"/>
<path d="M252.984 81.744L247.664 82.736L248.936 89.592L239.072 91.432L237.792 84.576L218.864 88.096L217.64 81.496L229.544 56.16L240 54.208L229.344 77.84L236.608 76.488L235.472 70.4L245.072 68.624L246.2 74.704L251.52 73.72L252.984 81.744Z" fill="#263238"/>
<path d="M185.664 123.8L185.992 125.544L175.8 127.44L173.184 113.392L183.096 111.552L183.416 113.296L175.512 114.768L176.312 119.08L183.36 117.768L183.68 119.48L176.632 120.8L177.48 125.328L185.664 123.8Z" fill="#263238"/>
<path d="M198.624 123.2L194.792 119.448C194.52 119.52 194.224 119.6 193.92 119.656L190.448 120.304L191.248 124.576L189.248 124.952L186.632 110.904L192.112 109.88C195.76 109.2 198.312 110.64 198.88 113.688C199.107 114.656 199.008 115.671 198.598 116.576C198.189 117.482 197.492 118.227 196.616 118.696L200.824 122.792L198.624 123.2ZM196.864 114.064C196.488 112.056 194.936 111.16 192.368 111.664L188.952 112.296L190.128 118.616L193.544 117.984C196.112 117.472 197.24 116.064 196.864 114.056V114.064Z" fill="#263238"/>
<path d="M213.208 120.48L209.376 116.728C209.104 116.8 208.808 116.88 208.504 116.936L205.032 117.576L205.832 121.856L203.832 122.224L201.216 108.184L206.696 107.16C210.344 106.48 212.896 107.96 213.464 110.968C213.696 111.939 213.6 112.96 213.191 113.87C212.781 114.781 212.081 115.53 211.2 116L215.408 120.096L213.208 120.48ZM211.448 111.344C211.072 109.336 209.52 108.44 206.952 108.944L203.536 109.576L204.712 115.896L208.128 115.264C210.696 114.76 211.824 113.344 211.448 111.344Z" fill="#263238"/>
<path d="M215.952 112.704C215.192 108.592 217.784 104.928 222.104 104.128C226.424 103.328 230.104 105.792 230.904 109.928C231.704 114.064 229.072 117.696 224.8 118.496C220.528 119.296 216.72 116.8 215.952 112.704ZM228.88 110.304C228.693 109.218 228.186 108.213 227.426 107.416C226.665 106.619 225.684 106.066 224.609 105.828C223.533 105.59 222.41 105.677 221.384 106.079C220.359 106.481 219.475 107.179 218.847 108.084C218.219 108.989 217.875 110.061 217.858 111.163C217.841 112.264 218.152 113.346 218.751 114.27C219.351 115.195 220.212 115.92 221.225 116.353C222.238 116.786 223.357 116.909 224.44 116.704C225.161 116.593 225.852 116.337 226.471 115.95C227.09 115.564 227.623 115.055 228.039 114.455C228.454 113.856 228.743 113.177 228.888 112.462C229.032 111.747 229.03 111.01 228.88 110.296V110.304Z" fill="#263238"/>
<path d="M244.648 114.632L240.8 110.88C240.52 110.952 240.224 111.024 239.92 111.08L236.448 111.728L237.248 116L235.24 116.376L232.624 102.328L238.104 101.312C241.76 100.632 244.304 102.064 244.872 105.12C245.102 106.088 245.004 107.104 244.594 108.01C244.185 108.916 243.486 109.661 242.608 110.128L246.816 114.224L244.648 114.632ZM242.88 105.488C242.512 103.488 240.952 102.592 238.384 103.088L234.976 103.72L236.152 110.04L239.56 109.408C242.128 108.912 243.256 107.496 242.88 105.488Z" fill="#263238"/>
<path d="M277.336 35.824C277.364 36.5394 277.179 37.2471 276.804 37.8574C276.43 38.4676 275.883 38.9529 275.232 39.2518C274.581 39.5507 273.857 39.6497 273.15 39.5363C272.443 39.4228 271.785 39.1021 271.261 38.6147C270.736 38.1273 270.368 37.4951 270.204 36.7984C270.039 36.1016 270.084 35.3716 270.335 34.7009C270.585 34.0301 271.029 33.4488 271.611 33.0307C272.192 32.6125 272.884 32.3763 273.6 32.352C274.555 32.3195 275.484 32.6665 276.184 33.3171C276.884 33.9677 277.298 34.869 277.336 35.824Z" fill="#E0E0E0"/>
<path d="M277.336 35.824C277.296 35.824 277.288 35.504 277.112 34.968C276.857 34.2194 276.365 33.5738 275.712 33.128C275.184 32.7706 274.568 32.5661 273.931 32.5371C273.294 32.5082 272.662 32.6558 272.104 32.9638C271.546 33.2718 271.084 33.7281 270.769 34.2823C270.454 34.8365 270.299 35.467 270.32 36.104C270.351 36.7385 270.557 37.3521 270.915 37.8773C271.272 38.4025 271.767 38.819 272.346 39.081C272.925 39.3431 273.564 39.4406 274.195 39.3628C274.825 39.285 275.422 39.0349 275.92 38.64C276.538 38.1467 276.977 37.4635 277.168 36.696C277.304 36.144 277.288 35.824 277.328 35.824C277.368 35.824 277.328 35.904 277.368 36.056C277.383 36.2808 277.37 36.5066 277.328 36.728C277.186 37.5624 276.752 38.3193 276.104 38.864C275.622 39.2743 275.045 39.5561 274.425 39.6834C273.806 39.8107 273.164 39.7793 272.56 39.592C271.811 39.3596 271.153 38.9009 270.676 38.2789C270.198 37.6569 269.926 36.9023 269.895 36.119C269.864 35.3356 270.077 34.562 270.504 33.9046C270.931 33.2472 271.552 32.7383 272.28 32.448C272.867 32.2118 273.504 32.1283 274.133 32.2052C274.761 32.2822 275.359 32.5171 275.872 32.888C276.559 33.384 277.049 34.1063 277.256 34.928C277.317 35.144 277.346 35.3676 277.344 35.592C277.352 35.744 277.352 35.824 277.336 35.824Z" fill="#263238"/>
<path d="M275.32 33.312C275.499 34.2772 275.323 35.2746 274.824 36.12C274.451 37.0267 273.764 37.7683 272.888 38.208C273.458 37.4839 273.979 36.7222 274.448 35.928C274.795 35.076 275.086 34.2021 275.32 33.312Z" fill="#263238"/>
<path d="M276 37.144C275.896 37.208 275.416 36.256 274.328 35.696C273.64 35.4174 272.915 35.2396 272.176 35.168C272.176 35.112 272.416 35 272.856 34.968C273.433 34.9379 274.007 35.0622 274.52 35.328C275.032 35.5926 275.463 35.9906 275.768 36.48C276 36.856 276.08 37.128 276 37.144Z" fill="#263238"/>
<path d="M115.211 83.5294L106.11 90.7866L109.392 94.9022L118.493 87.645L115.211 83.5294Z" fill="#E0E0E0"/>
<path d="M118.488 87.656C118.488 87.656 118.12 87.256 117.528 86.552L115.128 83.632H115.344C113.008 85.536 109.816 88.112 106.28 90.928C106.28 91.192 106.28 90.576 106.28 90.64L106.336 90.712L106.448 90.848L106.664 91.112L107.088 91.648L107.888 92.696L109.488 94.696H109.208C111.832 92.624 114.112 90.864 115.752 89.6L117.688 88.128C117.924 87.9354 118.172 87.759 118.432 87.6C118.244 87.7969 118.041 87.9787 117.824 88.144L115.984 89.68C114.384 90.992 112.128 92.88 109.456 95.008L109.304 95.128L109.176 94.976L107.576 92.984C107.296 92.64 107.016 92.296 106.736 91.936L106.312 91.408L106.096 91.136L105.984 91L105.936 90.936C105.936 91 106 90.384 105.936 90.648C109.472 87.824 112.696 85.288 115.072 83.448L115.192 83.36L115.288 83.472C116.304 84.784 117.112 85.872 117.688 86.576C117.979 86.9175 118.246 87.2783 118.488 87.656Z" fill="#263238"/>
<path d="M104.064 96C104.459 96.5009 104.949 96.9189 105.506 97.2302C106.063 97.5415 106.676 97.74 107.31 97.8143C107.944 97.8886 108.586 97.8372 109.2 97.6632C109.814 97.4892 110.387 97.1958 110.888 96.8L104.8 89.2C103.805 90.0072 103.169 91.1748 103.032 92.4484C102.894 93.7221 103.265 94.9987 104.064 96Z" fill="#E0E0E0"/>
<path d="M104.064 96C103.917 95.8795 103.79 95.7364 103.688 95.576C103.387 95.1322 103.165 94.6396 103.032 94.12C102.818 93.318 102.818 92.474 103.032 91.672C103.296 90.631 103.887 89.7025 104.72 89.024L104.872 88.904L104.992 89.056L108.032 92.84C109.104 94.184 110.12 95.472 111.048 96.648L111.168 96.8L111.016 96.92C110.17 97.5793 109.136 97.952 108.064 97.984C107.229 98.005 106.403 97.8123 105.664 97.424C105.19 97.1771 104.762 96.8496 104.4 96.456C104.265 96.3224 104.152 96.1686 104.064 96C104.571 96.4844 105.145 96.8938 105.768 97.216C106.575 97.5889 107.47 97.7303 108.353 97.6244C109.236 97.5184 110.072 97.1693 110.768 96.616V96.888L107.728 93.104L104.712 89.296H104.976C104.28 89.8526 103.753 90.5919 103.453 91.4312C103.154 92.2705 103.094 93.1766 103.28 94.048C103.45 94.7316 103.714 95.3885 104.064 96Z" fill="#263238"/>
<path d="M105.184 93.48C104.81 93.9135 104.565 94.4428 104.476 95.0082C104.387 95.5736 104.458 96.1526 104.68 96.68" fill="#E0E0E0"/>
<path d="M104.68 96.712C104.47 96.4842 104.322 96.2067 104.249 95.9058C104.177 95.6049 104.182 95.2904 104.264 94.992C104.416 93.952 105.12 93.392 105.184 93.48C105.248 93.568 104.8 94.16 104.672 95.08C104.544 96 104.8 96.656 104.68 96.712Z" fill="#263238"/>
<path d="M110.904 94C110.259 93.3396 109.665 92.6309 109.128 91.88C108.489 91.2184 107.9 90.5098 107.368 89.76C108.194 90.2116 108.905 90.8465 109.448 91.616C110.103 92.2938 110.6 93.1078 110.904 94Z" fill="#263238"/>
<path d="M112 93.152C111.358 92.4905 110.767 91.7818 110.232 91.032C109.591 90.3693 109.002 89.6578 108.472 88.904C110.046 89.9352 111.275 91.415 112 93.152Z" fill="#263238"/>
<path d="M113.04 92.296C112.396 91.6366 111.805 90.9277 111.272 90.176C110.629 89.5157 110.038 88.807 109.504 88.056C110.332 88.5085 111.046 89.1431 111.592 89.912C112.242 90.5921 112.736 91.4056 113.04 92.296Z" fill="#263238"/>
<path d="M114.104 91.448C113.462 90.7864 112.871 90.0778 112.336 89.328C111.698 88.6628 111.109 87.9515 110.576 87.2C111.397 87.6583 112.107 88.292 112.656 89.056C113.312 89.7344 113.807 90.552 114.104 91.448Z" fill="#263238"/>
<path d="M115.2 90.592C114.556 89.9326 113.965 89.2237 113.432 88.472C112.79 87.813 112.202 87.1041 111.672 86.352C112.495 86.8084 113.205 87.4424 113.752 88.208C114.402 88.8881 114.896 89.7016 115.2 90.592Z" fill="#263238"/>
<path d="M116.24 89.744C115.599 89.0824 115.008 88.3738 114.472 87.624C113.834 86.9588 113.246 86.2475 112.712 85.496C113.533 85.9543 114.243 86.588 114.792 87.352C115.448 88.0304 115.943 88.848 116.24 89.744Z" fill="#263238"/>
<path d="M117.312 88.888C116.668 88.2286 116.077 87.5197 115.544 86.768C114.902 86.109 114.313 85.4001 113.784 84.648C114.606 85.1044 115.317 85.7384 115.864 86.504C116.514 87.1841 117.008 87.9977 117.312 88.888Z" fill="#263238"/>
<path d="M123.6 65.6C123.56 65.6 123.552 65.272 123.376 64.736C123.122 63.9734 122.621 63.3174 121.952 62.872C121.418 62.5079 120.794 62.2989 120.148 62.2681C119.503 62.2372 118.862 62.3859 118.296 62.6975C117.73 63.0091 117.261 63.4714 116.942 64.0332C116.623 64.595 116.466 65.2343 116.488 65.88C116.516 66.5262 116.723 67.1519 117.086 67.6874C117.448 68.223 117.952 68.6474 118.542 68.9136C119.131 69.1797 119.783 69.2771 120.425 69.1949C121.066 69.1127 121.672 68.8542 122.176 68.448C122.803 67.9502 123.248 67.2579 123.44 66.48C123.576 65.928 123.56 65.6 123.6 65.6C123.64 65.6 123.6 65.68 123.64 65.832C123.655 66.0595 123.641 66.2879 123.6 66.512C123.47 67.3609 123.045 68.137 122.4 68.704C121.914 69.1203 121.329 69.4057 120.702 69.5331C120.075 69.6605 119.426 69.6257 118.816 69.432C118.069 69.19 117.414 68.7248 116.939 68.099C116.465 67.4732 116.194 66.7171 116.162 65.9324C116.131 65.1477 116.341 64.3723 116.764 63.7106C117.187 63.049 117.802 62.5329 118.528 62.232C119.123 61.995 119.769 61.9118 120.405 61.9901C121.041 62.0684 121.647 62.3056 122.168 62.68C122.861 63.1831 123.357 63.9135 123.568 64.744C123.626 64.9635 123.658 65.189 123.664 65.416C123.637 65.5387 123.616 65.6 123.6 65.6Z" fill="#263238"/>
<path d="M99.8397 74.464C99.7038 74.1628 99.5967 73.8494 99.5197 73.528C99.3969 73.1561 99.298 72.7766 99.2237 72.392C99.1277 71.952 98.9917 71.448 98.9197 70.88C98.6977 69.5575 98.5721 68.2207 98.5437 66.88C98.4809 63.5762 98.9953 60.2869 100.064 57.16C100.504 55.8846 101.039 54.6438 101.664 53.448C101.904 52.928 102.184 52.488 102.408 52.096C102.599 51.7577 102.807 51.4293 103.032 51.112C103.205 50.826 103.406 50.558 103.632 50.312C103.704 50.36 102.904 51.528 101.928 53.584C101.35 54.7807 100.856 56.0156 100.448 57.28C99.9581 58.8295 99.5812 60.4122 99.3197 62.016C99.0776 63.6261 98.9546 65.2518 98.9517 66.88C98.9583 68.218 99.0518 69.5541 99.2317 70.88C99.5197 73.088 99.9197 74.44 99.8397 74.464Z" fill="#263238"/>
<path d="M310.792 109.6C310.94 109.897 311.05 110.212 311.12 110.536C311.239 110.906 311.338 111.283 311.416 111.664C311.512 112.112 311.648 112.616 311.72 113.184C311.942 114.506 312.068 115.843 312.096 117.184C312.157 120.488 311.643 123.777 310.576 126.904C310.137 128.177 309.602 129.416 308.976 130.608C308.728 131.128 308.456 131.568 308.224 131.968C308.037 132.309 307.828 132.637 307.6 132.952C307.433 133.24 307.235 133.508 307.008 133.752C306.936 133.712 307.736 132.536 308.712 130.488C309.28 129.287 309.774 128.053 310.192 126.792C310.682 125.24 311.059 123.655 311.32 122.048C311.562 120.441 311.685 118.818 311.688 117.192C311.677 115.854 311.583 114.518 311.408 113.192C311.12 111.008 310.72 109.648 310.792 109.6Z" fill="#263238"/>
<path d="M316 111.008C316.145 111.306 316.256 111.62 316.328 111.944C316.447 112.314 316.546 112.691 316.624 113.072C316.72 113.52 316.848 114.024 316.928 114.592C317.15 115.914 317.276 117.251 317.304 118.592C317.32 120.238 317.208 121.883 316.968 123.512C316.702 125.141 316.307 126.746 315.784 128.312C315.343 129.587 314.809 130.828 314.184 132.024C313.936 132.536 313.664 132.976 313.432 133.376C313.24 133.729 313.029 134.071 312.8 134.4C312.633 134.688 312.434 134.956 312.208 135.2C312.136 135.16 312.936 133.984 313.912 131.936C314.482 130.736 314.976 129.502 315.392 128.24C315.882 126.688 316.259 125.103 316.52 123.496C316.762 121.889 316.885 120.266 316.888 118.64C316.877 117.302 316.783 115.966 316.608 114.64C316.32 112.384 315.92 111.024 316 111.008Z" fill="#263238"/>
<path d="M142.024 173.768C147.09 167.002 149.435 158.582 148.597 150.171C147.759 141.76 143.798 133.969 137.497 128.335C131.195 122.701 123.011 119.634 114.559 119.74C106.107 119.845 98.0016 123.114 91.8423 128.903C85.6831 134.692 81.9175 142.579 81.2889 151.008C80.6603 159.438 83.2143 167.796 88.4468 174.435C93.6794 181.073 101.21 185.509 109.553 186.866C117.896 188.224 126.445 186.405 133.512 181.768L145.128 186.912L142.024 173.768Z" fill="#FAFAFA"/>
<path d="M104.736 151.616C104.835 150.342 105.324 149.13 106.136 148.144C106.891 147.146 107.941 146.41 109.136 146.04C110.159 145.745 111.25 145.797 112.239 146.19C113.228 146.582 114.059 147.292 114.6 148.208C115.061 147.291 115.802 146.544 116.715 146.075C117.628 145.606 118.666 145.44 119.68 145.6C120.9 145.835 122.018 146.442 122.88 147.336C123.799 148.225 124.427 149.371 124.68 150.624C124.971 152.229 124.736 153.884 124.008 155.344C123.156 156.832 121.96 158.094 120.52 159.024C118.192 160.624 115.128 162.624 115.128 162.624C115.128 162.624 112.32 160.776 109.824 159.464C108.283 158.711 106.944 157.6 105.92 156.224C105.042 154.855 104.627 153.239 104.736 151.616Z" fill="#FFD700"/>
<path d="M114.944 119.864C114.747 119.846 114.549 119.846 114.352 119.864L112.632 119.92C112.248 119.92 111.832 119.92 111.36 119.976L109.84 120.184L108.064 120.44L106.08 120.936C102.671 121.795 99.4273 123.211 96.4802 125.128C92.1085 127.908 88.4312 131.652 85.73 136.072C83.0288 140.493 81.3753 145.474 80.8962 150.632C80.7637 152.18 80.7316 153.736 80.8002 155.288C80.8562 156.088 80.8002 156.888 80.9522 157.688C81.1042 158.488 81.1922 159.288 81.3202 160.088C81.9152 163.383 82.9935 166.572 84.5202 169.552C86.1537 172.672 88.2343 175.537 90.6962 178.056C93.3166 180.635 96.32 182.794 99.6002 184.456C102.993 186.199 106.669 187.326 110.456 187.784C111.414 187.935 112.382 188.018 113.352 188.032C114.326 188.107 115.304 188.125 116.28 188.088C118.252 188.006 120.214 187.757 122.144 187.344C126.31 186.442 130.27 184.765 133.816 182.4L133.464 182.44L145.352 187.24L146.056 187.528L145.856 186.792L142.4 174.04L142.344 174.352C145.567 170.077 147.738 165.103 148.68 159.832C149.138 157.38 149.294 154.882 149.144 152.392C149.12 151.188 149.005 149.987 148.8 148.8C148.712 148.216 148.616 147.64 148.528 147.064C148.44 146.488 148.248 145.936 148.112 145.376C146.127 137.564 141.428 130.713 134.856 126.048C132.427 124.304 129.77 122.901 126.96 121.88L125.184 121.248L123.496 120.816L121.952 120.432C121.456 120.336 120.976 120.288 120.528 120.216C119.632 120.104 118.84 119.952 118.128 119.912L116.376 119.856H115.312C115.193 119.838 115.072 119.838 114.952 119.856C115.071 119.882 115.191 119.898 115.312 119.904L116.376 119.984L118.104 120.104C118.792 120.16 119.576 120.328 120.464 120.464C126.914 121.577 132.901 124.539 137.7 128.99C142.498 133.44 145.901 139.188 147.496 145.536C147.624 146.088 147.792 146.632 147.896 147.192C148 147.752 148.064 148.328 148.152 148.896C148.345 150.057 148.45 151.231 148.464 152.408C148.601 154.85 148.439 157.3 147.984 159.704C147.042 164.863 144.899 169.727 141.728 173.904L141.624 174.048L141.672 174.224C142.792 178.328 143.944 182.576 145.136 186.936L145.64 186.488L133.76 181.688L133.576 181.616L133.4 181.72C129.929 184.015 126.06 185.642 121.992 186.52C120.107 186.925 118.191 187.168 116.264 187.248C115.309 187.281 114.353 187.263 113.4 187.192C112.454 187.176 111.511 187.096 110.576 186.952C106.874 186.507 103.28 185.41 99.9601 183.712C96.7378 182.1 93.7832 180 91.2002 177.488C88.7867 175.024 86.7416 172.224 85.1282 169.176C83.6152 166.264 82.537 163.145 81.9282 159.92C81.8082 159.12 81.6882 158.32 81.5682 157.576C81.4482 156.832 81.4642 155.976 81.4082 155.24C81.1186 149.376 82.3756 143.539 85.0533 138.315C87.7309 133.09 91.735 128.661 96.6642 125.472C99.5654 123.55 102.759 122.11 106.12 121.208L108.08 120.688L109.84 120.4L111.344 120.152C111.808 120.096 112.232 120.088 112.608 120.056L114.328 119.928C114.535 119.92 114.74 119.898 114.944 119.864Z" fill="#263238"/>
</svg>
